<?xml version="1.0" encoding="UTF-8"?>
<svg width="104px" height="95px" viewBox="0 0 104 95" version="1.1" xmlns="http://www.w3.org/2000/svg" xmlns:xlink="http://www.w3.org/1999/xlink">
    <!-- Generator: Sketch 41.1 (35376) - http://www.bohemiancoding.com/sketch -->
    <title>Lovelist-Filled</title>
    <desc>Created with Sketch.</desc>
    <defs>
        <polygon id="path-1" points="0.000381667127 99 107.094 99 107.094 0.1423 0.000381667127 0.1423 0.000381667127 99"></polygon>
    </defs>
    <g id="Page-1" stroke="none" stroke-width="1" fill="none" fill-rule="evenodd">
        <g id="Planche-Picto" transform="translate(-678.000000, -3930.000000)">
            <g id="Lovelist-Filled" transform="translate(676.000000, 3927.000000)">
                <g id="Group-3" transform="translate(0.000000, 0.861300)">
                    <mask id="mask-2" fill="white">
                        <use xlink:href="#path-1"></use>
                    </mask>
                    <g id="Clip-2"></g>
                </g>
                <path d="M3.8076,37.3652 L5.5576,43.8532 L9.8076,51.4482 L28.3086,71.0312 L41.7716,82.3652 L49.9746,93.3652 L53.6596,96.6992 L59.0576,90.9492 L65.5576,82.9492 L72.2246,74.8082 L85.2236,63.0332 L101.7236,43.5332 C101.7236,43.5332 104.0566,31.3442 104.1396,30.6052 C104.2236,29.8662 101.1396,21.1852 101.1396,21.1852 L97.4046,11.0632 L93.3076,9.5322 L78.4736,4.6162 L66.8896,6.6162 L58.3306,12.9082 L53.9746,18.2132 L45.4736,10.2832 L35.3076,6.1992 L25.9736,5.1162 L12.7416,11.2832 L8.0576,18.3532 L3.8076,28.0332 L3.8076,37.3652 Z" id="Fill-4" fill="#FF5900"></path>
                <g id="Group-54" transform="translate(10.000000, 11.861300)" fill="#FFFFFF">
                    <path d="M10.083,36.7695 C10.083,36.7775 10.086,36.7875 10.088,36.7955 C10.457,36.7285 10.828,36.6655 11.194,36.5895 C11.362,36.5535 11.558,36.4855 11.489,36.2655 C11.417,36.0375 11.206,36.1035 11.062,36.1735 C10.656,36.3675 10.239,36.4265 9.798,36.3725 C9.621,36.3475 9.364,36.2555 9.36,36.5395 C9.356,36.7735 9.618,36.7615 9.801,36.7775 C9.894,36.7845 9.989,36.7725 10.083,36.7695 M20.569,48.3355 C20.759,48.3395 20.949,48.3475 21.11,48.2185 C21.241,48.1135 21.264,47.9175 21.122,47.9125 C20.563,47.8885 20.283,47.2875 19.731,47.2855 C19.464,47.2875 19.222,47.1935 18.97,47.1135 C18.559,46.9845 18.138,46.8495 17.695,46.8655 C17.518,46.8695 17.261,46.8005 17.253,47.0665 C17.249,47.2635 17.485,47.2535 17.645,47.3105 C18.219,47.5115 18.808,47.6955 19.341,47.9785 C19.739,48.1915 20.13,48.3185 20.569,48.3355 M18.827,48.4275 C17.642,47.8395 16.354,47.7655 15.213,47.1755 C14.752,46.9375 14.147,46.9625 13.604,46.9145 C13.265,46.8845 12.987,46.7285 12.696,46.5995 C12.438,46.4865 12.349,46.2085 12.423,45.9745 C12.524,45.6545 12.78,45.8675 12.944,45.9315 C13.971,46.3265 15.052,46.3735 16.124,46.4805 C16.286,46.4985 16.503,46.5425 16.532,46.3025 C16.554,46.1195 16.363,46.0645 16.224,46.0175 C16.044,45.9585 15.854,45.9315 15.669,45.8925 C15.558,45.8695 15.388,45.8845 15.343,45.8165 C14.886,45.1155 13.949,45.3985 13.406,44.8515 C13.233,44.6755 12.903,44.7065 12.638,44.7265 C11.892,44.7775 11.178,44.4625 10.429,44.5445 C10.216,44.5705 10.118,44.3455 9.952,44.2615 C9.807,44.1855 9.682,44.0645 9.722,43.9065 C9.77,43.7185 9.97,43.7515 10.112,43.7655 C11,43.8475 11.896,43.8865 12.772,44.0405 C13.938,44.2495 15.108,44.3805 16.292,44.3885 C16.464,44.3885 16.731,44.4565 16.761,44.1995 C16.787,43.9605 16.524,43.8925 16.353,43.8865 C15.161,43.8335 14.191,43.0895 13.058,42.8535 C12.574,42.7535 12.096,42.6015 11.605,42.5705 C10.614,42.5055 9.679,42.1585 8.7,42.0375 C8.571,42.0195 8.42,42.0155 8.342,41.8925 C8.253,41.7535 8.094,41.6265 8.143,41.4395 C8.204,41.2035 8.429,41.2575 8.575,41.2795 C9.136,41.3615 9.697,41.4605 10.253,41.5815 C10.579,41.6525 10.891,41.6935 10.979,41.2895 C11.062,40.9195 10.707,40.9535 10.497,40.8715 C9.455,40.4705 8.435,39.9885 7.27,40.0975 C7.015,40.1215 6.853,39.9765 6.731,39.7545 C6.581,39.4785 6.666,39.3475 6.956,39.3615 C7.335,39.3795 7.729,39.3725 8.088,39.4765 C9.659,39.9375 11.279,39.7925 12.878,39.9045 C13.081,39.9175 13.356,39.9925 13.411,39.7355 C13.456,39.5155 13.126,39.5275 13.022,39.3945 C12.215,38.3785 11.079,38.6055 10.003,38.5465 C8.431,38.4615 6.861,38.3225 5.29,38.2145 C5.028,38.1975 4.829,38.1165 4.825,37.8315 C4.821,37.5295 5.077,37.5395 5.281,37.5365 C5.89,37.5305 6.495,37.5575 7.074,37.7815 C7.269,37.8575 7.53,37.9745 7.627,37.7325 C7.72,37.4975 7.376,37.5195 7.267,37.3805 C7.024,37.0765 6.536,37.3825 6.243,36.8885 C6.884,37.0645 7.274,36.5835 7.801,36.5295 C7.897,36.5195 8.001,36.4985 8.01,36.3805 C8.02,36.2405 7.9,36.1995 7.802,36.1425 C7.232,35.8245 6.596,35.7125 5.979,35.5365 C4.833,35.2095 3.666,34.9275 2.727,34.1215 C2.67,34.0725 2.596,34.0425 2.544,33.9885 C2.46,33.9005 2.416,33.7905 2.506,33.6835 C2.607,33.5615 2.71,33.6245 2.791,33.7145 C3.168,34.1265 3.695,34.2495 4.179,34.4595 C4.479,34.5915 4.695,34.6485 4.532,34.1975 C4.418,33.8765 4.644,33.7285 4.835,33.5155 C4.663,34.1135 4.985,34.2295 5.449,34.4385 C6.395,34.8665 7.395,35.1175 8.353,35.4995 C8.89,35.7165 9.496,35.7225 10.083,35.7135 C10.227,35.7105 10.345,35.6385 10.358,35.4785 C10.37,35.3385 10.258,35.2945 10.152,35.2445 C8.249,34.3455 6.517,33.0975 4.421,32.5855 C3.43,32.3445 2.493,31.8985 1.708,31.2035 C1.595,31.1055 1.47,31.0115 1.378,30.8955 C1.296,30.7905 1.253,30.6505 1.354,30.5265 C1.462,30.3945 1.557,30.5325 1.653,30.5605 C1.983,30.6585 2.2,30.8975 2.382,31.1675 C2.642,31.5575 3.04,31.7305 3.45,31.8805 C3.56,31.9225 3.724,32.0095 3.8,31.8415 C3.866,31.6955 3.74,31.6015 3.627,31.5235 C3.579,31.4905 3.535,31.4555 3.495,31.4145 C3.317,31.2385 3.106,31.0545 3.347,30.7905 C3.568,30.5485 3.771,30.7595 3.948,30.8715 C4.827,31.4245 5.664,32.0525 6.579,32.5395 C7.47,33.0095 8.457,32.9115 9.413,32.6675 C9.656,32.6075 9.648,32.4295 9.463,32.2965 C9.279,32.1645 9.07,32.0665 8.87,31.9585 C8.755,31.8945 8.573,31.8695 8.526,31.7715 C8.165,31.0355 7.429,31.1335 6.826,31.0505 C5.185,30.8245 3.763,30.1135 2.386,29.2535 C1.985,29.0055 1.792,28.5745 1.431,28.2985 C1.296,28.1995 1.317,28.0585 1.426,27.9525 C1.602,27.7815 1.806,27.8595 1.935,27.9925 C2.16,28.2205 2.407,28.4255 2.63,28.6535 C3.546,29.5855 4.749,29.9395 5.927,30.3495 C6.058,30.3945 6.249,30.4725 6.323,30.2755 C6.393,30.0935 6.22,30.0015 6.097,29.9275 C5.869,29.7905 5.636,29.6585 5.391,29.5595 C4.769,29.3045 4.198,28.9885 3.782,28.4395 C3.63,28.2365 3.446,28.0985 3.162,28.1255 C2.977,28.1425 2.81,28.0625 2.851,27.8285 C2.886,27.6275 3.036,27.5325 3.226,27.5625 C3.392,27.5895 3.573,27.6305 3.704,27.7265 C4.446,28.2565 5.232,28.7185 5.952,29.2875 C6.391,29.6325 6.833,29.9915 7.306,30.2975 C7.684,30.5425 8.133,30.6265 8.567,30.5375 C9.532,30.3335 10.503,30.1195 11.265,29.4165 C11.279,29.4045 11.294,29.3915 11.31,29.3805 C11.575,29.2075 11.916,28.9155 12.144,29.2575 C12.321,29.5275 11.916,29.7105 11.704,29.8815 C10.919,30.5125 10.077,31.0035 9.023,30.9825 C8.91,30.9805 8.783,30.9845 8.738,31.1155 C8.682,31.2775 8.794,31.3575 8.916,31.4265 C9.327,31.6615 9.726,31.9125 10.118,32.1815 C10.496,32.4445 10.904,32.2615 11.218,31.9985 C11.516,31.7465 11.826,31.4605 11.665,30.9805 C11.618,30.8435 11.418,30.6385 11.651,30.5565 C11.857,30.4825 12.001,30.6655 12.097,30.8865 C12.397,31.5765 12.139,32.1815 11.395,32.4695 C11.249,32.5285 11.003,32.4995 11.019,32.7365 C11.036,32.9725 11.265,32.9295 11.427,32.9355 C11.682,32.9475 11.864,33.0465 11.942,33.3005 C11.979,33.4185 11.963,33.5295 11.87,33.6135 C11.656,33.8015 11.374,33.7345 11.236,33.6015 C10.392,32.7815 9.388,33.1625 8.432,33.1735 C8.306,33.1765 8.147,33.1715 8.128,33.3575 C8.118,33.4605 8.188,33.5275 8.269,33.5845 C9.393,34.4275 11.493,34.4455 12.653,33.6575 C12.915,33.4805 12.983,33.1505 13.278,33.0095 C13.157,33.5315 12.572,34.1705 12.027,34.3085 C11.519,34.4355 11.009,34.6265 10.465,34.4885 C10.331,34.4545 10.179,34.4555 10.136,34.6195 C10.094,34.7785 10.226,34.8605 10.348,34.9125 C10.7,35.0645 11.067,35.1815 11.454,35.0805 C11.728,35.0075 11.989,34.8935 12.263,34.8145 C12.55,34.7315 12.933,34.3675 13.102,34.6865 C13.228,34.9255 12.709,35.1075 12.483,35.3205 C12.332,35.4625 11.882,35.3925 12.082,35.7835 C12.261,36.1305 12.616,35.9875 12.839,35.8555 C13.187,35.6485 13.534,35.3535 13.56,34.9145 C13.586,34.5115 13.79,34.6315 14.017,34.6485 C14.353,34.6755 14.31,34.8575 14.239,35.0825 C14.022,35.7665 13.61,36.2315 12.948,36.5705 C12.317,36.8945 11.688,37.0915 10.995,37.1295 C10.872,37.1365 10.769,37.1815 10.732,37.3085 C10.693,37.4455 10.787,37.5075 10.891,37.5705 C11.31,37.8205 11.718,37.9415 12.237,37.8285 C13.056,37.6525 13.866,37.4905 14.591,37.0425 C14.706,36.9705 14.847,36.9045 14.951,37.0345 C15.067,37.1775 14.987,37.3215 14.886,37.4435 C14.465,37.9605 13.898,38.1835 13.254,38.2685 C13.058,38.2935 12.774,38.1775 12.675,38.3915 C12.546,38.6735 12.913,38.7275 13.038,38.8945 C13.264,39.1955 13.732,39.2875 13.772,39.7715 C13.78,39.8845 13.97,39.8265 14.078,39.8235 C14.476,39.8105 14.876,39.8065 15.273,39.7815 C15.804,39.7495 15.93,39.4985 15.637,39.0545 C15.548,38.9215 15.438,38.8105 15.588,38.6605 C15.734,38.5155 15.856,38.6305 15.993,38.6975 C16.399,38.8925 16.448,39.2485 16.374,39.6155 C16.263,40.1675 15.797,40.3605 15.323,40.4275 C14.362,40.5625 13.392,40.5355 12.423,40.4745 C12.327,40.4695 12.233,40.4495 12.14,40.4455 C12.009,40.4375 11.851,40.4155 11.802,40.5805 C11.743,40.7795 11.921,40.8965 12.049,40.8885 C12.782,40.8505 13.234,41.4255 13.797,41.7185 C15.263,42.4745 16.591,41.9585 17.94,41.4905 C18.362,41.3455 18.371,41.0785 17.918,40.9075 C17.651,40.8055 17.61,40.6195 17.742,40.4145 C17.893,40.1755 18.038,40.3965 18.165,40.4745 C19.037,41.0055 18.95,41.5075 17.987,42.1135 C17.557,42.3845 17.026,42.5705 16.476,42.5565 C16.347,42.5525 16.194,42.5195 16.125,42.6675 C16.056,42.8165 16.153,42.9295 16.259,43.0115 C16.61,43.2775 16.73,43.7575 17.136,43.9645 C17.784,44.2925 19.506,43.8735 19.95,43.3045 C20.069,43.1505 20.044,43.0395 19.942,42.9005 C19.85,42.7715 19.661,42.6855 19.731,42.4335 C20.082,42.4945 20.471,42.3945 20.589,42.9335 C20.688,43.3945 20.527,43.6545 20.138,43.8455 C19.771,44.0255 19.553,44.4215 19.093,44.4885 C18.894,44.5195 18.977,44.7145 19.113,44.8335 C19.323,45.0115 19.578,45.0835 19.827,45.1775 C20.015,45.2495 20.187,45.3925 20.073,45.6055 C19.952,45.8335 19.785,45.6115 19.704,45.5445 C18.633,44.6695 17.39,44.7835 16.142,44.8905 C15.991,44.9045 15.803,44.8715 15.762,45.0585 C15.712,45.2735 15.884,45.3375 16.058,45.3985 C16.573,45.5825 17.074,45.8085 17.595,45.9685 C18.498,46.2445 19.396,46.0055 20.276,45.8265 C20.524,45.7755 20.795,45.7445 21.038,45.6305 C21.499,45.4145 21.556,45.1365 21.187,44.7795 C21.083,44.6775 20.905,44.5935 21.049,44.4155 C21.179,44.2555 21.353,44.2925 21.516,44.3765 C21.899,44.5745 22.01,44.9745 22.062,45.3265 C22.113,45.6715 21.872,45.9865 21.53,46.1285 C21.08,46.3205 20.641,46.5685 20.12,46.5175 C19.989,46.5055 19.827,46.5055 19.79,46.6695 C19.738,46.8925 19.941,46.9045 20.074,46.9415 C20.437,47.0465 20.804,47.1405 21.173,47.2285 C21.581,47.3265 21.896,47.4645 21.534,47.9475 C22.111,48.1545 22.389,47.7325 22.691,47.4575 C22.873,47.2925 22.688,47.1175 22.513,47.0095 C22.417,46.9535 22.293,46.9005 22.353,46.7535 C22.403,46.6305 22.528,46.6015 22.64,46.6405 C22.843,46.7105 23.149,46.5765 23.243,46.8555 C23.361,47.2145 23.442,47.6055 23.194,47.9495 C22.946,48.2945 22.644,48.5765 22.185,48.6245 C22.062,48.6385 21.88,48.6345 21.86,48.7985 C21.838,48.9965 22.03,49.0175 22.169,49.0705 C22.239,49.0975 22.31,49.1265 22.378,49.1605 C22.514,49.2265 22.783,49.1325 22.759,49.3925 C22.737,49.6405 22.532,49.7875 22.296,49.8305 C22.048,49.8745 21.738,49.8495 21.584,49.6975 C20.94,49.0705 20.226,48.9625 19.351,49.0805 C17.86,49.2795 16.359,49.0875 14.864,48.9725 C14.582,48.9515 14.296,48.9625 14.012,48.9665 C13.704,48.9725 13.526,48.8185 13.558,48.5215 C13.588,48.2465 13.823,48.2675 14.045,48.2795 C15.422,48.3535 16.8,48.4085 18.161,48.6585 C18.421,48.7055 18.687,48.6715 18.827,48.4275" id="Fill-6"></path>
                    <path d="M8.7822,11.8428 C8.7922,11.8988 8.7902,11.9298 8.8012,11.9338 C9.6222,12.2568 10.2372,12.8948 10.9562,13.3728 C11.5272,13.7538 12.3372,13.8378 12.6162,14.6188 C12.6742,14.7808 12.8312,14.7028 12.9642,14.6938 C13.9242,14.6138 14.7572,14.1078 15.6752,13.8818 C15.8722,13.8318 16.0422,13.6798 16.1492,13.4918 C16.2332,13.3408 16.3152,13.2058 16.4792,13.3918 C16.6022,13.5298 16.6382,13.6758 16.4562,13.8288 C14.4922,15.4788 12.2512,15.3908 9.9622,14.9438 C10.1062,15.3718 10.2122,15.4098 10.6322,15.6928 C11.1412,16.0368 11.5852,16.4358 12.1952,16.6698 C12.8032,16.9048 13.3372,16.8198 13.9102,16.7328 C14.0782,16.7068 14.2412,16.6328 14.4092,16.6188 C14.8112,16.5918 15.0282,16.4898 14.6922,16.0808 C14.6142,15.9888 14.5712,15.8848 14.6592,15.7728 C14.7482,15.6598 14.8542,15.6918 14.9662,15.7328 C15.1082,15.7848 15.2552,15.8298 15.3992,15.8758 C15.6672,15.9628 15.8932,16.1268 15.9442,16.4028 C15.9992,16.6988 15.6752,16.7268 15.5062,16.8538 C15.1632,17.1078 14.7652,17.2308 14.3502,17.3068 C12.7652,17.6058 11.1912,17.4828 9.6222,17.1938 C9.4522,17.1618 9.2682,17.0778 9.1752,17.2868 C9.0822,17.4918 9.2572,17.5838 9.3972,17.6878 C9.8772,18.0448 10.3642,18.3928 10.8232,18.7748 C10.9752,18.9028 11.1242,18.9178 11.2912,18.9238 C11.7452,18.9378 12.2022,18.9478 12.6552,18.9488 C12.8752,18.9508 13.0642,18.8918 13.1612,18.6598 C13.2642,18.4138 13.4342,18.4298 13.6162,18.5718 C13.8642,18.7678 13.6642,18.9008 13.5422,19.0348 C13.3632,19.2308 13.1182,19.2838 12.8702,19.2988 C11.5322,19.3828 10.1892,19.6558 8.8662,19.1778 C8.7552,19.1368 8.5732,19.0738 8.5402,19.2678 C8.5062,19.4628 8.5892,19.6598 8.7532,19.7708 C9.0832,19.9898 9.4262,20.1968 9.7762,20.3868 C10.0442,20.5298 10.2802,20.6918 10.5072,20.9058 C10.8342,21.2178 11.2762,21.0138 11.6192,20.8968 C12.1632,20.7078 12.7922,20.8268 13.2722,20.4048 C13.3712,20.3188 13.6222,20.2358 13.7182,20.4508 C13.8022,20.6418 13.5782,20.6838 13.4752,20.7798 C13.1712,21.0588 12.8012,21.1548 12.4052,21.2548 C10.9412,21.6328 9.4912,21.7478 8.0322,21.2598 C7.9192,21.2218 7.7962,21.2168 7.7422,21.3508 C7.6802,21.5038 7.7722,21.6378 7.9022,21.6668 C8.3032,21.7558 8.5182,21.9888 8.5772,22.3928 C8.5972,22.5368 8.7072,22.6228 8.8622,22.6188 C9.8112,22.6058 10.7572,22.7738 11.7062,22.6558 C11.8702,22.6358 12.0552,22.6528 12.1242,22.4358 C12.1712,22.2908 12.0482,22.0158 12.2902,22.0248 C12.4822,22.0308 12.6502,22.2388 12.6982,22.4508 C12.7492,22.6758 12.6512,22.8668 12.4322,22.9608 C12.2782,23.0278 12.1102,23.1018 11.9462,23.1058 C10.6982,23.1328 9.4592,23.2038 8.2062,22.9488 C7.3432,22.7738 6.4372,22.7988 5.5962,22.4668 C5.5092,22.4318 5.3912,22.4398 5.3452,22.5308 C5.3192,22.5838 5.3542,22.6808 5.3902,22.7398 C5.4502,22.8338 5.5172,22.9698 5.6062,22.9898 C6.3272,23.1698 6.6782,23.8788 7.3172,24.1758 C7.4292,24.2288 7.5422,24.3458 7.5892,24.4598 C7.7662,24.8928 8.1382,24.9578 8.5182,24.9518 C9.6942,24.9358 10.8542,24.7988 11.9802,24.4198 C12.2022,24.3438 12.5932,24.1528 12.6832,24.4488 C12.8012,24.8398 12.3482,24.7618 12.1182,24.8848 C11.1052,25.4298 9.9282,25.2578 8.8882,25.6678 C8.7722,25.7128 8.6142,25.7458 8.5052,25.7048 C7.3502,25.2658 6.0622,25.3988 4.9342,24.8478 C4.7822,24.7728 4.5522,24.6128 4.4552,24.8808 C4.3742,25.1018 4.6242,25.1618 4.7732,25.2778 C5.4072,25.7778 6.0812,26.2248 6.6672,26.7888 C7.1572,27.2618 7.6472,27.6928 8.4682,27.6138 C9.2912,27.5378 10.1322,27.5738 10.9642,27.4958 C11.1572,27.4788 11.3422,27.4788 11.4832,27.3168 C11.5712,27.2168 11.6902,27.0928 11.8052,27.2478 C11.8892,27.3618 11.8002,27.5048 11.7232,27.6138 C11.6182,27.7618 11.4502,27.8108 11.2852,27.8628 C10.4362,28.1248 9.5902,28.0978 8.7552,27.8148 C8.5692,27.7518 8.3872,27.6308 8.2662,27.8688 C8.1512,28.0958 8.3272,28.2028 8.4942,28.3158 C8.6542,28.4228 8.8072,28.5318 9.0072,28.5428 C9.2412,28.5548 9.4462,28.6098 9.3552,28.9098 C9.2702,29.1988 9.0662,29.2128 8.8142,29.1098 C8.4742,28.9728 8.1642,28.7948 7.9082,28.5318 C7.4582,28.0668 6.9382,27.8068 6.2682,27.7438 C4.6722,27.5998 3.1632,27.0798 1.6762,26.5058 C1.1942,26.3188 0.8702,25.8818 0.3622,25.7338 C0.1522,25.6718 0.1392,25.4378 0.2142,25.2438 C0.3062,25.0008 0.4852,25.0408 0.6842,25.1118 C1.2182,25.2988 1.5632,25.7598 2.0592,26.0138 C2.9192,26.4508 3.7882,26.8338 4.7332,27.0398 C5.1192,27.1248 5.5222,27.1488 5.8862,27.3328 C6.0522,27.4168 6.2372,27.4348 6.3212,27.2288 C6.4172,26.9938 6.1832,26.9808 6.0622,26.8728 C5.6472,26.5108 5.0052,26.4008 4.8322,25.7678 C4.8152,25.7128 4.7222,25.6508 4.6592,25.6428 C3.9702,25.5528 3.4522,25.0258 2.7712,24.9108 C2.6412,24.8888 2.4782,24.8608 2.4952,24.6878 C2.5142,24.5018 2.6802,24.4998 2.8392,24.4768 C4.2352,24.2798 5.5622,24.5918 6.8782,25.0018 C7.0382,25.0528 7.2312,25.1448 7.3172,24.9188 C7.3842,24.7388 7.2042,24.6578 7.0822,24.5748 C5.5522,23.5328 4.0362,22.4728 2.3722,21.6508 C1.9342,21.4348 1.4932,21.2218 1.0442,21.0348 C0.8072,20.9368 0.6292,20.8068 0.5112,20.5388 C0.9792,20.6548 1.3352,21.0608 1.7712,21.0128 C2.9102,20.8888 3.7702,21.6718 4.8032,21.8648 C5.5672,22.0058 6.3252,22.1718 7.0852,22.3278 C7.1832,22.3498 7.2822,22.3618 7.3312,22.2598 C7.3862,22.1468 7.3602,22.0218 7.2722,21.9438 C6.7812,21.5098 6.3192,21.0268 5.6652,20.8328 C4.0392,20.3548 2.4732,19.7418 1.0222,18.8538 C0.8152,18.7288 0.7252,18.5758 0.7082,18.3598 C0.7002,18.2518 0.7532,18.1598 0.8582,18.1548 C1.0712,18.1398 1.2622,18.1688 1.3912,18.3908 C1.5522,18.6598 1.8272,18.7818 2.1122,18.9138 C2.6282,19.1488 3.1102,19.4568 3.6222,19.7008 C3.8052,19.7908 4.1022,19.9748 4.2212,19.7148 C4.3152,19.5098 3.9942,19.4198 3.8272,19.3158 C3.6512,19.2068 3.4302,19.1628 3.3052,18.9828 C3.1902,18.8168 3.1422,18.6058 3.2772,18.4528 C3.4302,18.2798 3.5262,18.5138 3.6492,18.5688 C4.7012,19.0378 5.6062,19.7328 6.5172,20.4188 C6.9012,20.7078 7.3932,20.5998 7.8172,20.7678 C8.1802,20.9108 8.6032,20.8768 8.9702,21.0548 C9.0892,21.1118 9.2412,21.1288 9.3182,20.9728 C9.3812,20.8458 9.2922,20.7458 9.2012,20.6818 C8.1612,19.9458 7.2622,18.9528 5.9822,18.6358 C5.2502,18.4548 4.5002,18.3338 3.7672,18.1428 C2.9262,17.9218 2.3092,17.2808 1.5232,16.9548 C1.4142,16.9098 1.3872,16.7638 1.4712,16.6588 C1.5802,16.5278 1.7252,16.5978 1.8372,16.6528 C2.2292,16.8398 2.6312,17.0178 2.9992,17.2458 C3.6562,17.6538 4.4052,17.8168 5.1062,18.1058 C5.2662,18.1698 5.4582,18.2578 5.5402,18.0298 C5.6102,17.8298 5.4012,17.7948 5.2752,17.7238 C4.9302,17.5278 4.5282,17.4448 4.2232,17.1708 C4.0522,17.0168 3.8702,16.8638 3.8622,16.6138 C3.8522,16.3458 3.9792,16.1548 4.2302,16.3718 C5.0732,17.1058 6.2132,17.4158 6.9502,18.2928 C7.2252,18.6188 7.6242,18.6468 7.9892,18.6758 C8.4062,18.7088 8.8172,18.7498 9.2272,18.8358 C9.4272,18.8778 9.6712,18.9358 9.7192,18.6268 C9.7612,18.3678 9.5812,18.3048 9.3702,18.2928 C9.2312,18.2858 9.1212,18.2278 9.0142,18.1368 C7.8412,17.1348 6.4562,16.5568 4.9912,16.1408 C4.9542,16.1298 4.8882,16.1228 4.8872,16.1078 C4.7882,15.3348 4.2702,15.8358 3.9282,15.7778 C3.4192,15.6928 2.9592,15.4568 2.5432,15.1498 C2.3772,15.0278 2.2532,14.8578 2.0442,14.7828 C1.8702,14.7208 1.7642,14.5528 1.8422,14.3708 C1.9382,14.1408 2.1592,14.1918 2.3372,14.2558 C2.4562,14.2968 2.5502,14.4058 2.6582,14.4818 C3.1262,14.8068 3.5982,15.1188 4.1772,15.2368 C4.4522,15.2898 4.6282,15.3008 4.8632,15.0488 C5.1652,14.7268 5.4722,15.1318 5.7342,15.2648 C6.4512,15.6308 7.0932,16.1888 7.8412,16.4338 C8.6922,16.7088 9.6282,16.7318 10.5262,16.8578 C10.6252,16.8708 10.7142,16.8208 10.7612,16.7268 C10.8312,16.5878 10.7352,16.5098 10.6352,16.4548 C10.1282,16.1858 9.6532,15.8708 9.2802,15.4338 C8.1922,14.1528 6.5552,14.0198 5.1392,13.4168 C4.6332,13.1998 4.1252,13.0038 3.5932,12.8668 C3.2802,12.7868 3.2102,12.5178 3.2722,12.2848 C3.3642,11.9488 3.6322,12.1388 3.8412,12.1898 C4.0872,12.2508 4.2842,12.3988 4.4832,12.5478 C5.0112,12.9418 5.5892,13.0608 6.2492,12.9768 C6.8962,12.8938 7.4682,13.2088 7.9772,13.5608 C8.2772,13.7658 8.5872,13.9078 8.9052,14.0708 C9.6062,14.4218 10.3502,14.5568 11.1042,14.6788 C11.2802,14.7068 11.5152,14.8418 11.6002,14.5898 C11.6652,14.3968 11.4432,14.3158 11.3012,14.2328 C10.3952,13.7168 9.4932,13.1958 8.5812,12.6958 C8.2722,12.5258 8.0052,12.3748 8.2042,11.9588 C8.3162,11.7228 8.1982,11.5858 7.9752,11.5468 C7.4352,11.4488 6.9652,11.1418 6.4032,11.0968 C5.8412,11.0518 5.3932,10.6758 4.9172,10.4138 C4.6832,10.2858 4.6332,9.9928 4.8102,9.7678 C4.9832,9.5508 5.2272,9.6568 5.3542,9.8188 C5.7062,10.2578 6.1802,10.4038 6.6992,10.4378 C7.2212,10.4728 7.5442,10.9098 8.0342,11.0378 C8.8412,11.2498 9.6772,11.3508 10.4602,11.6578 C10.6062,11.7158 10.8032,11.8648 10.8992,11.6348 C10.9802,11.4418 10.7802,11.3198 10.6342,11.2538 C10.1322,11.0258 9.6282,10.8158 9.1972,10.4518 C8.9932,10.2798 8.9152,10.1038 8.9702,9.8638 C9.0092,9.6968 9.1842,9.6188 9.2622,9.7438 C9.5732,10.2348 10.1502,10.2268 10.5872,10.4508 C11.3582,10.8468 11.9572,11.4568 12.6822,11.8998 C13.0752,12.1408 13.4852,12.2988 13.9232,12.1698 C14.5342,11.9888 15.1082,12.3108 15.7192,12.2128 C16.1452,12.1448 16.5362,12.0238 16.8772,11.7968 C17.1172,11.6378 17.2352,11.6528 17.3682,11.8768 C17.5292,12.1468 17.3592,12.2418 17.1502,12.3438 C16.3542,12.7188 15.4892,12.7738 14.6472,12.7618 C13.7312,12.7478 12.8412,12.9708 11.8802,12.4648 C10.9892,11.9928 9.8582,11.8828 8.7822,11.8428" id="Fill-8"></path>
                    <path d="M54.4463,11.9707 C54.4073,11.7987 54.2783,11.6887 54.1203,11.6347 C53.9753,11.5837 53.9233,11.7047 53.9273,11.8247 C53.9323,12.0097 54.0163,12.1467 54.2213,12.1587 C54.3423,12.1677 54.4423,12.1307 54.4463,11.9707 M57.5853,12.0077 C57.5563,11.7347 57.4933,11.4917 57.2803,11.3537 C56.2763,10.7027 55.4893,9.7907 54.5483,9.0647 C53.7153,8.4237 52.9283,7.7147 51.9153,7.3417 C51.6223,7.2357 51.3073,7.0877 51.2323,6.7167 C51.2103,6.6057 51.1573,6.4787 51.2473,6.3887 C51.3513,6.2887 51.4653,6.3857 51.5543,6.4357 C51.7703,6.5577 51.9573,6.7437 52.1843,6.8227 C53.6493,7.3277 54.8013,8.3667 56.1353,9.0917 C56.3503,9.2097 56.6493,9.5087 56.8273,9.2457 C56.9923,9.0007 56.6403,8.7637 56.4303,8.6447 C55.6773,8.2167 55.2083,7.4627 54.4693,7.0217 C54.1263,6.8167 53.9283,6.5727 54.2433,6.1457 C54.4603,5.8517 54.1613,5.7907 53.9573,5.8147 C53.5713,5.8557 53.2563,5.6777 52.9213,5.5547 C52.7023,5.4747 52.6303,5.3177 52.6763,5.1057 C52.7293,4.8537 52.9443,4.9047 53.0903,4.9507 C53.6283,5.1177 54.1593,5.3097 54.6863,5.5007 C54.8233,5.5507 54.9573,5.7207 55.0983,5.5907 C55.5563,5.1717 55.7883,5.5747 56.1453,5.7907 C57.5323,6.6277 58.8513,7.6057 60.4403,8.0627 C60.7413,8.1487 61.0453,8.1347 61.3443,8.0587 C61.6033,7.9927 61.7923,8.0767 61.9213,8.3027 C62.0123,8.4607 62.1673,8.6307 62.0213,8.8207 C61.8833,8.9977 61.6883,8.9397 61.4983,8.8827 C60.7553,8.6677 60.0283,8.4097 59.2203,8.5157 C58.7723,8.5737 58.4643,8.1717 58.1553,7.9217 C57.3003,7.2287 56.2003,7.0197 55.3053,6.4167 C55.2143,6.3547 55.0753,6.3157 54.9993,6.4377 C54.9083,6.5817 55.0263,6.6917 55.1253,6.7757 C56.0913,7.5857 57.0573,8.3967 58.0303,9.1977 C58.1733,9.3167 58.3443,9.4407 58.5203,9.4727 C58.9273,9.5507 59.2043,9.6557 59.3583,10.1347 C59.4933,10.5507 60.5923,10.4717 60.8903,10.0407 C61.0483,9.8157 61.1263,9.6827 61.3993,9.9037 C61.6593,10.1147 61.5793,10.2657 61.4113,10.4667 C61.0903,10.8537 60.7043,11.0297 60.2033,10.8947 C59.4233,10.6817 58.5713,10.7347 57.8633,10.2517 C57.7633,10.1847 57.6043,10.2007 57.4733,10.1837 C57.3623,10.1697 57.2343,10.1367 57.1833,10.2797 C57.1443,10.3877 57.2343,10.4567 57.3073,10.5117 C57.5053,10.6577 57.7023,10.8067 57.9133,10.9317 C58.3583,11.1917 58.4253,11.4417 58.1323,11.8827 C58.0793,11.9627 57.9933,12.0337 58.0463,12.1297 C58.1213,12.2677 58.2643,12.2777 58.3973,12.2357 C58.6783,12.1467 58.9553,12.0727 59.1753,12.3517 C59.2393,12.4337 59.2213,12.5407 59.1493,12.6117 C58.9073,12.8477 58.6273,12.7497 58.3443,12.7017 C57.4153,12.5407 56.6173,12.0847 55.8373,11.5917 C55.6673,11.4857 55.5013,11.4237 55.3013,11.4497 C55.1383,11.4727 55.0053,11.5417 54.9853,11.7217 C54.9673,11.9007 55.0693,12.0347 55.2343,12.0487 C55.7903,12.0897 56.0563,12.7357 56.6483,12.7047 C56.7533,12.7007 56.8413,12.8207 56.8343,12.9547 C56.8293,13.0817 56.7593,13.1897 56.6463,13.2147 C56.1183,13.3377 55.5583,13.2827 55.0503,13.5447 C54.9223,13.6117 54.7173,13.4827 54.5983,13.3497 C53.7193,12.3667 52.6453,11.6247 51.5663,10.8907 C51.2823,10.6997 51.1513,10.4517 51.3413,10.1787 C51.5413,9.8867 51.7743,10.1417 51.9833,10.2487 C52.3373,10.4327 52.6513,10.6407 52.8983,10.9847 C53.1693,11.3597 53.5323,11.3107 53.6373,10.9547 C53.6803,10.8127 53.6773,10.6977 53.5263,10.6207 C52.4733,10.0877 51.5253,9.3557 50.3913,8.9767 C50.1163,8.8837 49.8763,8.7347 49.7263,8.4697 C49.6673,8.3657 49.4643,8.3007 49.5833,8.1527 C49.6933,8.0137 49.8133,8.1467 49.9283,8.2077 C50.3603,8.4337 50.7973,8.6507 51.2333,8.8647 C51.3933,8.9437 51.5943,9.0037 51.7003,8.8297 C51.9323,8.4437 52.1273,8.6167 52.3833,8.8047 C53.0693,9.3087 53.5773,10.0047 54.2803,10.4917 C54.7103,10.7897 55.2133,10.8867 55.6693,11.1157 C56.2903,11.4267 56.9473,11.6707 57.5853,12.0077" id="Fill-10"></path>
                    <path d="M24.2256,56.2695 C24.9386,56.3085 25.6516,56.3495 26.3656,56.3825 C26.5066,56.3905 26.7026,56.4565 26.7526,56.2555 C26.7926,56.0955 26.6206,56.0525 26.5086,55.9925 C25.8876,55.6505 25.2486,55.3745 24.5146,55.4925 C23.8396,55.6015 23.1716,55.1715 22.4906,55.4825 C22.3686,55.5395 22.2316,55.4295 22.2046,55.2735 C22.1726,55.1075 22.2886,55.0235 22.4246,54.9985 C22.6676,54.9555 22.9146,54.9275 23.1606,54.9045 C23.4486,54.8765 23.7686,54.9645 23.8856,54.5375 C23.9386,54.3495 24.1806,54.4195 24.3446,54.4645 C24.7856,54.5825 25.2496,54.5685 25.6836,54.7305 C25.8306,54.7835 26.0696,54.8495 26.1236,54.6325 C26.1746,54.4275 25.9576,54.3695 25.7906,54.3245 C24.4666,53.9585 23.1026,53.9215 21.7456,53.8735 C21.3676,53.8595 21.0356,53.7945 20.7466,53.5525 C20.6626,53.4825 20.5316,53.4255 20.5806,53.2895 C20.6316,53.1445 20.7616,53.1895 20.8736,53.2065 C21.3786,53.2795 21.8946,53.2855 22.3796,53.4845 C22.5226,53.5405 22.7526,53.6095 22.8196,53.3825 C22.8756,53.1935 22.6476,53.1815 22.5366,53.0915 C21.9116,52.5875 21.1536,52.8575 20.4646,52.7305 C20.3196,52.7035 20.1616,52.7365 20.0106,52.7445 C19.6766,52.7635 19.3446,52.7105 19.3626,52.3045 C19.3776,51.9045 19.7376,52.0335 19.9856,52.0235 C20.4166,52.0115 20.8346,51.9925 21.2706,51.8785 C21.7706,51.7495 22.3116,51.9535 22.8296,52.0585 C22.9586,52.0835 23.0826,52.1425 23.2116,52.1625 C23.3716,52.1875 23.5386,52.1525 23.5826,51.9785 C23.6236,51.8265 23.4876,51.7555 23.3646,51.6875 C22.9416,51.4495 22.4436,51.4995 22.0026,51.3125 C20.8366,50.8165 19.6376,50.6565 18.3896,51.0035 C17.9226,51.1325 17.4426,51.1305 17.0436,50.7755 C16.9506,50.6915 16.7936,50.6235 16.8546,50.4605 C16.9146,50.2945 17.0666,50.3555 17.1986,50.3615 C17.7276,50.3905 18.2586,50.3845 18.7866,50.4395 C19.1476,50.4785 19.3056,50.1465 19.6396,50.0785 C20.3586,49.9335 20.9906,50.1935 21.6496,50.3025 C22.6536,50.4685 23.5406,50.0745 24.4566,49.8145 C24.6756,49.7535 24.6206,49.5485 24.5096,49.3905 C24.4346,49.2835 24.3136,49.1775 24.4656,49.0505 C24.5746,48.9585 24.7146,48.9555 24.8456,48.9845 C25.0496,49.0315 25.1686,49.1815 25.2296,49.3715 C25.2916,49.5625 25.2436,49.7165 25.1066,49.8885 C24.6946,50.4045 24.1596,50.6015 23.5206,50.5955 C23.3526,50.5955 23.1336,50.5975 23.1056,50.8085 C23.0796,51.0175 23.3256,50.9605 23.4386,51.0405 C24.0116,51.4535 24.7606,51.4625 25.3376,51.9065 C25.5596,52.0765 25.9296,51.9255 26.1376,51.6645 C26.3336,51.4175 26.5536,51.4605 26.7146,51.6505 C26.9106,51.8785 26.7196,52.0175 26.5226,52.1325 C25.8836,52.5035 25.1966,52.6565 24.4596,52.6035 C24.3106,52.5915 24.1576,52.5665 24.0086,52.5815 C23.8936,52.5935 23.8026,52.6795 23.8006,52.8145 C23.7996,52.9295 23.9036,52.9495 23.9796,53.0035 C24.7466,53.5485 25.5906,53.4295 26.4286,53.2775 C26.7656,53.2145 27.0956,53.1445 27.4406,53.1345 C27.9966,53.1215 28.3716,52.7595 28.7646,52.4315 C28.8636,52.3475 28.9226,52.1035 29.1116,52.2815 C29.2806,52.4415 29.1376,52.6245 29.0286,52.7305 C28.6296,53.1115 28.1746,53.4275 27.6266,53.5405 C27.2986,53.6075 26.9886,53.7895 26.6276,53.7055 C26.5066,53.6755 26.3456,53.7165 26.3236,53.8885 C26.2996,54.0645 26.4506,54.1055 26.5756,54.1425 C27.0276,54.2735 27.4086,54.4605 27.7896,54.7945 C28.2046,55.1565 28.7936,54.8085 29.2966,54.6585 C29.5106,54.5955 29.7406,54.2165 29.9256,54.5075 C30.1456,54.8515 29.7616,55.0195 29.5186,55.1915 C29.0186,55.5375 28.4506,55.5465 27.8776,55.5295 C27.7126,55.5235 27.5086,55.4645 27.4746,55.7125 C27.4396,55.9685 27.6556,55.9765 27.8276,56.0645 C28.6636,56.5015 29.5006,56.0395 30.3356,56.0825 C30.6526,56.0995 30.7076,55.8045 30.5806,55.5335 C30.5056,55.3715 30.3986,55.1975 30.6236,55.1015 C30.8736,54.9965 30.9526,55.2015 31.0166,55.3885 C31.1686,55.8305 31.0716,56.2225 30.6386,56.3965 C29.1986,56.9725 27.7196,57.2675 26.2026,56.7055 C25.9796,56.6235 25.8856,56.8245 25.7416,56.7965 C25.2216,56.6955 24.7046,56.5665 24.1886,56.4475 C24.2006,56.3885 24.2136,56.3285 24.2256,56.2695" id="Fill-12"></path>
                    <path d="M29.5283,61.1562 C29.8803,61.1292 30.2403,61.0292 30.5363,61.3302 C30.6323,61.4262 30.7853,61.5002 30.8643,61.3242 C30.9343,61.1622 30.7983,61.0822 30.6543,61.0582 C30.1123,60.9702 29.6543,60.7812 29.4353,60.2152 C29.3583,60.0132 29.1393,60.0822 28.9773,60.0902 C28.6063,60.1052 28.2553,60.0522 27.9453,59.8422 C27.8193,59.7562 27.7203,59.6192 27.7843,59.4492 C27.8473,59.2792 27.9953,59.3302 28.1263,59.3532 C28.7943,59.4692 29.4623,59.5862 30.1433,59.6052 C30.2563,59.6092 30.3703,59.6502 30.4813,59.6402 C30.6963,59.6212 31.0323,59.7032 31.0693,59.4392 C31.1123,59.1312 30.7533,59.1812 30.5513,59.1312 C29.7313,58.9202 28.9693,58.4742 28.0863,58.5212 C27.7453,58.5392 27.4043,58.5492 27.0643,58.5432 C26.7903,58.5372 26.5633,58.4272 26.5773,58.1132 C26.5903,57.8142 26.8253,57.8452 27.0443,57.8452 C27.4223,57.8432 27.7923,57.8262 28.1483,57.6382 C28.5773,57.4142 28.9373,57.7892 29.3413,57.8422 C30.4483,57.9862 31.5463,58.0952 32.5793,57.5102 C32.7123,57.4332 32.8353,57.2362 33.0213,57.3712 C33.0743,57.4082 33.0813,57.5472 33.0683,57.6352 C33.0383,57.8362 32.8803,57.8732 32.7033,57.9292 C32.1573,58.0992 31.6803,58.5292 31.0413,58.3532 C30.9243,58.3222 30.8153,58.4162 30.7903,58.5372 C30.7593,58.6762 30.8563,58.7422 30.9763,58.7772 C31.4283,58.9122 31.8893,59.0082 32.2193,59.4082 C32.3393,59.5542 32.5413,59.4002 32.6993,59.3512 C32.9913,59.2692 33.2803,59.1542 33.5893,59.2192 C33.7073,59.2442 33.8803,59.2522 33.8803,59.4292 C33.8803,59.5522 33.7693,59.6132 33.6593,59.6582 C32.8483,59.9782 32.0443,60.3042 31.1423,60.2032 C31.0123,60.1872 30.8523,60.1912 30.8163,60.3512 C30.8053,60.4042 30.9083,60.5252 30.9813,60.5522 C31.7103,60.8222 32.3503,61.4042 33.2283,61.1622 C33.4513,61.1012 33.6613,61.0492 33.8503,60.9122 C33.9663,60.8302 34.0963,60.6972 34.2573,60.8202 C34.3563,60.8962 34.3403,61.0212 34.3233,61.1362 C34.2993,61.3012 34.2293,61.4242 34.0553,61.4632 C33.7983,61.5232 33.3953,61.3362 33.3193,61.6972 C33.2573,61.9902 33.6523,62.1172 33.8373,62.3222 C33.9593,62.4592 34.0153,62.5602 33.8653,62.7032 C33.7333,62.8242 33.5953,62.9632 33.4403,62.7562 C32.8353,61.9372 31.9963,61.8432 31.0583,61.9002 C30.4623,61.9352 30.0333,61.4392 29.5283,61.1562" id="Fill-14"></path>
                    <path d="M54.793,16.5332 C54.546,16.5862 54.272,16.4222 53.977,16.3652 C53.737,16.3162 53.456,16.3142 53.544,16.6712 C53.663,17.1562 53.331,17.2322 53.039,17.2052 C51.935,17.0992 50.726,17.3962 49.821,16.4262 C49.702,16.2972 49.493,16.2242 49.313,16.1812 C48.655,16.0272 48.581,15.2772 48.058,14.9722 C47.859,14.8572 48.059,14.6332 48.18,14.4882 C48.338,14.3032 48.4,14.4732 48.527,14.5582 C49.11,14.9502 49.688,15.3752 50.321,15.6642 C50.969,15.9582 51.605,16.3062 52.323,16.4352 C52.624,16.4882 52.949,16.5692 53.022,16.1972 C53.087,15.8582 52.731,15.9212 52.515,15.8312 C51.87,15.5642 51.253,15.2342 50.619,14.9412 C49.786,14.5602 49.163,13.8512 48.318,13.4912 C48.012,13.3612 48.085,13.1622 48.181,12.9322 C48.297,12.6542 48.464,12.6812 48.677,12.8112 C49.079,13.0572 49.483,13.1862 49.991,13.1982 C50.575,13.2152 51.064,13.6402 51.49,14.0602 C51.766,14.3302 52.064,14.5532 52.444,14.6522 C52.704,14.7212 52.942,14.8082 53.009,15.1372 C53.058,15.3712 53.31,15.4102 53.504,15.4682 C54.129,15.6512 54.765,15.7212 55.418,15.6312 C55.694,15.5942 56.089,15.5292 56.183,15.8242 C56.296,16.1742 55.853,16.2122 55.636,16.3612 C55.409,16.5172 55.129,16.5002 54.793,16.5332" id="Fill-16"></path>
                    <path d="M59.6211,4.2656 C59.3901,4.2206 59.0741,4.1606 58.7591,4.1016 C58.6451,4.0786 58.5211,4.0566 58.4871,4.2086 C58.4621,4.3206 58.5481,4.3946 58.6401,4.4156 C58.9491,4.4906 59.0611,4.7036 59.1001,4.9926 C59.1161,5.1296 59.1901,5.2526 59.3311,5.2926 C60.0171,5.4806 60.6861,5.8006 61.4281,5.5636 C61.7761,5.4516 62.0371,5.5486 62.1431,5.9106 C62.2701,6.3396 61.9211,6.3066 61.6731,6.3516 C60.6771,6.5316 59.7471,6.2416 58.8951,5.7936 C58.0711,5.3626 57.1611,5.1656 56.3431,4.7266 C55.7821,4.4246 55.1761,4.2066 54.5961,3.9376 C54.4251,3.8586 54.2681,3.7326 54.2191,3.5326 C54.1801,3.3676 54.1191,3.1606 54.2511,3.0426 C54.4431,2.8726 54.5341,3.1206 54.6611,3.2086 C55.1791,3.5666 55.7781,3.7596 56.3391,4.0286 C56.5751,4.1436 56.8271,4.0056 57.0321,3.8676 C57.2141,3.7426 57.2391,3.6036 56.9961,3.4946 C56.8781,3.4426 56.7371,3.3836 56.6711,3.2856 C56.5441,3.0986 56.4131,2.8266 56.5711,2.6566 C56.7781,2.4316 56.9151,2.7286 57.0591,2.8476 C57.8531,3.5046 59.5161,3.6936 60.4111,3.2046 C60.6221,3.0876 60.7251,3.1436 60.8191,3.3206 C60.9521,3.5696 60.9521,3.8166 60.6851,3.9626 C60.3871,4.1266 60.0581,4.2226 59.6211,4.2656" id="Fill-18"></path>
                    <path d="M16.3193,10.4727 C15.9013,10.4887 15.4853,10.5077 15.0673,10.5167 C14.9323,10.5197 14.7963,10.4917 14.7353,10.6567 C14.5623,11.1147 14.2213,11.0067 13.9573,10.8237 C13.0553,10.1987 12.0243,9.9817 10.9803,9.7767 C9.1693,9.4217 7.4673,8.7287 5.7643,8.0447 C5.5063,7.9427 5.3933,7.7437 5.4463,7.5137 C5.5033,7.2647 5.7723,7.3227 5.9313,7.3617 C6.2803,7.4497 6.6463,7.5397 6.9443,7.7287 C8.3273,8.6017 9.8913,8.9887 11.4283,9.4517 C11.5713,9.4927 11.7393,9.5837 11.8423,9.4187 C11.9353,9.2697 11.8393,9.1367 11.7203,9.0237 C11.5743,8.8827 11.4423,8.7067 11.6393,8.5397 C11.8263,8.3807 12.0053,8.5297 12.1353,8.6677 C12.5273,9.0807 13.1033,9.2487 13.4813,9.6997 C13.6033,9.8437 13.8973,9.8917 14.1173,9.9067 C15.4543,9.9887 16.7943,10.1617 18.1303,9.8727 C18.3163,9.8317 18.4623,9.7927 18.4403,9.5567 C18.4213,9.3627 18.4853,9.1937 18.7113,9.2207 C18.9533,9.2487 19.2263,9.3047 19.3563,9.5257 C19.4633,9.7067 19.2553,9.8277 19.1323,9.9317 C18.6963,10.3027 18.1393,10.2757 17.6223,10.3557 C17.1963,10.4217 16.7533,10.3987 16.3173,10.4137 C16.3173,10.4337 16.3193,10.4537 16.3193,10.4727" id="Fill-20"></path>
                    <path d="M57.042,14.9844 C56.385,14.8694 55.733,14.7574 55.083,14.6404 C54.863,14.6014 54.677,14.4984 54.543,14.8344 C54.399,15.1924 54.098,14.9614 53.94,14.8234 C52.94,13.9434 51.788,13.3004 50.646,12.6364 C50.343,12.4614 50.087,12.2224 49.958,11.8394 C49.814,11.4124 49.423,11.1774 48.989,11.0574 C48.845,11.0174 48.667,11.0374 48.63,10.8454 C48.597,10.6684 48.671,10.5004 48.796,10.3804 C48.948,10.2304 49.118,10.3184 49.261,10.4164 C49.888,10.8384 50.553,11.2174 51.126,11.7034 C52.099,12.5304 53.167,13.2264 54.315,13.7204 C55.272,14.1324 56.368,14.1874 57.431,14.1914 C57.599,14.1944 57.694,14.0644 57.777,13.9294 C57.924,13.6974 58.159,13.6124 58.354,13.7954 C58.567,13.9974 58.465,14.2824 58.273,14.4484 C57.927,14.7484 57.503,14.9184 57.042,14.9844" id="Fill-22"></path>
                    <path d="M16.9932,8.8516 C16.5542,8.8106 15.9632,8.7856 15.3882,8.6836 C15.2332,8.6556 14.7262,8.9456 14.8862,8.3376 C14.9052,8.2656 14.5662,8.2516 14.4262,8.3106 C13.9772,8.4926 13.5552,8.4316 13.0972,8.3286 C11.4482,7.9516 9.7592,7.7366 8.1982,7.0246 C8.0152,6.9396 7.7932,6.9336 7.5852,6.9126 C7.3102,6.8806 7.1542,6.7176 7.1742,6.4626 C7.1962,6.1686 7.4522,6.2916 7.6242,6.2856 C8.3852,6.2516 8.9622,6.7886 9.6632,6.9436 C10.5262,7.1326 11.3422,7.5076 12.2292,7.5856 C12.5662,7.6156 12.8062,7.8976 13.1282,7.9146 C14.7722,7.9976 16.3982,8.5836 18.0632,8.0956 C18.4032,7.9966 18.9372,8.0666 18.5542,7.4326 C18.4572,7.2726 18.6072,7.2396 18.7142,7.2226 C18.9712,7.1826 19.1472,7.3516 19.3082,7.5036 C19.4822,7.6696 19.3552,7.8496 19.2722,8.0236 C19.0912,8.4086 18.7282,8.5546 18.3642,8.6446 C17.9652,8.7466 17.5622,8.8766 16.9932,8.8516" id="Fill-24"></path>
                    <path d="M32.4033,63.6719 C32.2903,63.6879 32.1783,63.7049 32.0653,63.7189 C31.8413,63.7499 31.6963,63.6679 31.6643,63.4319 C31.6333,63.1949 31.7963,63.1309 31.9753,63.1189 C32.2013,63.1059 32.4353,63.0779 32.6543,63.1229 C33.5673,63.3089 34.4463,63.0919 35.3333,62.9399 C35.4443,62.9199 35.5523,62.8769 35.6653,62.8709 C35.8373,62.8629 36.0343,62.8649 36.0653,63.0879 C36.0963,63.2989 35.8953,63.3109 35.7603,63.3559 C35.2933,63.5099 34.8213,63.6599 34.3153,63.5779 C34.1773,63.5569 34.0373,63.5629 33.9843,63.7229 C33.9193,63.9199 34.0613,63.9899 34.2083,64.0509 C34.7423,64.2699 35.2643,64.5509 35.8733,64.4429 C36.1293,64.3989 36.2983,64.2049 36.4993,64.0669 C36.5923,64.0019 36.7103,63.9359 36.8073,64.0349 C36.8983,64.1269 36.8563,64.2539 36.7963,64.3479 C36.6863,64.5269 36.5383,64.6719 36.3413,64.7639 C36.2063,64.8279 35.9943,64.8929 35.9693,64.9959 C35.8023,65.6659 35.4563,65.4509 34.9693,65.3519 C34.4873,65.2519 33.9893,65.0939 33.4713,65.1189 C33.2903,65.1269 33.0893,65.0679 32.9253,64.9839 C32.7273,64.8829 32.4823,64.7209 32.6273,64.4589 C32.7583,64.2209 32.9643,64.4359 33.1223,64.4999 C33.2483,64.5509 33.3753,64.6409 33.4903,64.5389 C33.6333,64.4139 33.4653,64.3069 33.4323,64.1899 C33.2793,63.6329 32.8523,63.6369 32.4033,63.6719" id="Fill-26"></path>
                    <path d="M18.3271,6.623 C18.3991,6.63 18.3761,6.633 18.3621,6.625 C17.7601,6.268 17.1351,6.471 16.5031,6.516 C15.3471,6.602 14.2081,6.488 13.1181,6.036 C12.9701,5.975 12.7801,6.011 12.6111,6.002 C12.4031,5.99 12.1491,6.037 12.0111,5.881 C11.4911,5.29 10.8061,5.344 10.1261,5.328 C9.9971,5.324 9.8561,5.299 9.7441,5.234 C9.5161,5.107 9.5421,4.871 9.6081,4.68 C9.6841,4.457 9.8521,4.598 9.9851,4.652 C10.6811,4.937 11.4291,5.061 12.1201,5.391 C12.5991,5.619 13.1721,5.705 13.7121,5.744 C15.1671,5.85 16.5881,6.256 18.0561,6.23 C18.3391,6.227 18.6491,6.322 18.7361,5.916 C18.7801,5.713 18.8721,5.602 19.0911,5.711 C19.2841,5.807 19.5851,5.785 19.5981,6.088 C19.6061,6.295 19.4401,6.445 19.2571,6.492 C18.9821,6.562 18.6961,6.576 18.3271,6.623" id="Fill-28"></path>
                    <path d="M36.7041,68.4316 C36.5721,68.4416 36.4401,68.4586 36.3081,68.4626 C35.7871,68.4806 35.7021,68.3476 35.9121,67.8596 C36.2111,67.1606 35.9891,66.7986 35.2151,66.7326 C34.9891,66.7126 34.7621,66.7146 34.5351,66.7066 C34.3191,66.6976 34.1451,66.5956 34.1641,66.3726 C34.1831,66.1656 34.3901,66.2226 34.5331,66.2186 C35.2371,66.1936 35.9541,66.3276 36.6281,65.9906 C36.7521,65.9276 36.9381,65.9416 37.0391,66.0876 C37.1551,66.2596 37.0111,66.3636 36.9051,66.4706 C36.8651,66.5096 36.8221,66.5506 36.7941,66.5976 C36.6961,66.7656 36.3071,66.7856 36.4591,67.0366 C36.6001,67.2696 36.8031,67.5446 37.1641,67.5296 C37.2761,67.5256 37.3931,67.5276 37.5021,67.5506 C37.6981,67.5956 37.9601,67.5976 37.9371,67.8906 C37.9191,68.1486 37.8111,68.3696 37.4961,68.3886 C37.2331,68.4066 36.9701,68.4356 36.7071,68.4586 C36.7061,68.4496 36.7051,68.4396 36.7041,68.4316" id="Fill-30"></path>
                    <path d="M19.0264,4.166 C18.6154,4.434 18.1864,4.475 17.8034,4.495 C15.9114,4.589 14.0164,4.595 12.1514,4.166 C11.9224,4.115 11.7834,4.012 11.7174,3.779 C11.6414,3.514 11.7194,3.418 11.9874,3.469 C12.0244,3.476 12.0624,3.479 12.0994,3.488 C14.2434,3.998 16.4174,4.141 18.6124,4.043 C18.6864,4.039 18.7644,4.043 18.8394,4.054 C18.8724,4.06 18.9004,4.09 19.0264,4.166" id="Fill-32"></path>
                    <path d="M52.1426,18.1943 C52.3466,18.6443 52.0476,18.6623 51.7276,18.6583 C50.8306,18.6463 49.9836,18.3263 49.1026,18.2053 C48.7606,18.1583 48.4716,17.8643 48.3166,17.5153 C48.2686,17.4063 48.1476,17.2793 48.2786,17.1543 C48.3896,17.0453 48.5286,17.0883 48.6496,17.1483 C49.2666,17.4573 49.9436,17.5593 50.6026,17.7263 C50.9796,17.8203 51.3536,17.8203 51.7326,17.7763 C52.0416,17.7403 52.2916,17.7623 52.1426,18.1943" id="Fill-34"></path>
                    <path d="M3.1768,24.0664 C2.4878,24.2224 1.9198,23.9624 1.4028,23.5824 C1.0978,23.3594 0.8118,23.1174 0.4528,22.9744 C0.3268,22.9234 0.1158,22.8594 0.2228,22.6644 C0.3118,22.4984 0.4918,22.5954 0.6358,22.6304 C0.6708,22.6384 0.7078,22.6554 0.7388,22.6754 C1.5148,23.2014 2.2838,23.7344 3.1768,24.0664" id="Fill-36"></path>
                    <path d="M2.6299,32.3906 C2.2409,32.4906 1.9379,32.4336 1.6929,32.1916 C1.6249,32.1206 1.5629,32.0436 1.6329,31.9496 C1.6549,31.9166 1.7429,31.8946 1.7759,31.9116 C2.0649,32.0666 2.3469,32.2306 2.6299,32.3906" id="Fill-38"></path>
                    <path d="M3.3125,33.3301 C3.4245,33.1541 3.6305,33.1331 3.7885,33.0981 C3.9975,33.0501 3.9775,33.2771 3.9935,33.4131 C4.0125,33.5871 3.9465,33.7211 3.7415,33.6751 C3.5535,33.6331 3.4165,33.5081 3.3125,33.3301" id="Fill-40"></path>
                    <path d="M20.5693,48.3359 C20.1303,48.3179 19.7393,48.1909 19.3403,47.9789 C18.8073,47.6949 18.2183,47.5119 17.6453,47.3109 C17.4853,47.2539 17.2493,47.2639 17.2533,47.0659 C17.2603,46.8009 17.5173,46.8689 17.6953,46.8649 C18.1373,46.8499 18.5583,46.9839 18.9693,47.1129 C19.2213,47.1929 19.4643,47.2869 19.7313,47.2849 C20.2833,47.2869 20.5633,47.8889 21.1223,47.9119 C21.2633,47.9179 21.2413,48.1129 21.1103,48.2189 C20.9493,48.3479 20.7583,48.3399 20.5693,48.3359" id="Fill-42"></path>
                    <path d="M10.083,36.7695 C9.989,36.7725 9.894,36.7845 9.801,36.7775 C9.618,36.7615 9.356,36.7735 9.36,36.5395 C9.364,36.2555 9.621,36.3475 9.798,36.3725 C10.239,36.4265 10.656,36.3675 11.062,36.1735 C11.206,36.1035 11.417,36.0375 11.489,36.2655 C11.558,36.4855 11.362,36.5535 11.194,36.5895 C10.828,36.6655 10.457,36.7285 10.088,36.7955 C10.086,36.7875 10.083,36.7775 10.083,36.7695" id="Fill-44"></path>
                    <path d="M54.4463,11.9707 C54.4423,12.1307 54.3423,12.1677 54.2213,12.1587 C54.0163,12.1467 53.9323,12.0097 53.9273,11.8247 C53.9233,11.7047 53.9753,11.5837 54.1203,11.6347 C54.2783,11.6887 54.4073,11.7987 54.4463,11.9707" id="Fill-46"></path>
                    <path d="M64.4346,3.9023 C63.9616,4.0483 63.5246,3.9883 63.1376,3.9183 C61.2276,3.5623 59.3346,3.1303 57.5756,2.3103 C57.3606,2.2113 57.2456,2.0853 57.2336,1.8613 C57.2176,1.6053 57.3186,1.5363 57.5736,1.6443 C57.6106,1.6583 57.6466,1.6723 57.6806,1.6873 C59.7006,2.6423 61.8356,3.2763 64.0496,3.6973 C64.1256,3.7093 64.2006,3.7323 64.2726,3.7593 C64.3056,3.7713 64.3276,3.8053 64.4346,3.9023" id="Fill-48"></path>
                    <path d="M64.585,2.457 C64.278,2.553 63.996,2.512 63.746,2.467 C62.513,2.234 61.292,1.955 60.158,1.424 C60.021,1.359 59.946,1.277 59.941,1.133 C59.934,0.967 59.999,0.924 60.163,0.992 C60.186,1.003 60.21,1.012 60.231,1.021 C61.53,1.64 62.909,2.051 64.339,2.324 C64.388,2.332 64.437,2.346 64.483,2.364 C64.503,2.373 64.518,2.393 64.585,2.457" id="Fill-50"></path>
                    <path d="M65.1025,1.1211 C64.7955,1.2171 64.5125,1.1761 64.2615,1.1301 C63.0285,0.8981 63.4715,1.1411 62.3405,0.6091 C62.2025,0.5451 62.1275,0.4631 62.1215,0.3181 C62.1145,0.1541 62.1795,0.1081 62.3455,0.1781 C62.3685,0.1871 62.3915,0.1971 62.4135,0.2071 C63.7115,0.8241 63.4245,0.7151 64.8545,0.9891 C64.9035,0.9971 64.9515,1.0101 64.9975,1.0281 C65.0185,1.0371 65.0325,1.0591 65.1025,1.1211" id="Fill-52"></path>
                </g>
                <path d="M101.5928,32.9101 C101.5198,33.2351 101.4968,33.5921 101.4738,33.9711 L101.4598,34.1911 C101.4408,34.4721 101.3778,34.7111 101.2748,34.9081 C101.3588,35.1911 101.3148,35.4531 101.2978,35.5561 C101.1958,36.1601 101.1318,36.7921 101.0718,37.4021 C101.0078,38.0331 100.9388,38.7241 100.8268,39.3891 C100.5928,40.7671 100.2158,41.7171 99.6378,42.3761 C99.2828,42.7811 99.1318,43.2631 98.9558,43.8201 C98.8618,44.1191 98.7668,44.4161 98.6448,44.7071 C98.0138,46.2061 97.1178,47.4731 96.1808,48.7471 C95.9808,49.0191 95.7668,49.2821 95.5518,49.5461 C95.3328,49.8131 95.1378,50.0551 94.9548,50.3041 C94.7888,50.5311 94.6338,50.7651 94.4788,50.9991 C94.1048,51.5641 93.6978,52.1781 93.1608,52.7131 C92.8738,53.0001 92.6088,53.3321 92.3508,53.6541 C91.8968,54.2211 91.4298,54.8051 90.7888,55.2811 C90.6158,55.4101 90.4908,55.5511 90.4048,55.7131 C89.9338,56.5991 89.2818,57.2731 88.6528,57.9261 C88.4128,58.1761 88.2058,58.3901 88.0068,58.6131 C87.5858,59.0861 87.1108,59.5001 86.6898,59.8671 C86.1978,60.2951 85.7358,60.6991 85.3488,61.1781 C84.9678,61.6481 84.4868,61.9721 84.0618,62.2581 C83.7778,62.4471 83.5088,62.6271 83.2928,62.8341 C82.9858,63.1271 82.6988,63.4551 82.3978,63.8011 C81.8408,64.4391 81.2648,65.0981 80.4858,65.6111 C80.0088,65.9261 79.6008,66.3651 79.1698,66.8321 C78.7508,67.2871 78.3218,67.7521 77.7898,68.1421 C77.1418,68.6211 76.5718,69.1741 75.9698,69.7621 C75.6788,70.0451 75.3958,70.3201 75.1048,70.5901 C73.7688,71.8161 72.6578,72.9821 71.7088,74.1561 C71.3208,74.6371 70.8628,74.9741 70.4198,75.2991 C70.1648,75.4861 69.9468,75.6461 69.7448,75.8261 C68.6398,76.8141 67.5458,77.9731 66.4038,79.3671 L66.1708,79.6461 C65.6018,80.3321 65.0138,81.0391 64.7788,81.8511 C64.6498,82.2891 64.2858,82.5121 64.0898,82.6331 C63.0268,83.2831 62.3018,84.2791 61.7878,85.0741 C61.6138,85.3461 61.4708,85.6621 61.3198,86.0001 C61.1418,86.3961 60.9448,86.8361 60.6698,87.2461 L60.3998,87.6481 C59.7608,88.6091 58.2318,89.6051 57.3328,90.3961 C56.5298,91.1051 56.7628,91.9261 56.1808,92.7031 C56.0168,92.9241 55.5168,93.5961 54.6688,93.5961 C54.4118,93.5961 54.1518,93.5311 53.8948,93.4081 C53.6938,93.4611 53.4838,93.4881 53.2798,93.4881 C52.1668,93.4881 51.4698,92.6681 51.2408,92.3961 L50.8478,91.9391 C50.1748,91.1581 49.4818,90.3511 48.9288,89.4101 C48.8528,89.2811 48.6808,89.1461 48.4978,89.0021 C48.3638,88.8961 48.2288,88.7891 48.1068,88.6741 C47.3398,87.9551 46.7278,87.1481 46.1358,86.3671 L46.0718,86.2831 C45.9018,86.0581 45.6938,85.8461 45.4728,85.6211 C45.0678,85.2091 44.6158,84.7481 44.2988,84.1191 C44.2278,83.9741 43.9918,83.7871 43.7858,83.6191 C43.5718,83.4451 43.3308,83.2521 43.1198,83.0121 C42.5168,82.3321 41.8468,81.6701 41.1988,81.0291 C40.3588,80.1971 39.5128,79.3591 38.7468,78.4411 C38.4758,78.1171 38.1398,77.8851 37.7478,77.7481 C37.1298,77.5351 36.6458,77.0681 36.3468,76.7131 C36.1358,76.4651 35.8418,76.2711 35.5298,76.0661 L35.1868,75.8341 C34.5318,75.3751 33.8428,74.8751 33.2508,74.2241 C33.1898,74.1581 33.0678,74.0881 32.9248,74.0101 C32.7278,73.8981 32.5408,73.7891 32.3608,73.6401 C31.0398,72.5371 29.7938,71.3441 28.5878,70.1871 L28.2388,69.8551 C27.0348,68.7031 25.7648,67.6561 24.4638,66.7401 L24.0728,66.4691 C23.2298,65.8851 22.3548,65.2811 21.6868,64.4451 C21.4228,64.1151 21.0808,63.8511 20.7208,63.5721 C20.3698,63.2991 20.0088,63.0191 19.6758,62.6541 C19.4068,62.3591 19.2238,62.0491 19.0618,61.7751 L18.9168,61.5391 C18.6548,61.1171 18.2608,60.7581 17.8448,60.3771 C17.4108,59.9781 16.9658,59.5701 16.5988,59.0411 C16.1358,58.3771 15.6078,57.7321 15.0968,57.1091 C14.6178,56.5251 14.1308,55.9281 13.6808,55.3031 C13.5128,55.0681 13.3008,54.8531 13.0748,54.6251 L12.9768,54.5251 C12.5318,54.0781 12.2568,53.5621 12.0128,53.1071 C11.9148,52.9221 11.8218,52.7461 11.7178,52.5781 C11.6138,52.4071 11.4928,52.2481 11.3718,52.0901 C11.1838,51.8421 10.9708,51.5591 10.7948,51.2241 C10.4468,50.5591 10.0708,49.9071 9.6948,49.2561 L9.6308,49.1431 C9.4078,48.7561 9.1868,48.3711 8.9698,47.9801 C8.5378,47.1991 8.1388,46.3661 7.7138,45.3591 C7.4148,44.6451 7.1808,43.9171 6.9528,43.2131 C6.7218,42.4941 6.4928,41.7791 6.2098,41.1151 C5.9728,40.5551 5.8978,39.9991 5.8238,39.4611 C5.7788,39.1231 5.7378,38.8281 5.6648,38.5581 C5.6198,38.3871 5.5868,38.2111 5.5528,38.0361 C5.4678,37.5881 5.4118,37.3321 5.2238,37.1581 C4.7738,36.7471 4.8468,36.2031 4.8778,35.9721 L4.8908,35.8801 C4.8838,35.5701 4.8588,35.3141 4.8328,35.0591 C4.7768,34.4741 4.7158,33.8431 4.8688,33.1761 C5.0108,32.5601 5.0468,31.9161 5.0848,31.2321 C5.1298,30.4531 5.1738,29.6561 5.3758,28.8461 C5.4148,28.6891 5.4128,28.4781 5.4088,28.2561 C5.4048,27.9921 5.4008,27.6931 5.4578,27.3731 C5.7618,25.6601 6.3738,24.0741 6.9658,22.5421 C7.1458,22.0761 7.3058,21.6601 7.4598,21.2401 C7.8028,20.3081 8.3358,19.5781 8.8528,18.8721 C9.0048,18.6641 9.1478,18.4691 9.2838,18.2691 C9.4678,18.0061 9.6448,17.7401 9.8218,17.4721 L9.8738,17.3951 C10.5828,16.3311 11.3158,15.2281 12.2808,14.2791 C12.5418,14.0221 12.7958,13.7601 13.0508,13.4951 L13.1628,13.3801 C14.0518,12.4551 14.9718,11.4981 16.1278,10.7551 C16.8328,10.3021 17.4638,9.9811 18.1138,9.7481 C18.2898,9.6831 18.4888,9.5411 18.6998,9.3911 C18.9468,9.2151 19.2178,9.0211 19.5418,8.8741 C20.1758,8.5861 20.8078,8.2131 21.4178,7.8541 L21.7998,7.6301 C23.0728,6.8871 24.5038,6.4511 26.0528,6.3361 C26.2298,6.3221 26.4048,6.3131 26.5768,6.3051 C27.1548,6.2731 27.6808,6.2461 28.1708,6.0981 C28.6328,5.9601 29.3228,6.0211 29.7708,6.0971 C29.9848,6.1341 30.2008,6.1721 30.3878,6.1721 C31.1478,6.1761 31.9048,6.2921 32.5718,6.3941 L32.6628,6.4081 C32.9018,6.4441 33.1418,6.4801 33.3798,6.5121 C33.9698,6.5881 34.4348,6.8021 34.7968,7.1641 C35.9858,7.2341 37.0298,7.5491 38.0418,7.8521 C38.4838,7.9841 38.8838,8.1031 39.2878,8.2031 C39.6348,8.2891 39.9598,8.3701 40.2728,8.3971 C40.9618,8.4571 41.6008,8.7411 41.9758,9.1581 C42.3418,9.5631 42.8428,9.8431 43.3738,10.1391 C43.7638,10.3551 44.2038,10.6001 44.6138,10.9191 C45.7978,11.8391 46.8658,12.8751 47.9008,13.8771 L48.0888,14.0601 C48.9828,14.9281 49.7678,15.8671 50.5268,16.7751 L50.6418,16.9121 C50.9058,17.2281 51.1708,17.5451 51.4408,17.8551 C52.2008,18.7361 52.9778,19.6991 53.3778,20.9441 C53.5078,21.3471 54.0718,21.4021 54.3988,21.2371 C55.1968,18.9721 56.5548,17.0601 57.8798,15.2951 C59.3518,13.3341 61.1168,11.5621 63.1278,10.0321 C63.7268,9.5751 64.3678,9.3101 64.9888,9.0541 C65.1558,8.9841 65.3228,8.9161 65.4878,8.8431 C67.1578,8.1031 68.6608,7.4991 70.0828,6.9921 C71.8758,6.3531 73.7118,5.9391 75.5388,5.7601 C77.7088,5.5511 79.3748,5.6191 81.0148,5.9901 C81.6858,6.1401 82.3018,6.3811 82.8978,6.6121 C83.3578,6.7901 83.7898,6.9591 84.2308,7.0821 C85.2388,7.3631 86.2228,7.7231 87.1738,8.0691 C87.9738,8.3611 88.7218,8.6351 89.4638,8.8651 C90.5768,9.2121 91.9558,9.6401 93.0258,10.7581 C93.1538,10.8921 93.3528,11.0201 93.5638,11.1561 C93.7828,11.2971 93.9968,11.4371 94.1908,11.5991 C95.7818,12.9311 96.9888,14.3101 97.8818,15.8181 C98.0508,16.1011 98.2248,16.3811 98.3978,16.6601 C98.7358,17.2041 99.0768,17.7561 99.3758,18.3321 C100.0218,19.5721 100.4778,21.0061 100.7678,22.7171 C100.8038,22.9351 100.8548,23.1501 100.9038,23.3661 C101.0228,23.8831 101.1458,24.4161 101.1338,25.0091 C101.1108,26.1681 101.2908,27.3601 101.4658,28.5141 C101.5418,29.0191 101.6158,29.5141 101.6778,30.0101 C101.8128,31.0981 101.7838,32.0461 101.5928,32.9101 M104.5018,36.3481 L104.5348,36.2461 C104.7388,35.6231 104.9278,35.0411 105.0378,34.4551 C105.1608,33.8061 105.0578,33.1091 104.9468,32.3701 C104.8118,31.4771 104.6738,30.5601 104.8838,29.5791 C104.6968,28.9221 104.6618,28.2811 104.6298,27.6621 C104.6148,27.3811 104.6008,27.1031 104.5708,26.8281 C104.5468,26.6191 104.4878,26.4081 104.4258,26.1831 C104.3268,25.8221 104.2138,25.4121 104.2148,24.9551 C104.2178,24.2931 103.9878,23.6391 103.7308,22.9711 C103.4198,22.1621 103.2598,21.3251 103.2408,20.4081 C103.2378,20.1421 103.1648,20.0821 103.0498,20.0121 C102.5748,19.7281 102.3818,19.3451 102.2568,19.0061 C102.0228,18.3701 101.7278,17.6241 101.3248,16.9061 C101.2378,16.7511 101.1318,16.5991 101.0298,16.4471 C100.7218,15.9981 100.3828,15.5041 100.2618,14.8491 C100.2128,14.5861 100.0518,14.3511 99.8478,14.0531 L99.6788,13.8001 C99.3788,13.3361 98.9798,12.9321 98.5578,12.5061 C98.2318,12.1781 97.8618,11.8051 97.5318,11.3841 C97.4148,11.2341 97.3448,11.0861 97.2928,10.9771 C97.2838,10.9591 97.2768,10.9411 97.2698,10.9281 C96.7668,10.6801 96.3958,10.3281 96.0658,10.0151 C95.8918,9.8531 95.7548,9.7241 95.6088,9.6091 C94.6758,8.8751 93.5718,8.0631 92.2768,7.7111 C92.0918,7.6601 91.8178,7.5861 91.5588,7.3441 C90.6748,6.5191 89.6498,5.9121 88.5148,5.5411 C88.0388,5.3851 87.5768,5.1931 87.1318,5.0081 C86.2838,4.6551 85.5228,4.3381 84.7148,4.2361 C83.7748,4.1201 82.8428,3.9311 81.9448,3.7501 L81.4088,3.6411 C81.1278,3.5861 80.8488,3.5191 80.5718,3.4531 C79.7528,3.2581 79.0438,3.0811 78.2668,3.1951 C77.4678,3.3101 76.6478,3.3291 75.9238,3.3461 C75.3458,3.3591 74.8048,3.3731 74.2818,3.4201 C72.5378,3.5801 70.7338,3.7461 69.1968,4.5121 C68.9478,4.6361 68.7108,4.6761 68.5358,4.7051 C68.4688,4.7171 68.4068,4.7231 68.3628,4.7401 C68.0128,5.0561 67.5608,5.2071 67.1958,5.3301 C67.0438,5.3801 66.8978,5.4281 66.7588,5.4941 C66.3728,5.6761 65.9788,5.7911 65.6318,5.8921 C65.1648,6.0311 64.7668,6.1481 64.4328,6.3791 C64.2858,6.4801 64.1518,6.5941 64.0168,6.7051 C63.7858,6.8961 63.5728,7.0691 63.3428,7.2171 C62.5578,7.7201 61.8248,8.3491 61.1148,8.9591 C60.6378,9.3691 60.1568,9.7791 59.6578,10.1641 C59.2928,10.4431 58.9548,10.7621 58.5968,11.0991 C58.3838,11.3011 58.1918,11.4811 57.9948,11.6581 L57.5698,12.0361 C56.4038,13.0721 55.3018,14.0491 54.6588,15.3801 C54.3528,16.0251 53.8828,16.1231 53.6318,16.1231 C53.0908,16.1231 52.7698,15.7031 52.6638,15.5651 C52.4388,15.2671 52.2048,14.9821 51.9738,14.6951 C51.7058,14.3671 51.4408,14.0391 51.1848,13.6991 C50.8328,13.2331 50.3968,12.8161 49.9338,12.3751 C49.4598,11.9251 48.9258,11.4181 48.4778,10.8261 C48.1668,10.4141 47.7338,10.0771 47.2758,9.7231 C46.8488,9.3901 46.4088,9.0491 46.0118,8.6071 C45.6728,8.2321 45.3678,8.0101 45.0558,7.9061 C44.3138,7.6581 43.6548,7.2931 43.0168,6.9411 C42.6518,6.7391 42.3248,6.5581 41.9878,6.3961 C41.8158,6.3141 41.6398,6.2341 41.4628,6.1531 C40.8838,5.8891 40.2938,5.6181 39.7288,5.2501 C39.5228,5.1151 39.2068,5.0581 38.8718,4.9981 C38.4988,4.9311 38.0798,4.8551 37.6548,4.6601 C37.4558,4.5701 37.1888,4.5141 36.9298,4.4591 C36.4578,4.3591 35.8708,4.2341 35.3378,3.8591 L35.1688,3.8791 C34.3118,3.8791 33.4928,3.7011 32.7718,3.5451 C32.1818,3.4181 31.6238,3.2971 31.0658,3.2601 C30.2718,3.2101 29.4918,3.2621 29.0398,3.4041 C28.1088,3.7001 27.1708,3.8201 26.2638,3.9371 C25.2078,4.0721 24.2118,4.2011 23.2838,4.5861 C22.8728,4.7581 22.4478,4.9001 22.0228,5.0431 C21.4768,5.2241 20.9598,5.3961 20.4858,5.6331 C18.9728,6.3851 17.4388,7.2091 15.7958,8.1561 C15.6418,8.2461 15.4698,8.3141 15.2958,8.3821 C15.2148,8.4121 15.0468,8.4761 15.0128,8.5101 C14.6508,9.1151 14.1068,9.4791 13.6258,9.7731 C12.3508,10.5531 12.0758,10.8631 11.2448,12.1061 C10.9368,12.5681 10.5878,12.9861 10.2498,13.3891 C9.9948,13.6911 9.7488,13.9861 9.5238,14.2961 C9.3188,14.5761 9.1008,14.8471 8.8818,15.1171 C8.4378,15.6641 8.0338,16.1601 7.7528,16.7211 C7.4318,17.3671 7.0478,17.9651 6.6778,18.5421 C6.4488,18.8971 6.2238,19.2481 6.0148,19.6061 C5.8678,19.8601 5.7288,20.1251 5.5908,20.3901 C5.3018,20.9491 5.0018,21.5251 4.6018,22.0391 C4.1728,22.5931 3.9348,23.2541 3.6838,23.9531 C3.5068,24.4481 3.3278,24.9471 3.0768,25.4391 C3.0348,25.5211 2.9388,25.7091 2.9258,25.7731 C3.0158,26.9311 2.6868,27.9861 2.3678,29.0081 L2.3288,29.1351 C2.2758,29.3091 2.2218,29.4841 2.1708,29.6601 C2.0978,29.9121 2.0718,30.1731 2.0848,30.5061 C2.0908,30.6401 2.1008,30.7781 2.1108,30.9171 C2.1598,31.5931 2.2048,32.2041 2.0518,32.8301 C1.9658,33.1741 1.9888,33.3751 2.1378,33.6331 C2.2948,33.9041 2.3368,34.1481 2.3678,34.3271 C2.4498,34.8121 2.4388,35.2431 2.4268,35.6601 C2.4168,35.9631 2.4078,36.2421 2.4368,36.5041 L2.4808,36.9311 C2.5658,37.7631 2.6508,38.5921 2.8318,39.3221 C2.9568,39.8341 3.0488,40.3511 3.1398,40.8711 C3.2998,41.7961 3.4498,42.6701 3.8118,43.4641 C3.9348,43.7311 3.9578,43.9641 3.9378,44.1501 C3.9738,44.1781 4.0148,44.2101 4.0478,44.2341 C4.3478,44.4631 4.8488,44.8441 4.8718,45.5901 C4.9038,46.4651 5.3388,47.2521 5.8018,48.0851 L5.9138,48.2881 C6.0908,48.6131 6.2908,48.9241 6.4888,49.2341 C6.8068,49.7281 7.0638,50.1331 7.2898,50.5691 C7.7038,51.3741 8.2178,52.1481 8.7138,52.8971 L8.9778,53.2971 C9.0808,53.4551 9.2478,53.6111 9.4248,53.7791 C9.7098,54.0511 10.0578,54.3791 10.2978,54.8461 C10.3958,55.0351 10.4588,55.2321 10.5188,55.4281 C10.5548,55.5471 10.5888,55.6641 10.6218,55.7131 C11.1298,56.5141 11.7898,57.2601 12.4288,57.9821 L12.5438,58.1111 C13.5578,59.2581 14.6028,60.4411 15.5188,61.7111 C15.6188,61.7751 15.6748,61.8141 15.7278,61.8591 C15.8558,61.9671 15.9908,62.0621 16.1278,62.1621 C16.5838,62.4901 17.0518,62.8281 17.3838,63.3531 C17.6358,63.7521 17.8018,64.0171 18.0308,64.1781 C18.2818,64.3551 18.4808,64.5551 18.6548,64.7301 C18.7358,64.8081 18.8138,64.8871 18.8958,64.9631 C19.1508,65.1891 19.2928,65.4411 19.4068,65.6441 C19.4588,65.7361 19.5298,65.8651 19.5638,65.8891 C20.1188,66.2831 20.5398,66.6051 20.9248,66.9261 C21.1838,67.1441 21.3858,67.3871 21.5658,67.5991 C21.7938,67.8711 21.9828,68.0961 22.2088,68.2091 C22.5748,68.3901 22.9578,68.6831 23.2608,69.0141 C23.6778,69.4651 24.1828,69.8441 24.7158,70.2461 C24.9508,70.4221 25.1858,70.5991 25.4148,70.7831 C25.7258,71.0331 26.0858,71.2481 26.4668,71.4761 L26.5868,71.5491 C26.9288,71.7521 27.0948,72.0551 27.1948,72.2321 C27.2048,72.2541 27.2158,72.2751 27.2268,72.2931 C28.1198,72.7601 28.8408,73.3571 29.4288,74.1191 C29.4718,74.1761 29.6178,74.2651 29.7348,74.3361 L29.8218,74.3901 C29.9868,74.4921 30.1548,74.5821 30.3248,74.6721 C30.6198,74.8301 30.8978,74.9801 31.1618,75.1621 C31.4088,75.3301 31.6108,75.5311 31.7708,75.6911 C31.9208,75.8421 32.0628,75.9861 32.1728,76.0411 C33.2878,76.6071 34.1868,77.3941 35.0578,78.1581 C35.4478,78.5021 35.8308,78.8381 36.2318,79.1501 C37.3998,80.0661 38.5418,81.1371 39.7228,82.4261 C40.0658,82.8011 40.4128,83.1681 40.7628,83.5331 C41.5818,84.3941 42.4288,85.2851 43.1868,86.2651 C43.2588,86.3591 43.3268,86.4611 43.3948,86.5641 C43.4428,86.6371 43.5188,86.7521 43.5508,86.7831 C44.3198,87.2711 44.8258,87.9431 45.3178,88.5941 C45.6008,88.9711 45.8668,89.3241 46.1748,89.6211 C46.4138,89.8511 46.5588,90.1971 46.5498,90.5231 C46.5608,90.5291 46.6598,90.6441 46.7138,90.7051 L46.8088,90.8161 C47.0228,91.0661 47.2278,91.3221 47.4338,91.5801 C48.0008,92.2851 48.5298,92.9411 49.1858,93.4531 C49.3548,93.5861 49.4968,93.7581 49.5998,93.9511 C49.8408,94.4161 50.2128,94.8221 50.6078,95.2521 C50.8168,95.4801 51.0268,95.7111 51.2208,95.9491 C51.4018,96.1721 51.6518,96.3831 51.9168,96.6051 C52.2218,96.8591 52.5598,97.1421 52.8558,97.5001 C53.1538,97.5171 53.4248,97.5641 53.6568,97.6071 C53.9318,97.6581 54.1648,97.7031 54.4038,97.7031 L54.5818,97.7111 C54.6128,97.6871 54.6618,97.6441 54.7378,97.5701 L54.9848,97.3281 C55.3138,97.0141 55.5718,96.7671 55.6768,96.4531 C55.7978,96.0961 56.1158,95.7911 56.4698,95.6951 L56.4688,95.6951 C56.4408,95.6951 56.5018,95.5451 56.5248,95.4861 C56.6708,95.1271 56.8228,94.8921 56.9578,94.6831 L57.0748,94.5001 C57.4348,93.9101 57.8628,93.3531 58.2408,92.8611 C58.6518,92.3281 59.0388,91.8241 59.3638,91.2731 C59.6288,90.8281 59.9738,90.3961 60.4168,89.9531 C60.7458,89.6251 61.1048,89.3491 61.4198,89.1051 C61.9298,88.7111 62.3678,88.3731 62.6888,87.8871 C63.0268,87.3751 63.4078,86.8611 63.7898,86.3531 C63.9698,86.1131 64.1488,85.8751 64.3218,85.6351 C64.8778,84.8711 65.4778,84.1371 66.0568,83.4301 C66.3998,83.0101 66.7388,82.5941 67.0718,82.1721 C67.4358,81.7051 67.8228,81.2581 68.2118,80.8101 C68.6808,80.2671 69.1138,79.7651 69.4988,79.2581 C69.8448,78.8031 70.2378,78.4471 70.6158,78.1031 L70.9578,77.7891 C71.2358,77.5291 71.5288,77.3101 71.8118,77.1011 C72.1378,76.8611 72.4148,76.6561 72.6368,76.4301 C73.0808,75.9741 73.5618,75.5901 74.0268,75.2171 C74.5088,74.8301 74.9588,74.4691 75.3448,74.0561 C75.7318,73.6441 76.1728,73.3141 76.5618,73.0211 C76.8688,72.7911 77.1588,72.5721 77.4158,72.3261 C77.9518,71.8101 77.9138,71.7381 78.7088,71.1811 C78.9608,71.0041 79.2188,70.8341 79.4778,70.6641 C80.1538,70.2191 80.6738,69.2091 81.1698,68.6801 C82.2258,67.5551 83.4258,66.6461 84.4608,65.9061 C84.9348,65.5701 85.3208,65.1251 85.7298,64.6521 L85.9398,64.4121 C86.1228,64.2031 86.2958,63.9861 86.4678,63.7691 C86.9118,63.2171 86.7918,63.0311 88.1138,62.0781 C88.3118,61.9351 88.5198,61.8061 88.7288,61.6761 C89.1258,61.4281 89.4998,61.1951 89.7318,60.8871 C90.6138,59.7151 92.2858,58.6621 93.1958,57.6661 C93.4798,57.3531 93.7248,56.9781 93.9838,56.5821 C94.4498,55.8651 94.9748,55.0581 95.8478,54.5021 C96.1288,53.7421 96.6308,53.1231 97.1178,52.5211 C97.3648,52.2171 97.5978,51.9301 97.8018,51.6231 C98.2638,50.9301 98.6898,50.3401 99.1048,49.8181 C99.4648,49.3651 99.7208,48.8201 99.9928,48.2441 C100.2588,47.6801 100.5308,47.1011 100.9198,46.5551 C101.0388,46.3851 101.1728,46.2281 101.3068,46.0711 C101.4408,45.9161 101.5598,45.7781 101.6588,45.6211 C101.8308,45.3481 101.9578,45.0371 102.0918,44.7071 C102.2018,44.4351 102.3138,44.1671 102.4468,43.9081 C102.6828,43.4461 102.8158,42.9471 102.9558,42.4201 L103.0858,41.9491 C103.1588,41.6941 103.1938,41.4121 103.2318,41.1121 C103.2768,40.7401 103.3178,40.3831 103.4208,40.0251 L103.6488,39.2221 C103.8778,38.4141 104.0908,37.6591 104.3218,36.9101 C104.3798,36.7231 104.4408,36.5351 104.5018,36.3481" id="Fill-55" fill="#323232"></path>
            </g>
        </g>
    </g>
</svg>