<?xml version="1.0" encoding="UTF-8"?>
<svg width="115px" height="106px" viewBox="0 0 115 106" version="1.1" xmlns="http://www.w3.org/2000/svg" xmlns:xlink="http://www.w3.org/1999/xlink">
    <!-- Generator: Sketch 39.1 (31720) - http://www.bohemiancoding.com/sketch -->
    <title>lovelist</title>
    <desc>Created with Sketch.</desc>
    <defs>
        <polygon id="path-1" points="0.000448728405 106 114.33281 106 114.33281 0.593220901 0.000448728405 0.593220901"></polygon>
    </defs>
    <g id="Page-1" stroke="none" stroke-width="1" fill="none" fill-rule="evenodd">
        <g id="Planche-Illustrations" transform="translate(-1757.000000, -1700.000000)">
            <g id="lovelist" transform="translate(1757.000000, 1699.000000)">
                <g id="Group-3" transform="translate(0.000000, 0.407000)">
                    <mask id="mask-2" fill="white">
                        <use xlink:href="#path-1"></use>
                    </mask>
                    <g id="Clip-2"></g>
                    <path d="M111.0557,18.1289 C110.8887,18.4269 101.8267,-4.7361 76.8577,2.1789 C76.1997,2.2929 67.6587,2.2309 56.9407,11.9119 C56.9407,11.9119 32.8567,-12.1031 11.7887,9.8279 C11.7767,9.8219 -13.1553,32.9479 9.5337,59.2709 C9.7087,59.4569 37.7917,89.0089 47.5067,98.5509 C46.9867,97.8539 55.5317,116.3279 66.9597,97.5439 C66.6777,97.8669 88.7277,73.3269 96.7247,65.3769 C96.2327,65.9599 123.5557,44.9969 111.0557,18.1289" id="Fill-1" fill="#FFFFFF" mask="url(#mask-2)"></path>
                </g>
                <path d="M57.6602,98.8133 C57.6762,98.8163 57.6922,98.8183 57.7092,98.8213 C57.9182,98.3003 58.2652,97.8433 58.6992,97.5013 C58.8472,97.1963 58.9882,96.9703 59.0922,96.8043 L59.2122,96.6113 C59.6092,95.9403 60.0992,95.2883 60.4572,94.8123 C60.8402,94.2993 61.1662,93.8633 61.4232,93.4163 C61.7662,92.8193 62.2032,92.2523 62.7602,91.6813 C63.1782,91.2533 63.6022,90.9173 63.9442,90.6483 C64.3302,90.3393 64.6212,90.1073 64.7522,89.9043 C65.1052,89.3513 65.5042,88.7973 65.9062,88.2493 C66.0732,88.0203 66.2412,87.7883 66.4062,87.5543 C66.9752,86.7523 67.5692,86.0043 68.1432,85.2813 C68.5132,84.8183 68.8392,84.4083 69.1562,83.9943 C69.5292,83.5013 69.9342,83.0213 70.3402,82.5423 C70.7882,82.0073 71.1802,81.5443 71.5252,81.0763 C71.9732,80.4723 72.4442,80.0313 72.8612,79.6413 L73.2022,79.3203 C73.5462,78.9883 73.9112,78.7093 74.2052,78.4863 C74.4302,78.3173 74.6732,78.1333 74.7852,78.0153 C75.3202,77.4533 75.8862,76.9903 76.3402,76.6183 C76.7712,76.2613 77.1482,75.9493 77.4372,75.6343 C77.9292,75.0953 78.4582,74.6873 78.8842,74.3593 C79.1442,74.1573 79.3852,73.9723 79.5522,73.8063 C79.6812,73.6793 79.7682,73.5843 79.8462,73.5023 C80.1572,73.1673 80.3942,72.9293 81.0642,72.4463 C81.3342,72.2513 81.6062,72.0663 81.8812,71.8813 C82.0122,71.7823 82.3012,71.3663 82.4742,71.1173 C82.6932,70.8023 82.9212,70.4773 83.1872,70.1843 C84.3502,68.9143 85.6332,67.9163 86.7332,67.1063 C87.0082,66.9063 87.2922,66.5713 87.6212,66.1833 L87.8482,65.9143 C88.0132,65.7203 88.1642,65.5273 88.3142,65.3333 C88.3852,65.2433 88.4262,65.1743 88.4672,65.1103 C88.8022,64.5813 89.1522,64.1073 90.3342,63.2343 C90.5602,63.0643 90.8092,62.9013 91.0612,62.7423 C91.2192,62.6413 91.4732,62.4773 91.5452,62.4053 C92.1452,61.5793 93.0292,60.8293 93.8092,60.1673 C94.2992,59.7513 94.7612,59.3603 95.0492,59.0363 C95.2142,58.8483 95.4042,58.5503 95.6042,58.2353 C96.0592,57.5173 96.6242,56.6253 97.5252,55.8833 C97.9062,55.0953 98.4102,54.4593 98.8312,53.9263 C99.0402,53.6603 99.2302,53.4223 99.3952,53.1683 C99.8762,52.4253 100.3272,51.7833 100.7702,51.2123 C100.9732,50.9503 101.1622,50.5393 101.3802,50.0623 C101.6822,49.3973 101.9982,48.7063 102.4772,48.0133 C102.6072,47.8243 102.7562,47.6383 102.9052,47.4563 C102.9122,47.4483 102.9692,47.3783 102.9742,47.3723 C103.0372,47.2973 103.0982,47.2353 103.1452,47.1613 C103.2212,47.0383 103.3152,46.7963 103.4062,46.5633 C103.5362,46.2313 103.6682,45.9103 103.8212,45.5983 C103.9572,45.3263 104.0532,44.9473 104.1632,44.5083 L104.2922,44.0133 C104.3412,43.8373 104.3502,43.6693 104.3702,43.4943 C104.4242,43.0083 104.4732,42.5553 104.6092,42.0603 L104.8872,41.0263 C105.0872,40.2883 105.2752,39.5913 105.4782,38.8993 L105.6952,38.1923 C105.8662,37.6443 106.0302,37.1193 106.1122,36.6513 C106.1692,36.3323 106.0772,35.7763 105.9892,35.2383 C105.8502,34.3943 105.6812,33.3683 105.8232,32.2243 C105.6632,31.5193 105.6232,30.8753 105.5892,30.3373 C105.5692,30.0613 105.5562,29.8463 105.5282,29.6313 C105.5132,29.5163 105.4742,29.4123 105.4412,29.2993 C105.3102,28.8383 105.1432,28.2513 105.1342,27.5363 C105.1312,27.2103 104.9512,26.7373 104.7662,26.2783 C104.4412,25.4623 104.2372,24.6273 104.1482,23.7433 C103.5612,23.1673 103.3252,22.5483 103.2302,22.3023 C103.0172,21.7483 102.7522,21.0963 102.4072,20.4993 C102.3612,20.4203 102.2972,20.3333 102.2352,20.2443 C101.8382,19.6783 101.3492,18.9843 101.1202,18.0043 C101.0822,17.9473 101.0372,17.8873 100.9902,17.8213 L100.8022,17.5453 C100.5962,17.2373 100.2792,16.9243 99.9122,16.5633 C99.5642,16.2213 99.1272,15.7933 98.7152,15.2803 C98.6482,15.1983 98.5902,15.1173 98.5382,15.0413 C98.0752,14.7403 97.7212,14.4143 97.4402,14.1563 C97.2942,14.0223 97.2082,13.9403 97.1132,13.8693 C96.3252,13.2653 95.4092,12.6033 94.4722,12.3613 C94.1812,12.2853 93.5282,12.1143 92.9032,11.5473 C92.2242,10.9303 91.4442,10.4813 90.5842,10.2123 C90.0562,10.0473 89.5432,9.8433 89.0472,9.6453 C88.3142,9.3513 87.6812,9.0973 87.1402,9.0373 C86.1192,8.9233 85.1082,8.7333 84.2172,8.5643 L83.6792,8.4623 C83.3802,8.4083 83.0722,8.3393 82.7662,8.2703 C82.0902,8.1183 81.6432,8.0003 81.2202,8.0673 C80.3032,8.2113 79.4222,8.2443 78.6452,8.2723 C78.1012,8.2923 77.6052,8.3103 77.1272,8.3593 C75.5002,8.5303 73.9612,8.6913 72.7652,9.3063 C72.4282,9.4803 72.1122,9.5763 71.8682,9.6333 C71.3662,9.9633 70.8632,10.1403 70.5282,10.2573 C70.4372,10.2893 70.3732,10.3083 70.3122,10.3353 C69.7832,10.5923 69.3002,10.7423 68.9112,10.8623 C68.6592,10.9403 68.3532,11.0353 68.2702,11.0873 C68.1762,11.1563 68.0892,11.2333 68.0012,11.3083 C67.7402,11.5313 67.4602,11.7643 67.1332,11.9803 C66.4832,12.4093 65.8202,12.9923 65.1792,13.5553 C64.6532,14.0203 64.1492,14.4603 63.6262,14.8753 C63.3402,15.0993 63.0452,15.3853 62.7332,15.6883 C62.5082,15.9063 62.3082,16.0973 62.1052,16.2863 L61.6692,16.6833 C60.6232,17.6373 59.7242,18.4583 59.2682,19.4323 C58.7292,20.6093 57.6782,21.3283 56.4632,21.3423 L56.4622,21.3423 C55.8622,21.3423 54.7862,21.1713 53.8912,20.0333 C53.7172,19.8083 53.5452,19.6013 53.3742,19.3953 L53.2202,19.2093 C52.9422,18.8763 52.6572,18.5333 52.3812,18.1773 C52.1272,17.8493 51.7652,17.5133 51.3482,17.1243 C50.7992,16.6153 50.1812,16.0413 49.6382,15.3403 C49.4802,15.1373 49.1332,14.8763 48.7982,14.6253 C48.3062,14.2513 47.7722,13.8463 47.2532,13.2873 C47.1262,13.1483 47.0652,13.1083 47.0622,13.1073 C46.2292,12.8503 45.4502,12.4323 44.7632,12.0643 C44.4282,11.8853 44.1322,11.7253 43.8252,11.5833 L43.4122,11.3973 C42.7662,11.1123 42.1182,10.8273 41.4622,10.4283 C41.3862,10.4123 41.3042,10.4013 41.2212,10.3873 C40.7592,10.3103 40.1562,10.2093 39.4992,9.9163 C39.4512,9.9053 39.3262,9.8853 39.2052,9.8623 C38.7862,9.7793 38.1602,9.6563 37.4962,9.3383 C36.5672,9.3123 35.7222,9.1413 35.0302,9.0013 C34.4712,8.8883 34.0082,8.7953 33.5982,8.7733 C33.4842,8.7673 33.3612,8.7643 33.2412,8.7643 C32.6972,8.7643 32.3782,8.8253 32.3092,8.8463 C31.2232,9.2083 30.1562,9.3603 29.2162,9.4943 C28.2382,9.6323 27.4132,9.7503 26.7322,10.0423 C26.2852,10.2363 25.8152,10.4023 25.3452,10.5663 C24.8472,10.7403 24.4192,10.8883 24.0742,11.0663 C22.5992,11.8233 21.1122,12.6483 19.5242,13.5923 C19.3582,13.6913 19.1962,13.7713 19.0392,13.8403 C18.4602,14.5543 17.7852,14.9803 17.4222,15.2093 C16.4352,15.8303 16.3602,15.9243 15.6812,16.9703 C15.3142,17.5363 14.9202,18.0183 14.5722,18.4433 C14.3472,18.7203 14.1352,18.9793 13.9412,19.2503 C13.7192,19.5633 13.4872,19.8623 13.2532,20.1593 C12.8752,20.6363 12.5532,21.0423 12.3712,21.4163 C12.0102,22.1673 11.5892,22.8403 11.2172,23.4353 C11.0092,23.7703 10.8032,24.0993 10.6112,24.4373 C10.4922,24.6523 10.3692,24.8903 10.2502,25.1293 C9.9552,25.7173 9.5932,26.4373 9.0842,27.1093 C8.8592,27.4093 8.6882,27.9023 8.4902,28.4733 C8.3062,29.0163 8.1302,29.5163 7.8852,30.0413 C7.8992,31.3373 7.5652,32.4613 7.2662,33.4673 L7.2282,33.5963 C7.1812,33.7533 7.1362,33.9153 7.0922,34.0763 C7.0812,34.1153 7.0762,34.1773 7.0832,34.2893 L7.1092,34.6403 C7.1672,35.3073 7.2312,36.0573 7.0922,36.8763 C7.2832,37.3023 7.3492,37.6593 7.3862,37.8523 C7.5102,38.5293 7.5022,39.1053 7.4952,39.5683 C7.4912,39.7923 7.4792,39.9733 7.5012,40.1413 L7.5522,40.5973 C7.6432,41.3813 7.7282,42.1133 7.8822,42.6993 C8.0262,43.2563 8.1352,43.8163 8.2412,44.3763 C8.3962,45.2113 8.5292,45.9253 8.7912,46.4813 C8.8672,46.6413 8.9302,46.8043 8.9802,46.9703 C9.4712,47.4553 10.0172,48.2223 10.0682,49.3573 C10.0882,49.7463 10.4182,50.3233 10.7682,50.9333 L10.8892,51.1463 C11.0492,51.4303 11.2262,51.6993 11.4042,51.9673 C11.7292,52.4593 12.0352,52.9233 12.3162,53.4483 C12.6922,54.1563 13.1822,54.8753 13.6572,55.5713 L13.9302,55.9723 C13.9402,55.9753 14.0102,56.0333 14.0792,56.0973 C14.4532,56.4443 14.9822,56.9353 15.3832,57.6903 C15.5602,58.0243 15.6632,58.3323 15.7382,58.5613 C16.1812,59.1943 16.7282,59.7963 17.2592,60.3803 L17.3862,60.5203 C18.3262,61.5563 19.3832,62.7203 20.3302,63.9633 C20.3492,63.9793 20.3692,63.9943 20.3882,64.0093 C20.4842,64.0883 20.5632,64.1423 20.6422,64.1983 C21.2272,64.6093 21.9442,65.1123 22.4912,65.9543 C22.5772,66.0863 22.6432,66.1973 22.7102,66.2863 C23.0362,66.5223 23.2842,66.7623 23.4702,66.9423 L23.5432,67.0123 L23.6802,67.1423 C24.0822,67.4943 24.3352,67.8703 24.5002,68.1423 C24.9192,68.4363 25.3002,68.7233 25.6642,69.0203 C26.0622,69.3473 26.3512,69.6803 26.5622,69.9243 C26.6222,69.9943 26.6732,70.0573 26.7232,70.1113 C27.2482,70.3843 27.7782,70.7873 28.2182,71.2513 C28.5092,71.5593 28.9162,71.8593 29.3872,72.2053 C29.6642,72.4063 29.9192,72.5933 30.1712,72.7903 C30.3852,72.9573 30.6862,73.1323 31.0062,73.3183 L31.1222,73.3843 C31.6302,73.6773 31.9682,74.0453 32.1892,74.3493 C33.0312,74.8423 33.7512,75.4423 34.3702,76.1703 L34.4432,76.2153 C34.5442,76.2743 34.6792,76.3423 34.8132,76.4123 C35.1902,76.6073 35.5312,76.7903 35.8572,77.0083 C36.2642,77.2783 36.5732,77.5813 36.7582,77.7603 L36.8382,77.8373 C38.1002,78.4913 39.0962,79.3403 39.9792,80.0943 C40.3762,80.4343 40.7182,80.7273 41.0762,80.9993 C42.3512,81.9713 43.5872,83.1003 44.8582,84.4543 C45.1942,84.8093 45.5382,85.1643 45.8842,85.5163 C46.7672,86.4213 47.6542,87.3313 48.4812,88.3733 C48.5542,88.4613 48.6292,88.5643 48.7022,88.6723 C49.5742,89.2983 50.1622,90.0553 50.6462,90.6773 C50.8942,91.0003 51.1182,91.2883 51.3152,91.4733 C51.7312,91.8643 52.0372,92.3703 52.2002,92.9153 C52.3922,93.1383 52.5862,93.3723 52.7772,93.6063 C53.2892,94.2263 53.7352,94.7663 54.2142,95.1283 C54.6182,95.4413 54.9472,95.8283 55.1832,96.2593 C55.3172,96.5073 55.6162,96.8253 55.9062,97.1313 C56.1802,97.4233 56.4032,97.6643 56.6102,97.9133 C56.6752,97.9903 56.9052,98.1773 57.0432,98.2903 C57.2202,98.4333 57.4332,98.6063 57.6602,98.8133 M58.4592,102.9113 C58.4362,102.9113 58.4152,102.9113 58.3922,102.9103 L58.2152,102.9043 C57.8302,102.8743 57.4752,102.8403 57.1822,102.7883 C57.0362,102.7633 56.8402,102.7303 56.6252,102.7183 C56.0752,102.6903 55.5622,102.4363 55.2062,102.0163 C55.0202,101.7993 54.7552,101.5843 54.5212,101.3943 C54.2032,101.1353 53.8472,100.8463 53.5382,100.4733 C53.3812,100.2853 53.2082,100.1023 53.0362,99.9183 C52.5932,99.4493 52.0902,98.9173 51.7152,98.2523 C50.9122,97.6303 50.2902,96.8763 49.6882,96.1473 C49.4892,95.9053 49.2962,95.6683 49.0932,95.4373 L48.9892,95.3183 C48.9892,95.3183 48.9472,95.2723 48.9232,95.2463 C48.6332,94.9573 48.4372,94.5843 48.3652,94.1803 C48.0342,93.8393 47.7602,93.4843 47.4932,93.1393 C47.0642,92.5873 46.6992,92.1183 46.2352,91.8323 C46.1032,91.7513 45.9802,91.6543 45.8712,91.5433 C45.7982,91.4703 45.5962,91.2173 45.4792,91.0473 C45.4212,90.9593 45.3912,90.9143 45.3592,90.8743 C44.6482,89.9773 43.8352,89.1433 43.0482,88.3363 C42.6652,87.9473 42.3042,87.5753 41.9462,87.1963 C40.8242,86.0013 39.7492,85.0173 38.6542,84.1823 C38.2392,83.8683 37.8382,83.5263 37.4292,83.1763 C36.5602,82.4363 35.7852,81.7743 34.8882,81.3333 C34.4972,81.1433 34.2172,80.8703 33.9912,80.6503 C33.8642,80.5253 33.7382,80.4033 33.6392,80.3363 C33.4282,80.1963 33.2102,80.0853 32.9802,79.9663 C32.7842,79.8663 32.5772,79.7583 32.3772,79.6403 L32.2592,79.5673 C32.0082,79.4173 31.6872,79.2233 31.4192,78.8763 C31.0122,78.3643 30.5152,77.9653 29.8702,77.6393 C29.5142,77.4593 29.2202,77.1763 29.0252,76.8273 C29.0192,76.8173 29.0102,76.7983 28.9982,76.7773 C28.5902,76.5413 28.1332,76.2753 27.7072,75.9413 C27.4992,75.7793 27.2812,75.6193 27.0622,75.4603 C26.4432,75.0053 25.8482,74.5683 25.3092,73.9983 C25.1522,73.8323 24.9612,73.6993 24.8432,73.6423 C24.2242,73.3413 23.8422,72.8963 23.5342,72.5383 C23.3952,72.3773 23.2622,72.2233 23.1332,72.1173 C22.7862,71.8353 22.4012,71.5503 21.8902,71.1983 C21.4582,70.8703 21.2702,70.5443 21.1342,70.3073 C21.1072,70.2623 21.0792,70.1943 21.0232,70.1323 C20.9282,70.0473 20.8442,69.9673 20.7602,69.8863 L22.0792,68.3783 L20.6872,69.8163 C20.5572,69.6903 20.4442,69.5813 20.3422,69.5103 C19.7792,69.1243 19.4672,68.6413 19.1362,68.1303 C19.0132,67.9413 18.7312,67.7443 18.4052,67.5153 C18.1742,67.3513 18.0152,67.2373 17.8662,67.1143 C17.6522,66.9813 17.4722,66.8203 17.3212,66.6183 C16.4412,65.4303 15.4162,64.3013 14.4262,63.2103 L14.3092,63.0833 C13.6342,62.3383 12.8812,61.5093 12.2782,60.5853 C12.1102,60.3483 12.0142,60.0603 11.9312,59.7903 C11.9152,59.7413 11.8952,59.6513 11.8502,59.5673 C11.7662,59.4093 11.5792,59.2353 11.3812,59.0513 C11.1462,58.8353 10.8532,58.5683 10.6122,58.2073 L10.3542,57.8283 C9.8162,57.0393 9.2632,56.2263 8.7872,55.3323 C8.5962,54.9743 8.3502,54.6013 8.0652,54.1693 C7.8382,53.8253 7.6092,53.4753 7.4052,53.1133 L7.2922,52.9133 C6.7812,52.0223 6.2002,51.0073 6.0872,49.7433 C6.0692,49.7313 6.0532,49.7193 6.0382,49.7093 L6.0792,49.6463 C6.0762,49.6133 6.0742,49.5813 6.0732,49.5473 C6.0742,49.5753 6.0802,49.6043 6.0882,49.6323 L7.1252,48.0253 L5.9572,49.6493 C5.4432,49.2803 5.1332,48.6883 5.1172,48.0643 C4.6762,47.0813 4.4902,46.0843 4.3102,45.1193 C4.2212,44.6483 4.1322,44.1743 4.0112,43.7073 C3.7882,42.8543 3.6822,41.9473 3.5802,41.0693 L3.5292,40.6163 C3.4812,40.2423 3.4882,39.8593 3.4952,39.5213 C3.5012,39.1503 3.5052,38.8653 3.4522,38.5793 C2.9062,37.6243 3.0102,36.8033 3.1362,36.2663 C3.2082,35.9553 3.1712,35.5263 3.1242,34.9833 C3.1102,34.8243 3.0972,34.6683 3.0892,34.5153 C3.0572,33.9543 3.1042,33.4773 3.2362,33.0103 C3.2822,32.8383 3.3382,32.6483 3.3932,32.4593 L3.4322,32.3283 C3.7062,31.4083 3.9422,30.6123 3.8722,29.8363 C3.8562,29.6573 3.8642,29.4763 3.8962,29.2983 C3.9442,29.0373 4.0382,28.7873 4.2312,28.4103 C4.3982,28.0683 4.5392,27.6673 4.7042,27.1833 C4.9792,26.3873 5.2842,25.5063 5.8912,24.6993 C6.1832,24.3143 6.4312,23.8203 6.6722,23.3413 C6.8142,23.0543 6.9672,22.7593 7.1252,22.4763 C7.3512,22.0783 7.5852,21.7003 7.8242,21.3183 C8.1562,20.7853 8.5012,20.2333 8.7702,19.6733 C9.1462,18.9003 9.6392,18.2803 10.1142,17.6803 C10.3042,17.4383 10.4982,17.1903 10.6822,16.9313 C10.9232,16.5923 11.1882,16.2643 11.4632,15.9283 C11.7722,15.5493 12.0782,15.1743 12.3262,14.7933 C13.2782,13.3263 13.7542,12.7913 15.2902,11.8253 C15.6392,11.6043 15.8802,11.4273 15.9942,11.2313 C16.0812,11.0823 16.1872,10.9443 16.3092,10.8223 C16.5932,10.5383 16.9082,10.3823 17.2942,10.2353 C17.3362,10.2183 17.4122,10.1923 17.4792,10.1543 C19.1402,9.1673 20.6992,8.3013 22.2462,7.5083 C22.8382,7.2043 23.4412,6.9943 24.0252,6.7903 C24.4072,6.6583 24.7832,6.5273 25.1462,6.3703 C26.3232,5.8643 27.4972,5.6973 28.6322,5.5363 C29.5012,5.4133 30.3032,5.2983 31.0532,5.0493 C31.7642,4.8143 32.6362,4.7643 33.2412,4.7643 C33.4262,4.7643 33.6152,4.7693 33.8042,4.7783 C34.5142,4.8173 35.1662,4.9483 35.7972,5.0763 C36.4402,5.2063 37.0802,5.3343 37.6882,5.3413 L37.7302,5.3363 C38.2162,5.2753 38.7062,5.3923 39.1112,5.6673 C39.3162,5.8073 39.6492,5.8733 39.9712,5.9353 C40.3102,6.0023 40.7172,6.0843 41.1112,6.2543 C41.3202,6.3483 41.5692,6.3893 41.8572,6.4383 C42.3512,6.5213 42.9302,6.6193 43.4772,6.9723 C43.9132,7.2473 44.4162,7.4683 44.9482,7.7033 L45.5062,7.9533 C45.8862,8.1293 46.2462,8.3213 46.6492,8.5383 C47.2402,8.8543 47.7962,9.1523 48.3662,9.3343 C49.0142,9.5403 49.6122,9.9453 50.1892,10.5703 C50.4702,10.8723 50.8222,11.1393 51.1952,11.4223 C51.7222,11.8193 52.3122,12.2633 52.7982,12.8883 C53.1402,13.3303 53.5862,13.7443 54.0172,14.1443 C54.5732,14.6623 55.0902,15.1423 55.5412,15.7253 C55.7802,16.0333 56.0272,16.3313 56.2762,16.6283 C57.0402,15.4923 58.0162,14.6013 58.9682,13.7333 L59.3982,13.3413 C59.5662,13.1853 59.7482,13.0113 59.9482,12.8173 C60.3172,12.4583 60.7032,12.0833 61.1522,11.7313 C61.6142,11.3673 62.0592,10.9733 62.5032,10.5823 C63.2812,9.8983 64.0502,9.2223 64.9312,8.6403 C65.0952,8.5333 65.2412,8.4053 65.4012,8.2683 C65.5812,8.1153 65.7602,7.9653 65.9532,7.8283 C66.5392,7.4113 67.1532,7.2193 67.6952,7.0503 C68.0162,6.9523 68.3122,6.8603 68.5552,6.7433 C68.7472,6.6473 68.9662,6.5653 69.1932,6.4873 C69.3502,6.4313 69.5982,6.3453 69.6712,6.2913 C69.8552,6.1203 70.0562,5.9973 70.2912,5.9053 C70.5162,5.8163 70.7072,5.7843 70.8102,5.7673 C70.8742,5.7553 70.9212,5.7503 70.9712,5.7343 C72.7972,4.7923 74.8782,4.5733 76.7132,4.3803 C77.2792,4.3223 77.8652,4.2973 78.4902,4.2753 C79.1962,4.2503 79.9172,4.2233 80.5922,4.1173 C80.8692,4.0733 81.1602,4.0493 81.4532,4.0493 C82.2312,4.0493 82.9242,4.2063 83.5932,4.3563 C83.9062,4.4273 84.1592,4.4843 84.4132,4.5313 L84.9602,4.6343 C85.8202,4.7963 86.7122,4.9643 87.5842,5.0623 C88.6662,5.1833 89.6162,5.5643 90.5352,5.9323 C90.9352,6.0933 91.3482,6.2603 91.7762,6.3943 C93.1532,6.8253 94.4002,7.5303 95.4872,8.4923 C97.1002,8.9273 98.3852,9.8033 99.5432,10.6913 C99.7182,10.8253 99.8862,10.9723 100.0892,11.1583 C100.4102,11.4533 100.6352,11.6603 100.8652,11.7693 C101.2342,11.9453 101.5402,12.2293 101.7422,12.5843 C101.7642,12.6243 101.7942,12.6813 101.8212,12.7373 C101.8352,12.7653 101.8592,12.8113 101.8592,12.8113 C102.0972,13.1033 102.4252,13.4243 102.7142,13.7083 C103.2002,14.1873 103.6962,14.6763 104.1162,15.3063 L104.2742,15.5373 C104.5332,15.9033 104.8752,16.3873 105.0102,17.0713 C105.0562,17.3013 105.2472,17.5733 105.4682,17.8863 C105.6382,18.1303 105.7602,18.3083 105.8652,18.4893 C106.3542,19.3373 106.6952,20.1673 106.9662,20.8703 C106.9692,20.8803 106.9702,20.8863 106.9672,20.8883 C107.6882,21.3363 108.0772,22.0383 108.0992,22.9243 C108.1222,23.5903 108.2462,24.2063 108.4802,24.7923 C108.8062,25.6003 109.1252,26.4793 109.1342,27.4933 C109.1362,27.6683 109.2052,27.9133 109.2792,28.1713 C109.3612,28.4533 109.4532,28.7663 109.4982,29.1373 C109.5342,29.4163 109.5552,29.7083 109.5752,30.0033 C109.6122,30.5843 109.6442,31.1003 109.7802,31.5513 C109.8742,31.8663 109.8892,32.1993 109.8252,32.5213 C109.6992,33.1463 109.8082,33.8153 109.9362,34.5903 C110.0722,35.4173 110.2252,36.3553 110.0522,37.3443 C109.9252,38.0653 109.7142,38.7403 109.5112,39.3923 L109.3112,40.0433 C109.1212,40.6913 108.9402,41.3613 108.7482,42.0703 L108.4702,43.1073 C108.4152,43.3073 108.3882,43.5553 108.3562,43.8423 C108.3562,43.8453 108.3462,43.9433 108.3452,43.9463 C108.3072,44.2783 108.2642,44.6543 108.1562,45.0483 L108.0402,45.4953 C107.8952,46.0663 107.7302,46.7203 107.4062,47.3743 C107.3042,47.5823 107.2182,47.7993 107.1312,48.0203 C106.9852,48.3933 106.8182,48.8233 106.5552,49.2533 C106.4052,49.4973 106.2332,49.7123 106.0302,49.9523 C105.9222,50.0853 105.8422,50.1793 105.7712,50.2823 C105.4902,50.6883 105.2742,51.1633 105.0462,51.6653 C104.7222,52.3713 104.4182,53.0353 103.9322,53.6623 C103.5582,54.1443 103.1732,54.6943 102.7512,55.3463 C102.5182,55.7033 102.2622,56.0343 101.9882,56.3833 C101.5732,56.9083 101.2002,57.3783 101.0392,57.8343 C100.8922,58.2453 100.6162,58.5963 100.2522,58.8353 C99.7522,59.1653 99.3942,59.7283 99.0162,60.3253 C98.7032,60.8183 98.4172,61.2673 98.0392,61.6933 C97.5632,62.2273 96.9712,62.7303 96.3972,63.2163 C95.7572,63.7603 95.0962,64.3223 94.7382,64.8103 C94.2862,65.4243 93.6892,65.8073 93.2102,66.1153 C93.0362,66.2253 92.8752,66.3283 92.7232,66.4423 C92.0372,66.9503 91.9562,67.0763 91.8462,67.2513 C91.7422,67.4143 91.6342,67.5823 91.4732,67.7873 C91.2932,68.0213 91.1022,68.2613 90.9022,68.4983 L90.6992,68.7383 C90.2382,69.2813 89.7482,69.8593 89.0952,70.3343 C88.1582,71.0233 87.0672,71.8703 86.1392,72.8843 C86.0142,73.0223 85.8912,73.2103 85.7572,73.4043 C85.3542,73.9813 84.8532,74.7003 84.1192,75.1963 C83.8762,75.3613 83.6372,75.5233 83.4022,75.6913 C83.0072,75.9773 82.9482,76.0403 82.7732,76.2273 C82.6662,76.3423 82.5432,76.4753 82.3632,76.6533 C82.0222,76.9903 81.6572,77.2713 81.3352,77.5193 C80.9942,77.7833 80.6492,78.0483 80.3892,78.3343 C79.9092,78.8573 79.3872,79.2893 78.8812,79.7073 C78.4872,80.0303 78.0482,80.3903 77.6822,80.7743 C77.3422,81.1303 76.9592,81.4193 76.6202,81.6743 C76.4092,81.8353 76.1772,82.0073 75.9622,82.2153 L75.6062,82.5503 C75.2592,82.8753 74.9702,83.1453 74.7412,83.4553 C74.3492,83.9843 73.9082,84.5123 73.4312,85.0813 C73.0342,85.5503 72.6742,85.9763 72.3372,86.4193 C71.9972,86.8633 71.6532,87.2963 71.3062,87.7293 C70.7352,88.4493 70.1762,89.1553 69.6702,89.8663 C69.4972,90.1123 69.3152,90.3643 69.1332,90.6133 C68.7792,91.0943 68.4302,91.5763 68.1212,92.0593 C67.6352,92.8203 67.0092,93.3203 66.4562,93.7613 C66.1462,94.0053 65.8592,94.2323 65.6232,94.4743 C65.3042,94.8023 65.0632,95.1093 64.8892,95.4103 C64.5152,96.0623 64.0852,96.6393 63.6692,97.1973 C63.3362,97.6403 62.9382,98.1673 62.6322,98.6853 L62.4952,98.9083 C62.3982,99.0623 62.3332,99.1673 62.2732,99.2993 C62.1522,99.8533 61.7992,100.3353 61.2982,100.6163 C61.0222,101.2003 60.6042,101.6103 60.2582,101.9513 L60.0302,102.1793 C59.8662,102.3463 59.7522,102.4393 59.6832,102.4923 C59.3322,102.7643 58.9012,102.9113 58.4592,102.9113" id="Fill-4" fill="#FFFFFF"></path>
                <path d="M6.8428,40.4109 L8.5928,46.8989 L12.8428,54.4939 L31.3438,74.0769 L44.8068,85.4109 L53.0098,96.4109 L56.6948,99.7449 L62.0928,93.9949 L68.5928,85.9949 L75.2598,77.8539 L88.2588,66.0789 L104.7588,46.5789 C104.7588,46.5789 107.0918,34.3899 107.1748,33.6509 C107.2588,32.9119 104.1748,24.2309 104.1748,24.2309 L100.4398,14.1089 L96.3428,12.5779 L81.5088,7.6619 L69.9248,9.6619 L61.3658,15.9539 L57.0098,21.2589 L48.5088,13.3289 L38.3428,9.2449 L29.0088,8.1619 L15.7768,14.3289 L11.0928,21.3989 L6.8428,31.0789 L6.8428,40.4109 Z" id="Fill-6" fill="#FFFFFF"></path>
                <g id="Group-56" transform="translate(13.000000, 14.407000)" fill="#323232">
                    <path d="M10.1182,37.2695 C10.1182,37.2775 10.1212,37.2875 10.1232,37.2955 C10.4922,37.2285 10.8632,37.1655 11.2292,37.0895 C11.3972,37.0535 11.5932,36.9855 11.5242,36.7655 C11.4522,36.5375 11.2412,36.6035 11.0972,36.6735 C10.6912,36.8675 10.2742,36.9265 9.8332,36.8725 C9.6562,36.8475 9.3992,36.7555 9.3952,37.0395 C9.3912,37.2735 9.6532,37.2615 9.8362,37.2775 C9.9292,37.2845 10.0242,37.2725 10.1182,37.2695 M20.6042,48.8355 C20.7942,48.8395 20.9842,48.8475 21.1452,48.7185 C21.2762,48.6135 21.2992,48.4175 21.1572,48.4125 C20.5982,48.3885 20.3182,47.7875 19.7662,47.7855 C19.4992,47.7875 19.2572,47.6935 19.0052,47.6135 C18.5942,47.4845 18.1732,47.3495 17.7302,47.3655 C17.5532,47.3695 17.2962,47.3005 17.2882,47.5665 C17.2842,47.7635 17.5202,47.7535 17.6802,47.8105 C18.2542,48.0115 18.8432,48.1955 19.3762,48.4785 C19.7742,48.6915 20.1652,48.8185 20.6042,48.8355 M18.8622,48.9275 C17.6772,48.3395 16.3892,48.2655 15.2482,47.6755 C14.7872,47.4375 14.1822,47.4625 13.6392,47.4145 C13.3002,47.3845 13.0222,47.2285 12.7312,47.0995 C12.4732,46.9865 12.3842,46.7085 12.4582,46.4745 C12.5592,46.1545 12.8152,46.3675 12.9792,46.4315 C14.0062,46.8265 15.0872,46.8735 16.1592,46.9805 C16.3212,46.9985 16.5382,47.0425 16.5672,46.8025 C16.5892,46.6195 16.3982,46.5645 16.2592,46.5175 C16.0792,46.4585 15.8892,46.4315 15.7042,46.3925 C15.5932,46.3695 15.4232,46.3845 15.3782,46.3165 C14.9212,45.6155 13.9842,45.8985 13.4412,45.3515 C13.2682,45.1755 12.9382,45.2065 12.6732,45.2265 C11.9272,45.2775 11.2132,44.9625 10.4642,45.0445 C10.2512,45.0705 10.1532,44.8455 9.9872,44.7615 C9.8422,44.6855 9.7172,44.5645 9.7572,44.4055 C9.8052,44.2175 10.0052,44.2505 10.1472,44.2645 C11.0352,44.3465 11.9312,44.3855 12.8072,44.5405 C13.9732,44.7495 15.1432,44.8805 16.3272,44.8885 C16.4992,44.8885 16.7662,44.9565 16.7962,44.6995 C16.8222,44.4595 16.5592,44.3915 16.3882,44.3855 C15.1962,44.3325 14.2262,43.5885 13.0932,43.3525 C12.6092,43.2525 12.1312,43.1005 11.6402,43.0695 C10.6492,43.0045 9.7142,42.6575 8.7352,42.5365 C8.6062,42.5185 8.4552,42.5145 8.3772,42.3915 C8.2882,42.2525 8.1292,42.1255 8.1782,41.9385 C8.2392,41.7025 8.4642,41.7565 8.6102,41.7785 C9.1712,41.8605 9.7322,41.9595 10.2882,42.0815 C10.6142,42.1515 10.9262,42.1925 11.0142,41.7885 C11.0972,41.4195 10.7422,41.4535 10.5322,41.3715 C9.4902,40.9705 8.4702,40.4885 7.3052,40.5975 C7.0502,40.6215 6.8882,40.4765 6.7662,40.2545 C6.6162,39.9785 6.7012,39.8475 6.9912,39.8615 C7.3702,39.8795 7.7642,39.8725 8.1232,39.9765 C9.6942,40.4375 11.3142,40.2925 12.9132,40.4045 C13.1162,40.4175 13.3912,40.4925 13.4462,40.2355 C13.4912,40.0155 13.1612,40.0275 13.0572,39.8945 C12.2502,38.8785 11.1142,39.1055 10.0382,39.0465 C8.4662,38.9615 6.8962,38.8225 5.3252,38.7145 C5.0632,38.6975 4.8642,38.6165 4.8602,38.3315 C4.8562,38.0295 5.1122,38.0395 5.3162,38.0365 C5.9252,38.0305 6.5302,38.0575 7.1092,38.2815 C7.3042,38.3575 7.5652,38.4745 7.6622,38.2325 C7.7552,37.9975 7.4112,38.0195 7.3022,37.8805 C7.0592,37.5765 6.5712,37.8825 6.2782,37.3885 C6.9192,37.5645 7.3092,37.0835 7.8362,37.0295 C7.9322,37.0195 8.0362,36.9985 8.0452,36.8805 C8.0552,36.7405 7.9352,36.6995 7.8372,36.6425 C7.2672,36.3245 6.6312,36.2125 6.0142,36.0365 C4.8682,35.7095 3.7012,35.4275 2.7622,34.6215 C2.7052,34.5725 2.6312,34.5425 2.5792,34.4885 C2.4952,34.4005 2.4512,34.2905 2.5412,34.1835 C2.6422,34.0615 2.7452,34.1245 2.8262,34.2145 C3.2032,34.6265 3.7302,34.7495 4.2142,34.9595 C4.5142,35.0915 4.7302,35.1485 4.5672,34.6975 C4.4532,34.3765 4.6792,34.2285 4.8702,34.0155 C4.6982,34.6135 5.0202,34.7295 5.4842,34.9385 C6.4302,35.3665 7.4302,35.6175 8.3882,35.9995 C8.9252,36.2165 9.5312,36.2225 10.1182,36.2135 C10.2622,36.2105 10.3802,36.1385 10.3932,35.9785 C10.4052,35.8385 10.2932,35.7945 10.1872,35.7445 C8.2842,34.8455 6.5522,33.5975 4.4562,33.0855 C3.4652,32.8445 2.5282,32.3985 1.7432,31.7035 C1.6302,31.6055 1.5052,31.5115 1.4132,31.3955 C1.3312,31.2905 1.2882,31.1505 1.3892,31.0265 C1.4972,30.8945 1.5922,31.0325 1.6882,31.0605 C2.0182,31.1585 2.2352,31.3975 2.4172,31.6675 C2.6772,32.0575 3.0752,32.2305 3.4852,32.3805 C3.5952,32.4225 3.7592,32.5095 3.8352,32.3415 C3.9012,32.1955 3.7752,32.1015 3.6622,32.0235 C3.6142,31.9905 3.5702,31.9555 3.5302,31.9145 C3.3522,31.7385 3.1412,31.5545 3.3822,31.2905 C3.6032,31.0485 3.8062,31.2595 3.9832,31.3715 C4.8622,31.9245 5.6992,32.5525 6.6142,33.0395 C7.5052,33.5095 8.4922,33.4115 9.4482,33.1675 C9.6912,33.1075 9.6832,32.9295 9.4982,32.7965 C9.3142,32.6645 9.1052,32.5665 8.9052,32.4585 C8.7902,32.3945 8.6082,32.3695 8.5612,32.2715 C8.2002,31.5355 7.4642,31.6335 6.8612,31.5505 C5.2202,31.3245 3.7982,30.6135 2.4212,29.7535 C2.0202,29.5055 1.8272,29.0745 1.4662,28.7985 C1.3312,28.6995 1.3522,28.5585 1.4612,28.4525 C1.6372,28.2815 1.8412,28.3595 1.9702,28.4925 C2.1952,28.7205 2.4422,28.9255 2.6652,29.1535 C3.5812,30.0855 4.7842,30.4395 5.9622,30.8495 C6.0932,30.8945 6.2842,30.9725 6.3582,30.7755 C6.4282,30.5935 6.2552,30.5015 6.1322,30.4275 C5.9042,30.2905 5.6712,30.1585 5.4262,30.0595 C4.8042,29.8045 4.2332,29.4885 3.8172,28.9395 C3.6652,28.7365 3.4812,28.5985 3.1972,28.6255 C3.0122,28.6425 2.8452,28.5625 2.8862,28.3285 C2.9212,28.1275 3.0712,28.0325 3.2612,28.0625 C3.4272,28.0895 3.6082,28.1305 3.7392,28.2265 C4.4812,28.7565 5.2672,29.2185 5.9872,29.7875 C6.4262,30.1325 6.8682,30.4915 7.3412,30.7975 C7.7192,31.0425 8.1682,31.1265 8.6022,31.0375 C9.5672,30.8335 10.5382,30.6195 11.3002,29.9165 C11.3142,29.9045 11.3292,29.8915 11.3452,29.8805 C11.6102,29.7075 11.9512,29.4155 12.1792,29.7575 C12.3562,30.0275 11.9512,30.2105 11.7392,30.3815 C10.9542,31.0125 10.1122,31.5035 9.0582,31.4825 C8.9452,31.4805 8.8182,31.4845 8.7732,31.6155 C8.7172,31.7775 8.8292,31.8575 8.9512,31.9265 C9.3622,32.1615 9.7612,32.4125 10.1532,32.6815 C10.5312,32.9445 10.9392,32.7615 11.2532,32.4985 C11.5512,32.2465 11.8612,31.9605 11.7002,31.4805 C11.6532,31.3435 11.4532,31.1385 11.6862,31.0565 C11.8922,30.9825 12.0362,31.1655 12.1322,31.3865 C12.4322,32.0765 12.1742,32.6815 11.4302,32.9695 C11.2842,33.0285 11.0382,32.9995 11.0542,33.2365 C11.0712,33.4725 11.3002,33.4295 11.4622,33.4355 C11.7172,33.4475 11.8992,33.5465 11.9772,33.8005 C12.0142,33.9185 11.9982,34.0295 11.9052,34.1135 C11.6912,34.3015 11.4092,34.2345 11.2712,34.1015 C10.4272,33.2815 9.4232,33.6625 8.4672,33.6735 C8.3412,33.6765 8.1822,33.6715 8.1632,33.8575 C8.1532,33.9605 8.2232,34.0275 8.3042,34.0845 C9.4282,34.9275 11.5282,34.9455 12.6882,34.1575 C12.9502,33.9805 13.0182,33.6505 13.3132,33.5095 C13.1922,34.0315 12.6072,34.6705 12.0622,34.8085 C11.5542,34.9355 11.0442,35.1265 10.5002,34.9885 C10.3662,34.9545 10.2142,34.9555 10.1712,35.1195 C10.1292,35.2785 10.2612,35.3605 10.3832,35.4125 C10.7352,35.5645 11.1022,35.6815 11.4892,35.5805 C11.7632,35.5075 12.0242,35.3935 12.2982,35.3145 C12.5852,35.2315 12.9682,34.8675 13.1372,35.1865 C13.2632,35.4255 12.7442,35.6075 12.5182,35.8205 C12.3672,35.9625 11.9172,35.8925 12.1172,36.2835 C12.2962,36.6305 12.6512,36.4875 12.8742,36.3555 C13.2222,36.1485 13.5692,35.8535 13.5952,35.4145 C13.6212,35.0115 13.8252,35.1315 14.0522,35.1485 C14.3882,35.1755 14.3452,35.3575 14.2742,35.5825 C14.0572,36.2665 13.6452,36.7315 12.9832,37.0705 C12.3522,37.3945 11.7232,37.5915 11.0302,37.6295 C10.9072,37.6365 10.8042,37.6815 10.7672,37.8085 C10.7282,37.9455 10.8222,38.0075 10.9262,38.0705 C11.3452,38.3205 11.7532,38.4415 12.2722,38.3285 C13.0912,38.1525 13.9012,37.9905 14.6262,37.5425 C14.7412,37.4705 14.8822,37.4045 14.9862,37.5345 C15.1022,37.6775 15.0222,37.8215 14.9212,37.9435 C14.5002,38.4605 13.9332,38.6835 13.2892,38.7685 C13.0932,38.7935 12.8092,38.6775 12.7102,38.8915 C12.5812,39.1735 12.9482,39.2275 13.0732,39.3945 C13.2992,39.6955 13.7672,39.7875 13.8072,40.2715 C13.8152,40.3845 14.0052,40.3265 14.1132,40.3235 C14.5112,40.3105 14.9112,40.3065 15.3082,40.2815 C15.8392,40.2495 15.9652,39.9985 15.6722,39.5545 C15.5832,39.4215 15.4732,39.3105 15.6232,39.1605 C15.7692,39.0155 15.8912,39.1305 16.0282,39.1975 C16.4342,39.3925 16.4832,39.7485 16.4092,40.1155 C16.2982,40.6675 15.8322,40.8605 15.3582,40.9275 C14.3972,41.0625 13.4272,41.0355 12.4582,40.9745 C12.3622,40.9695 12.2682,40.9495 12.1752,40.9455 C12.0442,40.9375 11.8862,40.9155 11.8372,41.0805 C11.7782,41.2795 11.9562,41.3965 12.0842,41.3885 C12.8172,41.3505 13.2692,41.9245 13.8322,42.2175 C15.2982,42.9735 16.6262,42.4575 17.9752,41.9895 C18.3972,41.8445 18.4062,41.5785 17.9532,41.4075 C17.6862,41.3055 17.6452,41.1195 17.7772,40.9145 C17.9282,40.6755 18.0732,40.8965 18.2002,40.9745 C19.0722,41.5055 18.9852,42.0065 18.0222,42.6125 C17.5922,42.8835 17.0612,43.0695 16.5112,43.0555 C16.3822,43.0515 16.2292,43.0185 16.1602,43.1665 C16.0912,43.3155 16.1882,43.4285 16.2942,43.5105 C16.6452,43.7765 16.7652,44.2565 17.1712,44.4635 C17.8192,44.7925 19.5412,44.3725 19.9852,43.8035 C20.1042,43.6495 20.0792,43.5385 19.9772,43.3995 C19.8852,43.2705 19.6962,43.1845 19.7662,42.9325 C20.1172,42.9935 20.5062,42.8935 20.6242,43.4325 C20.7232,43.8935 20.5622,44.1535 20.1732,44.3445 C19.8062,44.5255 19.5882,44.9215 19.1282,44.9885 C18.9292,45.0195 19.0122,45.2145 19.1482,45.3335 C19.3582,45.5115 19.6132,45.5835 19.8622,45.6775 C20.0502,45.7495 20.2222,45.8925 20.1082,46.1055 C19.9872,46.3335 19.8202,46.1115 19.7392,46.0445 C18.6682,45.1695 17.4252,45.2835 16.1772,45.3905 C16.0262,45.4045 15.8382,45.3715 15.7972,45.5585 C15.7472,45.7735 15.9192,45.8375 16.0932,45.8985 C16.6082,46.0825 17.1092,46.3085 17.6302,46.4685 C18.5332,46.7445 19.4312,46.5055 20.3112,46.3265 C20.5592,46.2755 20.8302,46.2445 21.0732,46.1305 C21.5342,45.9145 21.5912,45.6365 21.2222,45.2795 C21.1182,45.1775 20.9402,45.0935 21.0842,44.9155 C21.2142,44.7555 21.3882,44.7925 21.5512,44.8765 C21.9342,45.0745 22.0452,45.4745 22.0972,45.8265 C22.1482,46.1715 21.9072,46.4865 21.5652,46.6285 C21.1152,46.8205 20.6762,47.0685 20.1552,47.0175 C20.0242,47.0055 19.8622,47.0055 19.8252,47.1695 C19.7732,47.3925 19.9762,47.4045 20.1092,47.4415 C20.4722,47.5465 20.8392,47.6405 21.2082,47.7285 C21.6162,47.8265 21.9312,47.9645 21.5692,48.4475 C22.1462,48.6545 22.4242,48.2325 22.7262,47.9575 C22.9082,47.7925 22.7232,47.6175 22.5482,47.5095 C22.4522,47.4535 22.3282,47.4005 22.3882,47.2535 C22.4382,47.1305 22.5632,47.1015 22.6752,47.1405 C22.8782,47.2105 23.1842,47.0765 23.2782,47.3555 C23.3962,47.7145 23.4772,48.1055 23.2292,48.4495 C22.9812,48.7945 22.6792,49.0765 22.2202,49.1245 C22.0972,49.1385 21.9152,49.1345 21.8952,49.2985 C21.8732,49.4965 22.0652,49.5175 22.2042,49.5705 C22.2742,49.5975 22.3452,49.6265 22.4132,49.6605 C22.5492,49.7265 22.8182,49.6325 22.7942,49.8925 C22.7722,50.1405 22.5672,50.2875 22.3312,50.3305 C22.0832,50.3745 21.7732,50.3495 21.6192,50.1975 C20.9752,49.5705 20.2612,49.4625 19.3862,49.5805 C17.8952,49.7795 16.3942,49.5875 14.8992,49.4725 C14.6172,49.4515 14.3312,49.4625 14.0472,49.4665 C13.7392,49.4725 13.5612,49.3185 13.5932,49.0215 C13.6232,48.7465 13.8582,48.7675 14.0802,48.7795 C15.4572,48.8535 16.8352,48.9085 18.1962,49.1585 C18.4562,49.2055 18.7222,49.1715 18.8622,48.9275" id="Fill-8"></path>
                    <path d="M8.8174,12.3428 C8.8274,12.3988 8.8254,12.4298 8.8364,12.4338 C9.6574,12.7568 10.2724,13.3948 10.9914,13.8728 C11.5624,14.2538 12.3724,14.3378 12.6514,15.1188 C12.7094,15.2808 12.8664,15.2028 12.9994,15.1938 C13.9594,15.1138 14.7924,14.6078 15.7104,14.3818 C15.9074,14.3318 16.0774,14.1798 16.1844,13.9918 C16.2684,13.8408 16.3504,13.7058 16.5144,13.8918 C16.6374,14.0298 16.6734,14.1758 16.4914,14.3288 C14.5274,15.9788 12.2864,15.8908 9.9974,15.4438 C10.1414,15.8718 10.2474,15.9098 10.6674,16.1928 C11.1764,16.5368 11.6204,16.9358 12.2304,17.1698 C12.8384,17.4048 13.3724,17.3198 13.9454,17.2328 C14.1134,17.2068 14.2764,17.1328 14.4444,17.1188 C14.8464,17.0918 15.0634,16.9898 14.7274,16.5808 C14.6494,16.4888 14.6064,16.3848 14.6944,16.2728 C14.7834,16.1598 14.8894,16.1918 15.0014,16.2328 C15.1434,16.2848 15.2904,16.3298 15.4344,16.3758 C15.7024,16.4628 15.9284,16.6268 15.9794,16.9028 C16.0344,17.1988 15.7104,17.2268 15.5414,17.3538 C15.1984,17.6078 14.8004,17.7308 14.3854,17.8068 C12.8004,18.1058 11.2264,17.9828 9.6574,17.6938 C9.4874,17.6618 9.3034,17.5778 9.2104,17.7868 C9.1174,17.9918 9.2924,18.0838 9.4324,18.1878 C9.9124,18.5448 10.3994,18.8928 10.8584,19.2748 C11.0104,19.4028 11.1594,19.4178 11.3264,19.4238 C11.7804,19.4378 12.2374,19.4478 12.6904,19.4488 C12.9104,19.4508 13.0994,19.3918 13.1964,19.1598 C13.2994,18.9138 13.4694,18.9298 13.6514,19.0718 C13.8994,19.2678 13.6994,19.4008 13.5774,19.5348 C13.3984,19.7308 13.1534,19.7838 12.9054,19.7988 C11.5674,19.8828 10.2244,20.1558 8.9014,19.6778 C8.7904,19.6368 8.6084,19.5738 8.5754,19.7678 C8.5414,19.9628 8.6244,20.1598 8.7884,20.2708 C9.1184,20.4898 9.4614,20.6968 9.8114,20.8868 C10.0794,21.0298 10.3154,21.1918 10.5424,21.4058 C10.8694,21.7178 11.3114,21.5138 11.6544,21.3968 C12.1984,21.2078 12.8274,21.3268 13.3074,20.9048 C13.4064,20.8188 13.6574,20.7358 13.7534,20.9508 C13.8374,21.1418 13.6134,21.1838 13.5104,21.2798 C13.2064,21.5588 12.8364,21.6548 12.4404,21.7548 C10.9764,22.1328 9.5264,22.2478 8.0674,21.7598 C7.9544,21.7218 7.8314,21.7168 7.7774,21.8508 C7.7154,22.0038 7.8074,22.1378 7.9374,22.1668 C8.3384,22.2558 8.5534,22.4888 8.6124,22.8928 C8.6324,23.0368 8.7424,23.1228 8.8974,23.1188 C9.8464,23.1058 10.7924,23.2738 11.7414,23.1558 C11.9054,23.1358 12.0904,23.1528 12.1594,22.9358 C12.2064,22.7908 12.0834,22.5158 12.3254,22.5248 C12.5174,22.5308 12.6854,22.7388 12.7334,22.9508 C12.7844,23.1758 12.6864,23.3668 12.4674,23.4608 C12.3134,23.5278 12.1454,23.6018 11.9814,23.6058 C10.7334,23.6328 9.4944,23.7038 8.2414,23.4488 C7.3784,23.2738 6.4724,23.2988 5.6314,22.9668 C5.5444,22.9318 5.4264,22.9398 5.3804,23.0308 C5.3544,23.0838 5.3894,23.1808 5.4254,23.2398 C5.4854,23.3338 5.5524,23.4698 5.6414,23.4898 C6.3624,23.6698 6.7134,24.3788 7.3524,24.6758 C7.4644,24.7288 7.5774,24.8458 7.6244,24.9598 C7.8014,25.3928 8.1734,25.4578 8.5534,25.4518 C9.7294,25.4358 10.8894,25.2988 12.0154,24.9198 C12.2374,24.8438 12.6284,24.6528 12.7184,24.9488 C12.8364,25.3398 12.3834,25.2618 12.1534,25.3848 C11.1404,25.9298 9.9634,25.7578 8.9234,26.1678 C8.8074,26.2128 8.6494,26.2458 8.5404,26.2048 C7.3854,25.7658 6.0974,25.8988 4.9694,25.3478 C4.8174,25.2728 4.5874,25.1128 4.4904,25.3808 C4.4094,25.6018 4.6594,25.6618 4.8084,25.7778 C5.4424,26.2778 6.1164,26.7248 6.7024,27.2888 C7.1924,27.7618 7.6824,28.1928 8.5034,28.1138 C9.3264,28.0378 10.1674,28.0738 10.9994,27.9958 C11.1924,27.9788 11.3774,27.9788 11.5184,27.8168 C11.6064,27.7168 11.7254,27.5928 11.8404,27.7478 C11.9244,27.8618 11.8354,28.0048 11.7584,28.1138 C11.6534,28.2618 11.4854,28.3108 11.3204,28.3628 C10.4714,28.6248 9.6254,28.5978 8.7904,28.3148 C8.6044,28.2518 8.4224,28.1308 8.3014,28.3688 C8.1864,28.5958 8.3624,28.7028 8.5294,28.8158 C8.6894,28.9228 8.8424,29.0318 9.0424,29.0428 C9.2764,29.0548 9.4814,29.1098 9.3904,29.4098 C9.3054,29.6988 9.1014,29.7128 8.8494,29.6098 C8.5094,29.4728 8.1994,29.2948 7.9434,29.0318 C7.4934,28.5668 6.9734,28.3068 6.3034,28.2438 C4.7074,28.0998 3.1984,27.5798 1.7114,27.0058 C1.2294,26.8188 0.9054,26.3818 0.3974,26.2338 C0.1874,26.1718 0.1744,25.9378 0.2494,25.7438 C0.3414,25.5008 0.5204,25.5408 0.7194,25.6118 C1.2534,25.7988 1.5984,26.2598 2.0944,26.5138 C2.9544,26.9508 3.8234,27.3338 4.7684,27.5398 C5.1544,27.6248 5.5574,27.6488 5.9214,27.8328 C6.0874,27.9168 6.2724,27.9348 6.3564,27.7288 C6.4524,27.4938 6.2184,27.4808 6.0974,27.3728 C5.6824,27.0108 5.0404,26.9008 4.8674,26.2678 C4.8504,26.2128 4.7574,26.1508 4.6944,26.1428 C4.0054,26.0528 3.4874,25.5258 2.8064,25.4108 C2.6764,25.3888 2.5134,25.3608 2.5304,25.1878 C2.5494,25.0018 2.7154,24.9998 2.8744,24.9768 C4.2704,24.7798 5.5974,25.0918 6.9134,25.5018 C7.0734,25.5528 7.2664,25.6448 7.3524,25.4188 C7.4194,25.2388 7.2394,25.1578 7.1174,25.0748 C5.5874,24.0328 4.0714,22.9728 2.4074,22.1508 C1.9694,21.9348 1.5284,21.7218 1.0794,21.5348 C0.8424,21.4368 0.6644,21.3068 0.5464,21.0388 C1.0144,21.1548 1.3704,21.5608 1.8064,21.5128 C2.9454,21.3888 3.8054,22.1718 4.8384,22.3648 C5.6024,22.5058 6.3604,22.6718 7.1204,22.8278 C7.2184,22.8498 7.3174,22.8618 7.3664,22.7598 C7.4214,22.6468 7.3954,22.5218 7.3074,22.4438 C6.8164,22.0098 6.3544,21.5268 5.7004,21.3328 C4.0744,20.8548 2.5084,20.2418 1.0574,19.3538 C0.8504,19.2288 0.7604,19.0758 0.7434,18.8598 C0.7354,18.7518 0.7884,18.6598 0.8934,18.6548 C1.1064,18.6398 1.2974,18.6688 1.4264,18.8908 C1.5874,19.1598 1.8624,19.2818 2.1474,19.4138 C2.6634,19.6488 3.1454,19.9568 3.6574,20.2008 C3.8404,20.2908 4.1374,20.4748 4.2564,20.2148 C4.3504,20.0098 4.0294,19.9198 3.8624,19.8158 C3.6864,19.7068 3.4654,19.6628 3.3404,19.4828 C3.2254,19.3168 3.1774,19.1058 3.3124,18.9528 C3.4654,18.7798 3.5614,19.0138 3.6844,19.0688 C4.7364,19.5378 5.6414,20.2328 6.5524,20.9188 C6.9364,21.2078 7.4284,21.0998 7.8524,21.2678 C8.2154,21.4108 8.6384,21.3768 9.0054,21.5548 C9.1244,21.6118 9.2764,21.6288 9.3534,21.4728 C9.4164,21.3458 9.3274,21.2458 9.2364,21.1818 C8.1964,20.4458 7.2974,19.4528 6.0174,19.1358 C5.2854,18.9548 4.5354,18.8338 3.8024,18.6428 C2.9614,18.4218 2.3444,17.7808 1.5584,17.4548 C1.4494,17.4098 1.4224,17.2638 1.5064,17.1588 C1.6154,17.0278 1.7604,17.0978 1.8724,17.1528 C2.2644,17.3398 2.6664,17.5178 3.0344,17.7458 C3.6914,18.1538 4.4404,18.3168 5.1414,18.6058 C5.3014,18.6698 5.4934,18.7578 5.5754,18.5298 C5.6454,18.3298 5.4364,18.2948 5.3104,18.2238 C4.9654,18.0278 4.5634,17.9448 4.2584,17.6708 C4.0874,17.5168 3.9054,17.3638 3.8974,17.1138 C3.8874,16.8458 4.0144,16.6548 4.2654,16.8718 C5.1084,17.6058 6.2484,17.9158 6.9854,18.7928 C7.2604,19.1188 7.6594,19.1468 8.0244,19.1758 C8.4414,19.2088 8.8524,19.2498 9.2624,19.3358 C9.4624,19.3778 9.7064,19.4358 9.7544,19.1268 C9.7964,18.8678 9.6164,18.8048 9.4054,18.7928 C9.2664,18.7858 9.1564,18.7278 9.0494,18.6368 C7.8764,17.6348 6.4914,17.0568 5.0264,16.6408 C4.9894,16.6298 4.9234,16.6228 4.9224,16.6078 C4.8234,15.8348 4.3054,16.3358 3.9634,16.2778 C3.4544,16.1928 2.9944,15.9568 2.5784,15.6498 C2.4124,15.5278 2.2884,15.3578 2.0794,15.2828 C1.9054,15.2208 1.7994,15.0528 1.8774,14.8708 C1.9734,14.6408 2.1944,14.6918 2.3724,14.7558 C2.4914,14.7968 2.5854,14.9058 2.6934,14.9818 C3.1614,15.3068 3.6334,15.6188 4.2124,15.7368 C4.4874,15.7898 4.6634,15.8008 4.8984,15.5488 C5.2004,15.2268 5.5074,15.6318 5.7694,15.7648 C6.4864,16.1308 7.1284,16.6888 7.8764,16.9338 C8.7274,17.2088 9.6634,17.2318 10.5614,17.3578 C10.6604,17.3708 10.7494,17.3208 10.7964,17.2268 C10.8664,17.0878 10.7704,17.0098 10.6704,16.9548 C10.1634,16.6858 9.6884,16.3708 9.3154,15.9338 C8.2274,14.6528 6.5904,14.5198 5.1744,13.9168 C4.6684,13.6998 4.1604,13.5038 3.6284,13.3668 C3.3154,13.2868 3.2454,13.0178 3.3074,12.7848 C3.3994,12.4488 3.6674,12.6388 3.8764,12.6898 C4.1224,12.7508 4.3194,12.8988 4.5184,13.0478 C5.0464,13.4418 5.6244,13.5608 6.2844,13.4768 C6.9314,13.3938 7.5034,13.7088 8.0124,14.0608 C8.3124,14.2658 8.6224,14.4078 8.9404,14.5708 C9.6414,14.9218 10.3854,15.0568 11.1394,15.1788 C11.3154,15.2068 11.5504,15.3418 11.6354,15.0898 C11.7004,14.8968 11.4784,14.8158 11.3364,14.7328 C10.4304,14.2168 9.5284,13.6958 8.6164,13.1958 C8.3074,13.0258 8.0404,12.8748 8.2394,12.4588 C8.3514,12.2228 8.2334,12.0858 8.0104,12.0468 C7.4704,11.9488 7.0004,11.6418 6.4384,11.5968 C5.8764,11.5518 5.4284,11.1758 4.9524,10.9138 C4.7184,10.7858 4.6684,10.4928 4.8454,10.2678 C5.0184,10.0508 5.2624,10.1568 5.3894,10.3188 C5.7414,10.7578 6.2154,10.9038 6.7344,10.9378 C7.2564,10.9728 7.5794,11.4098 8.0694,11.5378 C8.8764,11.7498 9.7124,11.8508 10.4954,12.1578 C10.6414,12.2158 10.8384,12.3648 10.9344,12.1348 C11.0154,11.9418 10.8154,11.8198 10.6694,11.7538 C10.1674,11.5258 9.6634,11.3158 9.2324,10.9518 C9.0284,10.7798 8.9504,10.6038 9.0054,10.3638 C9.0444,10.1968 9.2194,10.1188 9.2974,10.2438 C9.6084,10.7348 10.1854,10.7268 10.6224,10.9508 C11.3934,11.3468 11.9924,11.9568 12.7174,12.3998 C13.1104,12.6408 13.5204,12.7988 13.9584,12.6698 C14.5694,12.4888 15.1434,12.8108 15.7544,12.7128 C16.1804,12.6448 16.5714,12.5238 16.9124,12.2968 C17.1524,12.1378 17.2704,12.1528 17.4034,12.3768 C17.5644,12.6468 17.3944,12.7418 17.1854,12.8438 C16.3894,13.2188 15.5244,13.2738 14.6824,13.2618 C13.7664,13.2478 12.8764,13.4708 11.9154,12.9648 C11.0244,12.4928 9.8934,12.3828 8.8174,12.3428" id="Fill-10"></path>
                    <path d="M54.4814,12.4707 C54.4424,12.2987 54.3134,12.1887 54.1554,12.1347 C54.0104,12.0837 53.9584,12.2047 53.9624,12.3247 C53.9674,12.5097 54.0514,12.6467 54.2564,12.6587 C54.3774,12.6677 54.4774,12.6307 54.4814,12.4707 M57.6204,12.5077 C57.5914,12.2347 57.5284,11.9917 57.3154,11.8537 C56.3114,11.2027 55.5244,10.2907 54.5834,9.5647 C53.7504,8.9237 52.9634,8.2147 51.9504,7.8417 C51.6574,7.7357 51.3424,7.5877 51.2674,7.2167 C51.2454,7.1057 51.1924,6.9787 51.2824,6.8887 C51.3864,6.7887 51.5004,6.8857 51.5894,6.9357 C51.8054,7.0577 51.9924,7.2437 52.2194,7.3227 C53.6844,7.8277 54.8364,8.8667 56.1704,9.5917 C56.3854,9.7097 56.6844,10.0087 56.8624,9.7457 C57.0274,9.5007 56.6754,9.2637 56.4654,9.1447 C55.7124,8.7167 55.2434,7.9627 54.5044,7.5217 C54.1614,7.3167 53.9634,7.0727 54.2784,6.6457 C54.4954,6.3517 54.1964,6.2907 53.9924,6.3147 C53.6064,6.3557 53.2914,6.1777 52.9564,6.0547 C52.7374,5.9747 52.6654,5.8177 52.7114,5.6057 C52.7644,5.3537 52.9794,5.4047 53.1254,5.4507 C53.6634,5.6177 54.1944,5.8097 54.7214,6.0007 C54.8584,6.0507 54.9924,6.2207 55.1334,6.0907 C55.5914,5.6717 55.8234,6.0747 56.1804,6.2907 C57.5674,7.1277 58.8864,8.1057 60.4754,8.5627 C60.7764,8.6487 61.0804,8.6347 61.3794,8.5587 C61.6384,8.4927 61.8274,8.5767 61.9564,8.8027 C62.0474,8.9607 62.2024,9.1307 62.0564,9.3207 C61.9184,9.4977 61.7234,9.4397 61.5334,9.3827 C60.7904,9.1677 60.0634,8.9097 59.2554,9.0157 C58.8074,9.0737 58.4994,8.6717 58.1904,8.4217 C57.3354,7.7287 56.2354,7.5197 55.3404,6.9167 C55.2494,6.8547 55.1104,6.8157 55.0344,6.9377 C54.9434,7.0817 55.0614,7.1917 55.1604,7.2757 C56.1264,8.0857 57.0924,8.8967 58.0654,9.6977 C58.2084,9.8167 58.3794,9.9407 58.5554,9.9727 C58.9624,10.0507 59.2394,10.1557 59.3934,10.6347 C59.5284,11.0507 60.6274,10.9717 60.9254,10.5407 C61.0834,10.3157 61.1614,10.1827 61.4344,10.4037 C61.6944,10.6147 61.6144,10.7657 61.4464,10.9667 C61.1254,11.3537 60.7394,11.5297 60.2384,11.3947 C59.4584,11.1817 58.6064,11.2347 57.8984,10.7517 C57.7984,10.6847 57.6394,10.7007 57.5084,10.6837 C57.3974,10.6697 57.2694,10.6367 57.2184,10.7797 C57.1794,10.8877 57.2694,10.9567 57.3424,11.0117 C57.5404,11.1577 57.7374,11.3067 57.9484,11.4317 C58.3934,11.6917 58.4604,11.9417 58.1674,12.3827 C58.1144,12.4627 58.0284,12.5337 58.0814,12.6297 C58.1564,12.7677 58.2994,12.7777 58.4324,12.7357 C58.7134,12.6467 58.9904,12.5727 59.2104,12.8517 C59.2744,12.9337 59.2564,13.0407 59.1844,13.1117 C58.9424,13.3477 58.6624,13.2497 58.3794,13.2017 C57.4504,13.0407 56.6524,12.5847 55.8724,12.0917 C55.7024,11.9857 55.5364,11.9237 55.3364,11.9497 C55.1734,11.9727 55.0404,12.0417 55.0204,12.2217 C55.0024,12.4007 55.1044,12.5347 55.2694,12.5487 C55.8254,12.5897 56.0914,13.2357 56.6834,13.2047 C56.7884,13.2007 56.8764,13.3207 56.8694,13.4547 C56.8644,13.5817 56.7944,13.6897 56.6814,13.7147 C56.1534,13.8377 55.5934,13.7827 55.0854,14.0447 C54.9574,14.1117 54.7524,13.9827 54.6334,13.8497 C53.7544,12.8667 52.6804,12.1247 51.6014,11.3907 C51.3174,11.1997 51.1864,10.9517 51.3764,10.6787 C51.5764,10.3867 51.8094,10.6417 52.0184,10.7487 C52.3724,10.9327 52.6864,11.1407 52.9334,11.4847 C53.2044,11.8597 53.5674,11.8107 53.6724,11.4547 C53.7154,11.3127 53.7124,11.1977 53.5614,11.1207 C52.5084,10.5877 51.5604,9.8557 50.4264,9.4767 C50.1514,9.3837 49.9114,9.2347 49.7614,8.9697 C49.7024,8.8657 49.4994,8.8007 49.6184,8.6527 C49.7284,8.5137 49.8484,8.6467 49.9634,8.7077 C50.3954,8.9337 50.8324,9.1507 51.2684,9.3647 C51.4284,9.4437 51.6294,9.5037 51.7354,9.3297 C51.9674,8.9437 52.1624,9.1167 52.4184,9.3047 C53.1044,9.8087 53.6124,10.5047 54.3154,10.9917 C54.7454,11.2897 55.2484,11.3867 55.7044,11.6157 C56.3254,11.9267 56.9824,12.1707 57.6204,12.5077" id="Fill-12"></path>
                    <path d="M24.2607,56.7695 C24.9737,56.8085 25.6867,56.8495 26.4007,56.8825 C26.5417,56.8905 26.7377,56.9565 26.7877,56.7555 C26.8277,56.5955 26.6557,56.5525 26.5437,56.4925 C25.9227,56.1505 25.2837,55.8745 24.5497,55.9925 C23.8747,56.1015 23.2067,55.6715 22.5257,55.9825 C22.4037,56.0395 22.2667,55.9295 22.2397,55.7735 C22.2077,55.6075 22.3237,55.5235 22.4597,55.4985 C22.7027,55.4555 22.9497,55.4275 23.1957,55.4045 C23.4837,55.3765 23.8037,55.4645 23.9207,55.0375 C23.9737,54.8495 24.2157,54.9195 24.3797,54.9645 C24.8207,55.0825 25.2847,55.0685 25.7187,55.2305 C25.8657,55.2835 26.1047,55.3495 26.1587,55.1325 C26.2097,54.9275 25.9927,54.8695 25.8257,54.8245 C24.5017,54.4585 23.1377,54.4215 21.7807,54.3735 C21.4027,54.3595 21.0707,54.2945 20.7817,54.0525 C20.6977,53.9825 20.5667,53.9255 20.6157,53.7895 C20.6667,53.6445 20.7967,53.6895 20.9087,53.7065 C21.4137,53.7795 21.9297,53.7855 22.4147,53.9845 C22.5577,54.0405 22.7877,54.1095 22.8547,53.8825 C22.9107,53.6935 22.6827,53.6815 22.5717,53.5915 C21.9467,53.0875 21.1887,53.3575 20.4997,53.2305 C20.3547,53.2035 20.1967,53.2365 20.0457,53.2445 C19.7117,53.2635 19.3797,53.2105 19.3977,52.8045 C19.4127,52.4045 19.7727,52.5335 20.0207,52.5235 C20.4517,52.5115 20.8697,52.4925 21.3057,52.3785 C21.8057,52.2495 22.3467,52.4535 22.8647,52.5585 C22.9937,52.5835 23.1177,52.6425 23.2467,52.6625 C23.4067,52.6875 23.5737,52.6525 23.6177,52.4785 C23.6587,52.3265 23.5227,52.2555 23.3997,52.1875 C22.9767,51.9495 22.4787,51.9995 22.0377,51.8125 C20.8717,51.3165 19.6727,51.1565 18.4247,51.5035 C17.9577,51.6325 17.4777,51.6305 17.0787,51.2755 C16.9857,51.1915 16.8287,51.1235 16.8897,50.9605 C16.9497,50.7945 17.1017,50.8555 17.2337,50.8615 C17.7627,50.8905 18.2937,50.8845 18.8217,50.9395 C19.1827,50.9785 19.3407,50.6465 19.6747,50.5785 C20.3937,50.4335 21.0257,50.6935 21.6847,50.8025 C22.6887,50.9685 23.5757,50.5745 24.4917,50.3145 C24.7107,50.2535 24.6557,50.0485 24.5447,49.8905 C24.4697,49.7835 24.3487,49.6775 24.5007,49.5505 C24.6097,49.4585 24.7497,49.4555 24.8807,49.4845 C25.0847,49.5315 25.2037,49.6815 25.2647,49.8715 C25.3267,50.0625 25.2787,50.2165 25.1417,50.3885 C24.7297,50.9045 24.1947,51.1015 23.5557,51.0955 C23.3877,51.0955 23.1687,51.0975 23.1407,51.3085 C23.1147,51.5175 23.3607,51.4605 23.4737,51.5405 C24.0467,51.9535 24.7957,51.9625 25.3727,52.4065 C25.5947,52.5765 25.9647,52.4255 26.1727,52.1645 C26.3687,51.9175 26.5887,51.9605 26.7497,52.1505 C26.9457,52.3785 26.7547,52.5175 26.5577,52.6325 C25.9187,53.0035 25.2317,53.1565 24.4947,53.1035 C24.3457,53.0915 24.1927,53.0665 24.0437,53.0815 C23.9287,53.0935 23.8377,53.1795 23.8357,53.3145 C23.8347,53.4295 23.9387,53.4495 24.0147,53.5035 C24.7817,54.0485 25.6257,53.9295 26.4637,53.7775 C26.8007,53.7145 27.1307,53.6445 27.4757,53.6345 C28.0317,53.6215 28.4067,53.2595 28.7997,52.9315 C28.8987,52.8475 28.9577,52.6035 29.1467,52.7815 C29.3157,52.9415 29.1727,53.1245 29.0637,53.2305 C28.6647,53.6115 28.2097,53.9275 27.6617,54.0405 C27.3337,54.1075 27.0237,54.2895 26.6627,54.2055 C26.5417,54.1755 26.3807,54.2165 26.3587,54.3885 C26.3347,54.5645 26.4857,54.6055 26.6107,54.6425 C27.0627,54.7735 27.4437,54.9605 27.8247,55.2945 C28.2397,55.6565 28.8287,55.3085 29.3317,55.1585 C29.5457,55.0955 29.7757,54.7165 29.9607,55.0075 C30.1807,55.3515 29.7967,55.5195 29.5537,55.6915 C29.0537,56.0375 28.4857,56.0465 27.9127,56.0295 C27.7477,56.0235 27.5437,55.9645 27.5097,56.2125 C27.4747,56.4685 27.6907,56.4765 27.8627,56.5645 C28.6987,57.0015 29.5357,56.5395 30.3707,56.5825 C30.6877,56.5995 30.7427,56.3045 30.6157,56.0335 C30.5407,55.8715 30.4337,55.6975 30.6587,55.6015 C30.9087,55.4965 30.9877,55.7015 31.0517,55.8885 C31.2037,56.3305 31.1067,56.7225 30.6737,56.8965 C29.2337,57.4725 27.7547,57.7675 26.2377,57.2055 C26.0147,57.1235 25.9207,57.3245 25.7767,57.2965 C25.2567,57.1955 24.7397,57.0665 24.2237,56.9475 C24.2357,56.8885 24.2487,56.8285 24.2607,56.7695" id="Fill-14"></path>
                    <path d="M29.5635,61.6562 C29.9155,61.6292 30.2755,61.5292 30.5715,61.8302 C30.6675,61.9262 30.8205,62.0002 30.8995,61.8242 C30.9695,61.6622 30.8335,61.5822 30.6895,61.5582 C30.1475,61.4702 29.6895,61.2812 29.4705,60.7152 C29.3935,60.5132 29.1745,60.5822 29.0125,60.5902 C28.6415,60.6052 28.2905,60.5522 27.9805,60.3422 C27.8545,60.2562 27.7555,60.1192 27.8195,59.9492 C27.8825,59.7792 28.0305,59.8302 28.1615,59.8532 C28.8295,59.9692 29.4975,60.0862 30.1785,60.1052 C30.2915,60.1092 30.4055,60.1502 30.5165,60.1402 C30.7315,60.1212 31.0675,60.2032 31.1045,59.9392 C31.1475,59.6312 30.7885,59.6812 30.5865,59.6312 C29.7665,59.4202 29.0045,58.9742 28.1215,59.0212 C27.7805,59.0392 27.4395,59.0492 27.0995,59.0432 C26.8255,59.0372 26.5985,58.9272 26.6125,58.6132 C26.6255,58.3142 26.8605,58.3452 27.0795,58.3452 C27.4575,58.3432 27.8275,58.3262 28.1835,58.1382 C28.6125,57.9142 28.9725,58.2892 29.3765,58.3422 C30.4835,58.4862 31.5815,58.5952 32.6145,58.0102 C32.7475,57.9332 32.8705,57.7362 33.0565,57.8712 C33.1095,57.9082 33.1165,58.0472 33.1035,58.1352 C33.0735,58.3362 32.9155,58.3732 32.7385,58.4292 C32.1925,58.5992 31.7155,59.0292 31.0765,58.8532 C30.9595,58.8222 30.8505,58.9162 30.8255,59.0372 C30.7945,59.1762 30.8915,59.2422 31.0115,59.2772 C31.4635,59.4122 31.9245,59.5082 32.2545,59.9082 C32.3745,60.0542 32.5765,59.9002 32.7345,59.8512 C33.0265,59.7692 33.3155,59.6542 33.6245,59.7192 C33.7425,59.7442 33.9155,59.7522 33.9155,59.9292 C33.9155,60.0522 33.8045,60.1132 33.6945,60.1582 C32.8835,60.4782 32.0795,60.8042 31.1775,60.7032 C31.0475,60.6872 30.8875,60.6912 30.8515,60.8512 C30.8405,60.9042 30.9435,61.0252 31.0165,61.0522 C31.7455,61.3222 32.3855,61.9042 33.2635,61.6622 C33.4865,61.6012 33.6965,61.5492 33.8855,61.4122 C34.0015,61.3302 34.1315,61.1972 34.2925,61.3202 C34.3915,61.3962 34.3755,61.5212 34.3585,61.6362 C34.3345,61.8012 34.2645,61.9242 34.0905,61.9632 C33.8335,62.0232 33.4305,61.8362 33.3545,62.1972 C33.2925,62.4902 33.6875,62.6172 33.8725,62.8222 C33.9945,62.9592 34.0505,63.0602 33.9005,63.2032 C33.7685,63.3242 33.6305,63.4632 33.4755,63.2562 C32.8705,62.4372 32.0315,62.3432 31.0935,62.4002 C30.4975,62.4352 30.0685,61.9392 29.5635,61.6562" id="Fill-16"></path>
                    <path d="M54.8281,17.0332 C54.5811,17.0862 54.3071,16.9222 54.0121,16.8652 C53.7721,16.8162 53.4911,16.8142 53.5791,17.1712 C53.6981,17.6562 53.3661,17.7322 53.0741,17.7052 C51.9701,17.5992 50.7611,17.8962 49.8561,16.9262 C49.7371,16.7972 49.5281,16.7242 49.3481,16.6812 C48.6901,16.5272 48.6161,15.7772 48.0931,15.4722 C47.8941,15.3572 48.0941,15.1332 48.2151,14.9882 C48.3731,14.8032 48.4351,14.9732 48.5621,15.0582 C49.1451,15.4502 49.7231,15.8752 50.3561,16.1642 C51.0041,16.4582 51.6401,16.8062 52.3581,16.9352 C52.6591,16.9882 52.9841,17.0692 53.0571,16.6972 C53.1221,16.3582 52.7661,16.4212 52.5501,16.3312 C51.9051,16.0642 51.2881,15.7342 50.6541,15.4412 C49.8211,15.0602 49.1981,14.3512 48.3531,13.9912 C48.0471,13.8612 48.1201,13.6622 48.2161,13.4322 C48.3321,13.1542 48.4991,13.1812 48.7121,13.3112 C49.1141,13.5572 49.5181,13.6862 50.0261,13.6982 C50.6101,13.7152 51.0991,14.1402 51.5251,14.5602 C51.8011,14.8302 52.0991,15.0532 52.4791,15.1522 C52.7391,15.2212 52.9771,15.3082 53.0441,15.6372 C53.0931,15.8712 53.3451,15.9102 53.5391,15.9682 C54.1641,16.1512 54.8001,16.2212 55.4531,16.1312 C55.7291,16.0942 56.1241,16.0292 56.2181,16.3242 C56.3311,16.6742 55.8881,16.7122 55.6711,16.8612 C55.4441,17.0172 55.1641,17.0002 54.8281,17.0332" id="Fill-18"></path>
                    <path d="M59.6563,4.7656 C59.4253,4.7206 59.1093,4.6606 58.7943,4.6016 C58.6803,4.5786 58.5563,4.5566 58.5223,4.7086 C58.4973,4.8206 58.5833,4.8946 58.6753,4.9156 C58.9843,4.9906 59.0963,5.2036 59.1353,5.4926 C59.1513,5.6296 59.2253,5.7526 59.3663,5.7926 C60.0523,5.9806 60.7213,6.3006 61.4633,6.0636 C61.8113,5.9516 62.0723,6.0486 62.1783,6.4106 C62.3053,6.8396 61.9563,6.8066 61.7083,6.8516 C60.7123,7.0316 59.7823,6.7416 58.9303,6.2936 C58.1063,5.8626 57.1963,5.6656 56.3783,5.2266 C55.8173,4.9246 55.2113,4.7066 54.6313,4.4376 C54.4603,4.3586 54.3033,4.2326 54.2543,4.0326 C54.2153,3.8676 54.1543,3.6606 54.2863,3.5426 C54.4783,3.3726 54.5693,3.6206 54.6963,3.7086 C55.2143,4.0666 55.8133,4.2596 56.3743,4.5286 C56.6103,4.6436 56.8623,4.5056 57.0673,4.3676 C57.2493,4.2426 57.2743,4.1036 57.0313,3.9946 C56.9133,3.9426 56.7723,3.8836 56.7063,3.7856 C56.5793,3.5986 56.4483,3.3266 56.6063,3.1566 C56.8133,2.9316 56.9503,3.2286 57.0943,3.3476 C57.8883,4.0046 59.5513,4.1936 60.4463,3.7046 C60.6573,3.5876 60.7603,3.6436 60.8543,3.8206 C60.9873,4.0696 60.9873,4.3166 60.7203,4.4626 C60.4223,4.6266 60.0933,4.7226 59.6563,4.7656" id="Fill-20"></path>
                    <path d="M16.3545,10.9727 C15.9365,10.9887 15.5205,11.0077 15.1025,11.0167 C14.9675,11.0197 14.8315,10.9917 14.7705,11.1567 C14.5975,11.6147 14.2565,11.5067 13.9925,11.3237 C13.0905,10.6987 12.0595,10.4817 11.0155,10.2767 C9.2045,9.9217 7.5025,9.2287 5.7995,8.5447 C5.5415,8.4427 5.4285,8.2437 5.4815,8.0137 C5.5385,7.7647 5.8075,7.8227 5.9665,7.8617 C6.3155,7.9497 6.6815,8.0397 6.9795,8.2287 C8.3625,9.1017 9.9265,9.4887 11.4635,9.9517 C11.6065,9.9927 11.7745,10.0837 11.8775,9.9187 C11.9705,9.7697 11.8745,9.6367 11.7555,9.5237 C11.6095,9.3827 11.4775,9.2067 11.6745,9.0397 C11.8615,8.8807 12.0405,9.0297 12.1705,9.1677 C12.5625,9.5807 13.1385,9.7487 13.5165,10.1997 C13.6385,10.3437 13.9325,10.3917 14.1525,10.4067 C15.4895,10.4887 16.8295,10.6617 18.1655,10.3727 C18.3515,10.3317 18.4975,10.2927 18.4755,10.0567 C18.4565,9.8627 18.5205,9.6937 18.7465,9.7207 C18.9885,9.7487 19.2615,9.8047 19.3915,10.0257 C19.4985,10.2067 19.2905,10.3277 19.1675,10.4317 C18.7315,10.8027 18.1745,10.7757 17.6575,10.8557 C17.2315,10.9217 16.7885,10.8987 16.3525,10.9137 C16.3525,10.9337 16.3545,10.9537 16.3545,10.9727" id="Fill-22"></path>
                    <path d="M57.0771,15.4844 C56.4201,15.3694 55.7681,15.2574 55.1181,15.1404 C54.8981,15.1014 54.7121,14.9984 54.5781,15.3344 C54.4341,15.6924 54.1331,15.4614 53.9751,15.3234 C52.9751,14.4434 51.8231,13.8004 50.6811,13.1364 C50.3781,12.9614 50.1221,12.7224 49.9931,12.3394 C49.8491,11.9124 49.4581,11.6774 49.0241,11.5574 C48.8801,11.5174 48.7021,11.5374 48.6651,11.3454 C48.6321,11.1684 48.7061,11.0004 48.8311,10.8804 C48.9831,10.7304 49.1531,10.8184 49.2961,10.9164 C49.9231,11.3384 50.5881,11.7174 51.1611,12.2034 C52.1341,13.0304 53.2021,13.7264 54.3501,14.2204 C55.3071,14.6324 56.4031,14.6874 57.4661,14.6914 C57.6341,14.6944 57.7291,14.5644 57.8121,14.4294 C57.9591,14.1974 58.1941,14.1124 58.3891,14.2954 C58.6021,14.4974 58.5001,14.7824 58.3081,14.9484 C57.9621,15.2484 57.5381,15.4184 57.0771,15.4844" id="Fill-24"></path>
                    <path d="M17.0283,9.3516 C16.5893,9.3106 15.9983,9.2856 15.4233,9.1836 C15.2683,9.1556 14.7613,9.4456 14.9213,8.8376 C14.9403,8.7656 14.6013,8.7516 14.4613,8.8106 C14.0123,8.9926 13.5903,8.9316 13.1323,8.8286 C11.4833,8.4516 9.7943,8.2366 8.2333,7.5246 C8.0503,7.4396 7.8283,7.4336 7.6203,7.4126 C7.3453,7.3806 7.1893,7.2176 7.2093,6.9626 C7.2313,6.6686 7.4873,6.7916 7.6593,6.7856 C8.4203,6.7516 8.9973,7.2886 9.6983,7.4436 C10.5613,7.6326 11.3773,8.0076 12.2643,8.0856 C12.6013,8.1156 12.8413,8.3976 13.1633,8.4146 C14.8073,8.4976 16.4333,9.0836 18.0983,8.5956 C18.4383,8.4966 18.9723,8.5666 18.5893,7.9326 C18.4923,7.7726 18.6423,7.7396 18.7493,7.7226 C19.0063,7.6826 19.1823,7.8516 19.3433,8.0036 C19.5173,8.1696 19.3903,8.3496 19.3073,8.5236 C19.1263,8.9086 18.7633,9.0546 18.3993,9.1446 C18.0003,9.2466 17.5973,9.3766 17.0283,9.3516" id="Fill-26"></path>
                    <path d="M32.4385,64.1719 C32.3255,64.1879 32.2135,64.2049 32.1005,64.2189 C31.8765,64.2499 31.7315,64.1679 31.6995,63.9319 C31.6685,63.6949 31.8315,63.6309 32.0105,63.6189 C32.2365,63.6059 32.4705,63.5779 32.6895,63.6229 C33.6025,63.8089 34.4815,63.5919 35.3685,63.4399 C35.4795,63.4199 35.5875,63.3769 35.7005,63.3709 C35.8725,63.3629 36.0695,63.3649 36.1005,63.5879 C36.1315,63.7989 35.9305,63.8109 35.7955,63.8559 C35.3285,64.0099 34.8565,64.1599 34.3505,64.0779 C34.2125,64.0569 34.0725,64.0629 34.0195,64.2229 C33.9545,64.4199 34.0965,64.4899 34.2435,64.5509 C34.7775,64.7699 35.2995,65.0509 35.9085,64.9429 C36.1645,64.8989 36.3335,64.7049 36.5345,64.5669 C36.6275,64.5019 36.7455,64.4359 36.8425,64.5349 C36.9335,64.6269 36.8915,64.7539 36.8315,64.8479 C36.7215,65.0269 36.5735,65.1719 36.3765,65.2639 C36.2415,65.3279 36.0295,65.3929 36.0045,65.4959 C35.8375,66.1659 35.4915,65.9509 35.0045,65.8519 C34.5225,65.7519 34.0245,65.5939 33.5065,65.6189 C33.3255,65.6269 33.1245,65.5679 32.9605,65.4839 C32.7625,65.3829 32.5175,65.2209 32.6625,64.9589 C32.7935,64.7209 32.9995,64.9359 33.1575,64.9999 C33.2835,65.0509 33.4105,65.1409 33.5255,65.0389 C33.6685,64.9139 33.5005,64.8069 33.4675,64.6899 C33.3145,64.1329 32.8875,64.1369 32.4385,64.1719" id="Fill-28"></path>
                    <path d="M18.3623,7.123 C18.4343,7.13 18.4113,7.133 18.3973,7.125 C17.7953,6.768 17.1703,6.971 16.5383,7.016 C15.3823,7.102 14.2433,6.988 13.1533,6.536 C13.0053,6.475 12.8153,6.511 12.6463,6.502 C12.4383,6.49 12.1843,6.537 12.0463,6.381 C11.5263,5.79 10.8413,5.844 10.1613,5.828 C10.0323,5.824 9.8913,5.799 9.7793,5.734 C9.5513,5.607 9.5773,5.371 9.6433,5.18 C9.7193,4.957 9.8873,5.098 10.0203,5.152 C10.7163,5.437 11.4643,5.561 12.1553,5.891 C12.6343,6.119 13.2073,6.205 13.7473,6.244 C15.2023,6.35 16.6233,6.756 18.0913,6.73 C18.3743,6.727 18.6843,6.822 18.7713,6.416 C18.8153,6.213 18.9073,6.102 19.1263,6.211 C19.3193,6.307 19.6203,6.285 19.6333,6.588 C19.6413,6.795 19.4753,6.945 19.2923,6.992 C19.0173,7.062 18.7313,7.076 18.3623,7.123" id="Fill-30"></path>
                    <path d="M36.7393,68.9316 C36.6073,68.9416 36.4753,68.9586 36.3433,68.9626 C35.8223,68.9806 35.7373,68.8476 35.9473,68.3596 C36.2463,67.6606 36.0243,67.2986 35.2503,67.2326 C35.0243,67.2126 34.7973,67.2146 34.5703,67.2066 C34.3543,67.1976 34.1803,67.0956 34.1993,66.8726 C34.2183,66.6656 34.4253,66.7226 34.5683,66.7186 C35.2723,66.6936 35.9893,66.8276 36.6633,66.4906 C36.7873,66.4276 36.9733,66.4416 37.0743,66.5876 C37.1903,66.7596 37.0463,66.8636 36.9403,66.9706 C36.9003,67.0096 36.8573,67.0506 36.8293,67.0976 C36.7313,67.2656 36.3423,67.2856 36.4943,67.5366 C36.6353,67.7696 36.8383,68.0446 37.1993,68.0296 C37.3113,68.0256 37.4283,68.0276 37.5373,68.0506 C37.7333,68.0956 37.9953,68.0976 37.9723,68.3906 C37.9543,68.6486 37.8463,68.8696 37.5313,68.8886 C37.2683,68.9066 37.0053,68.9356 36.7423,68.9586 C36.7413,68.9496 36.7403,68.9396 36.7393,68.9316" id="Fill-32"></path>
                    <path d="M19.0615,4.666 C18.6505,4.934 18.2215,4.975 17.8385,4.995 C15.9465,5.089 14.0515,5.095 12.1865,4.666 C11.9575,4.615 11.8185,4.512 11.7525,4.279 C11.6765,4.014 11.7545,3.918 12.0225,3.969 C12.0595,3.976 12.0975,3.979 12.1345,3.988 C14.2785,4.498 16.4525,4.641 18.6475,4.543 C18.7215,4.539 18.7995,4.543 18.8745,4.554 C18.9075,4.56 18.9355,4.59 19.0615,4.666" id="Fill-34"></path>
                    <path d="M52.1777,18.6943 C52.3817,19.1443 52.0827,19.1623 51.7627,19.1583 C50.8657,19.1463 50.0187,18.8263 49.1377,18.7053 C48.7957,18.6583 48.5067,18.3643 48.3517,18.0153 C48.3037,17.9063 48.1827,17.7793 48.3137,17.6543 C48.4247,17.5453 48.5637,17.5883 48.6847,17.6483 C49.3017,17.9573 49.9787,18.0593 50.6377,18.2263 C51.0147,18.3203 51.3887,18.3203 51.7677,18.2763 C52.0767,18.2403 52.3267,18.2623 52.1777,18.6943" id="Fill-36"></path>
                    <path d="M3.2119,24.5664 C2.5229,24.7224 1.9549,24.4624 1.4379,24.0824 C1.1329,23.8594 0.8469,23.6174 0.4879,23.4744 C0.3619,23.4234 0.1509,23.3594 0.2579,23.1644 C0.3469,22.9984 0.5269,23.0954 0.6709,23.1304 C0.7059,23.1384 0.7429,23.1554 0.7739,23.1754 C1.5499,23.7014 2.3189,24.2344 3.2119,24.5664" id="Fill-38"></path>
                    <path d="M2.665,32.8906 C2.276,32.9906 1.973,32.9336 1.728,32.6916 C1.66,32.6206 1.598,32.5436 1.668,32.4496 C1.69,32.4166 1.778,32.3946 1.811,32.4116 C2.1,32.5666 2.382,32.7306 2.665,32.8906" id="Fill-40"></path>
                    <path d="M3.3477,33.8301 C3.4597,33.6541 3.6657,33.6331 3.8237,33.5981 C4.0327,33.5501 4.0127,33.7771 4.0287,33.9131 C4.0477,34.0871 3.9817,34.2211 3.7767,34.1751 C3.5887,34.1331 3.4517,34.0081 3.3477,33.8301" id="Fill-42"></path>
                    <path d="M20.6045,48.8359 C20.1655,48.8179 19.7745,48.6909 19.3755,48.4789 C18.8425,48.1949 18.2535,48.0119 17.6805,47.8109 C17.5205,47.7539 17.2845,47.7639 17.2885,47.5659 C17.2955,47.3009 17.5525,47.3689 17.7305,47.3649 C18.1725,47.3499 18.5935,47.4839 19.0045,47.6129 C19.2565,47.6929 19.4995,47.7869 19.7665,47.7849 C20.3185,47.7869 20.5985,48.3889 21.1575,48.4119 C21.2985,48.4179 21.2765,48.6129 21.1455,48.7189 C20.9845,48.8479 20.7935,48.8399 20.6045,48.8359" id="Fill-44"></path>
                    <path d="M10.1182,37.2695 C10.0242,37.2725 9.9292,37.2845 9.8362,37.2775 C9.6532,37.2615 9.3912,37.2735 9.3952,37.0395 C9.3992,36.7555 9.6562,36.8475 9.8332,36.8725 C10.2742,36.9265 10.6912,36.8675 11.0972,36.6735 C11.2412,36.6035 11.4522,36.5375 11.5242,36.7655 C11.5932,36.9855 11.3972,37.0535 11.2292,37.0895 C10.8632,37.1655 10.4922,37.2285 10.1232,37.2955 C10.1212,37.2875 10.1182,37.2775 10.1182,37.2695" id="Fill-46"></path>
                    <path d="M54.4814,12.4707 C54.4774,12.6307 54.3774,12.6677 54.2564,12.6587 C54.0514,12.6467 53.9674,12.5097 53.9624,12.3247 C53.9584,12.2047 54.0104,12.0837 54.1554,12.1347 C54.3134,12.1887 54.4424,12.2987 54.4814,12.4707" id="Fill-48"></path>
                    <path d="M64.4697,4.4023 C63.9967,4.5483 63.5597,4.4883 63.1727,4.4183 C61.2627,4.0623 59.3697,3.6303 57.6107,2.8103 C57.3957,2.7113 57.2807,2.5853 57.2687,2.3613 C57.2527,2.1053 57.3537,2.0363 57.6087,2.1443 C57.6457,2.1583 57.6817,2.1723 57.7157,2.1873 C59.7357,3.1423 61.8707,3.7763 64.0847,4.1973 C64.1607,4.2093 64.2357,4.2323 64.3077,4.2593 C64.3407,4.2713 64.3627,4.3053 64.4697,4.4023" id="Fill-50"></path>
                    <path d="M64.6201,2.957 C64.3131,3.053 64.0311,3.012 63.7811,2.967 C62.5481,2.734 61.3271,2.455 60.1931,1.924 C60.0561,1.859 59.9811,1.777 59.9761,1.633 C59.9691,1.467 60.0341,1.424 60.1981,1.492 C60.2211,1.503 60.2451,1.512 60.2661,1.521 C61.5651,2.14 62.9441,2.551 64.3741,2.824 C64.4231,2.832 64.4721,2.846 64.5181,2.864 C64.5381,2.873 64.5531,2.893 64.6201,2.957" id="Fill-52"></path>
                    <path d="M65.1377,1.6211 C64.8307,1.7171 64.5477,1.6761 64.2967,1.6301 C63.0637,1.3981 63.5067,1.6411 62.3757,1.1091 C62.2377,1.0451 62.1627,0.9631 62.1567,0.8181 C62.1497,0.6541 62.2147,0.6081 62.3807,0.6781 C62.4037,0.6871 62.4267,0.6971 62.4487,0.7071 C63.7467,1.3241 63.4597,1.2151 64.8897,1.4891 C64.9387,1.4971 64.9867,1.5101 65.0327,1.5281 C65.0537,1.5371 65.0677,1.5591 65.1377,1.6211" id="Fill-54"></path>
                </g>
                <path d="M104.6279,35.9558 C104.5549,36.2808 104.5319,36.6378 104.5089,37.0168 L104.4949,37.2368 C104.4759,37.5178 104.4129,37.7568 104.3099,37.9538 C104.3939,38.2368 104.3499,38.4988 104.3329,38.6018 C104.2309,39.2058 104.1669,39.8378 104.1069,40.4478 C104.0429,41.0788 103.9739,41.7698 103.8619,42.4348 C103.6279,43.8128 103.2509,44.7628 102.6729,45.4218 C102.3179,45.8268 102.1669,46.3088 101.9909,46.8658 C101.8969,47.1648 101.8019,47.4618 101.6799,47.7528 C101.0489,49.2518 100.1529,50.5188 99.2159,51.7928 C99.0159,52.0648 98.8019,52.3278 98.5869,52.5918 C98.3679,52.8588 98.1729,53.1008 97.9899,53.3498 C97.8239,53.5768 97.6689,53.8108 97.5139,54.0448 C97.1399,54.6098 96.7329,55.2238 96.1959,55.7588 C95.9089,56.0448 95.6439,56.3768 95.3859,56.6988 C94.9319,57.2658 94.4649,57.8498 93.8239,58.3258 C93.6509,58.4548 93.5259,58.5958 93.4399,58.7578 C92.9689,59.6448 92.3169,60.3188 91.6879,60.9718 C91.4479,61.2218 91.2409,61.4358 91.0419,61.6588 C90.6209,62.1318 90.1459,62.5458 89.7249,62.9128 C89.2329,63.3408 88.7709,63.7448 88.3839,64.2238 C88.0029,64.6938 87.5219,65.0178 87.0969,65.3038 C86.8129,65.4928 86.5439,65.6728 86.3279,65.8798 C86.0209,66.1728 85.7339,66.5008 85.4329,66.8468 C84.8759,67.4848 84.2999,68.1438 83.5209,68.6568 C83.0439,68.9718 82.6359,69.4108 82.2049,69.8778 C81.7859,70.3328 81.3569,70.7978 80.8249,71.1878 C80.1769,71.6668 79.6069,72.2198 79.0049,72.8078 C78.7139,73.0908 78.4309,73.3658 78.1399,73.6358 C76.8039,74.8618 75.6929,76.0278 74.7439,77.2018 C74.3559,77.6828 73.8979,78.0198 73.4549,78.3448 C73.1999,78.5318 72.9819,78.6918 72.7799,78.8718 C71.6749,79.8598 70.5809,81.0188 69.4389,82.4128 L69.2059,82.6918 C68.6369,83.3778 68.0489,84.0848 67.8139,84.8968 C67.6849,85.3348 67.3209,85.5578 67.1249,85.6788 C66.0619,86.3288 65.3369,87.3248 64.8229,88.1198 C64.6489,88.3918 64.5059,88.7078 64.3549,89.0458 C64.1769,89.4418 63.9799,89.8818 63.7049,90.2918 L63.4349,90.6938 C62.7959,91.6548 61.2669,92.6508 60.3679,93.4418 C59.5649,94.1508 59.7979,94.9718 59.2159,95.7488 C59.0519,95.9698 58.5519,96.6418 57.7039,96.6418 C57.4469,96.6418 57.1869,96.5768 56.9299,96.4538 C56.7289,96.5068 56.5189,96.5338 56.3149,96.5338 C55.2019,96.5338 54.5049,95.7138 54.2759,95.4418 L53.8829,94.9848 C53.2099,94.2038 52.5169,93.3968 51.9639,92.4558 C51.8879,92.3268 51.7159,92.1918 51.5329,92.0478 C51.3989,91.9418 51.2639,91.8348 51.1419,91.7198 C50.3749,91.0008 49.7629,90.1938 49.1709,89.4128 L49.1069,89.3288 C48.9369,89.1038 48.7289,88.8918 48.5079,88.6668 C48.1029,88.2548 47.6509,87.7938 47.3339,87.1648 C47.2629,87.0198 47.0269,86.8328 46.8209,86.6648 C46.6069,86.4908 46.3659,86.2978 46.1549,86.0578 C45.5519,85.3778 44.8819,84.7158 44.2339,84.0748 C43.3939,83.2428 42.5479,82.4048 41.7819,81.4868 C41.5109,81.1628 41.1749,80.9308 40.7829,80.7938 C40.1649,80.5808 39.6809,80.1138 39.3819,79.7588 C39.1709,79.5108 38.8769,79.3168 38.5649,79.1118 L38.2219,78.8798 C37.5669,78.4208 36.8779,77.9208 36.2859,77.2698 C36.2249,77.2038 36.1029,77.1338 35.9599,77.0558 C35.7629,76.9438 35.5759,76.8348 35.3959,76.6858 C34.0749,75.5828 32.8289,74.3898 31.6229,73.2328 L31.2739,72.9008 C30.0699,71.7488 28.7999,70.7018 27.4989,69.7858 L27.1079,69.5148 C26.2649,68.9308 25.3899,68.3268 24.7219,67.4908 C24.4579,67.1608 24.1159,66.8968 23.7559,66.6178 C23.4049,66.3448 23.0439,66.0648 22.7109,65.6998 C22.4419,65.4048 22.2589,65.0948 22.0969,64.8208 L21.9519,64.5848 C21.6899,64.1628 21.2959,63.8038 20.8799,63.4228 C20.4459,63.0238 20.0009,62.6158 19.6339,62.0868 C19.1709,61.4228 18.6429,60.7778 18.1319,60.1548 C17.6529,59.5708 17.1659,58.9738 16.7159,58.3478 C16.5479,58.1128 16.3359,57.8978 16.1099,57.6698 L16.0119,57.5698 C15.5669,57.1228 15.2919,56.6068 15.0479,56.1518 C14.9499,55.9678 14.8569,55.7918 14.7529,55.6238 C14.6489,55.4528 14.5279,55.2938 14.4069,55.1358 C14.2189,54.8878 14.0059,54.6048 13.8299,54.2698 C13.4819,53.6048 13.1059,52.9528 12.7299,52.3018 L12.6659,52.1888 C12.4429,51.8018 12.2219,51.4168 12.0049,51.0258 C11.5729,50.2448 11.1739,49.4118 10.7489,48.4048 C10.4499,47.6908 10.2159,46.9628 9.9879,46.2588 C9.7569,45.5398 9.5279,44.8248 9.2449,44.1608 C9.0079,43.6008 8.9329,43.0448 8.8589,42.5068 C8.8139,42.1688 8.7729,41.8738 8.6999,41.6038 C8.6549,41.4328 8.6219,41.2568 8.5879,41.0818 C8.5029,40.6338 8.4469,40.3778 8.2589,40.2038 C7.8089,39.7928 7.8819,39.2488 7.9129,39.0178 L7.9259,38.9258 C7.9189,38.6158 7.8939,38.3598 7.8679,38.1048 C7.8119,37.5198 7.7509,36.8888 7.9039,36.2218 C8.0459,35.6058 8.0819,34.9618 8.1199,34.2778 C8.1649,33.4988 8.2089,32.7018 8.4109,31.8918 C8.4499,31.7348 8.4479,31.5238 8.4439,31.3018 C8.4399,31.0378 8.4359,30.7388 8.4929,30.4188 C8.7969,28.7058 9.4089,27.1198 10.0009,25.5878 C10.1809,25.1218 10.3409,24.7058 10.4949,24.2858 C10.8379,23.3538 11.3709,22.6238 11.8879,21.9178 C12.0399,21.7098 12.1829,21.5148 12.3189,21.3148 C12.5029,21.0518 12.6799,20.7858 12.8569,20.5178 L12.9089,20.4408 C13.6179,19.3768 14.3509,18.2738 15.3159,17.3248 C15.5769,17.0678 15.8309,16.8058 16.0859,16.5408 L16.1979,16.4258 C17.0869,15.5008 18.0069,14.5438 19.1629,13.8008 C19.8679,13.3478 20.4989,13.0268 21.1489,12.7938 C21.3249,12.7288 21.5239,12.5868 21.7349,12.4368 C21.9819,12.2608 22.2529,12.0668 22.5769,11.9198 C23.2109,11.6318 23.8429,11.2588 24.4529,10.8998 L24.8349,10.6758 C26.1079,9.9328 27.5389,9.4968 29.0879,9.3818 C29.2649,9.3678 29.4399,9.3588 29.6119,9.3508 C30.1899,9.3188 30.7159,9.2918 31.2059,9.1438 C31.6679,9.0058 32.3579,9.0668 32.8059,9.1428 C33.0199,9.1798 33.2359,9.2178 33.4229,9.2178 C34.1829,9.2218 34.9399,9.3378 35.6069,9.4398 L35.6979,9.4538 C35.9369,9.4898 36.1769,9.5258 36.4149,9.5578 C37.0049,9.6338 37.4699,9.8478 37.8319,10.2098 C39.0209,10.2798 40.0649,10.5948 41.0769,10.8978 C41.5189,11.0298 41.9189,11.1488 42.3229,11.2488 C42.6699,11.3348 42.9949,11.4158 43.3079,11.4428 C43.9969,11.5028 44.6359,11.7868 45.0109,12.2038 C45.3769,12.6088 45.8779,12.8888 46.4089,13.1848 C46.7989,13.4008 47.2389,13.6458 47.6489,13.9648 C48.8329,14.8848 49.9009,15.9208 50.9359,16.9228 L51.1239,17.1058 C52.0179,17.9738 52.8029,18.9128 53.5619,19.8208 L53.6769,19.9578 C53.9409,20.2738 54.2059,20.5908 54.4759,20.9008 C55.2359,21.7818 56.0129,22.7448 56.4129,23.9898 C56.5429,24.3928 57.1069,24.4478 57.4339,24.2828 C58.2319,22.0178 59.5899,20.1058 60.9149,18.3408 C62.3869,16.3798 64.1519,14.6078 66.1629,13.0778 C66.7619,12.6208 67.4029,12.3558 68.0239,12.0998 C68.1909,12.0298 68.3579,11.9618 68.5229,11.8888 C70.1929,11.1488 71.6959,10.5448 73.1179,10.0378 C74.9109,9.3988 76.7469,8.9848 78.5739,8.8058 C80.7439,8.5968 82.4099,8.6648 84.0499,9.0358 C84.7209,9.1858 85.3369,9.4268 85.9329,9.6578 C86.3929,9.8358 86.8249,10.0048 87.2659,10.1278 C88.2739,10.4088 89.2579,10.7688 90.2089,11.1148 C91.0089,11.4068 91.7569,11.6808 92.4989,11.9108 C93.6119,12.2578 94.9909,12.6858 96.0609,13.8038 C96.1889,13.9378 96.3879,14.0658 96.5989,14.2018 C96.8179,14.3428 97.0319,14.4828 97.2259,14.6448 C98.8169,15.9768 100.0239,17.3558 100.9169,18.8638 C101.0859,19.1468 101.2599,19.4268 101.4329,19.7058 C101.7709,20.2498 102.1119,20.8018 102.4109,21.3778 C103.0569,22.6178 103.5129,24.0518 103.8029,25.7628 C103.8389,25.9808 103.8899,26.1958 103.9389,26.4118 C104.0579,26.9288 104.1809,27.4618 104.1689,28.0548 C104.1459,29.2138 104.3259,30.4058 104.5009,31.5598 C104.5769,32.0648 104.6509,32.5598 104.7129,33.0558 C104.8479,34.1438 104.8189,35.0918 104.6279,35.9558 M107.5369,39.3938 L107.5699,39.2918 C107.7739,38.6688 107.9629,38.0868 108.0729,37.5008 C108.1959,36.8518 108.0929,36.1548 107.9819,35.4158 C107.8469,34.5228 107.7089,33.6058 107.9189,32.6248 C107.7319,31.9678 107.6969,31.3268 107.6649,30.7078 C107.6499,30.4268 107.6359,30.1488 107.6059,29.8738 C107.5819,29.6648 107.5229,29.4538 107.4609,29.2288 C107.3619,28.8678 107.2489,28.4578 107.2499,28.0008 C107.2529,27.3388 107.0229,26.6848 106.7659,26.0168 C106.4549,25.2078 106.2949,24.3708 106.2759,23.4538 C106.2729,23.1878 106.1999,23.1278 106.0849,23.0578 C105.6099,22.7738 105.4169,22.3908 105.2919,22.0518 C105.0579,21.4158 104.7629,20.6698 104.3599,19.9518 C104.2729,19.7968 104.1669,19.6448 104.0649,19.4928 C103.7569,19.0438 103.4179,18.5498 103.2969,17.8948 C103.2479,17.6318 103.0869,17.3968 102.8829,17.0988 L102.7139,16.8458 C102.4139,16.3818 102.0149,15.9778 101.5929,15.5518 C101.2669,15.2238 100.8969,14.8508 100.5669,14.4298 C100.4499,14.2798 100.3799,14.1318 100.3279,14.0228 C100.3189,14.0048 100.3119,13.9868 100.3049,13.9738 C99.8019,13.7258 99.4309,13.3738 99.1009,13.0608 C98.9269,12.8988 98.7899,12.7698 98.6439,12.6548 C97.7109,11.9208 96.6069,11.1088 95.3119,10.7568 C95.1269,10.7058 94.8529,10.6318 94.5939,10.3898 C93.7099,9.5648 92.6849,8.9578 91.5499,8.5868 C91.0739,8.4308 90.6119,8.2388 90.1669,8.0538 C89.3189,7.7008 88.5579,7.3838 87.7499,7.2818 C86.8099,7.1658 85.8779,6.9768 84.9799,6.7958 L84.4439,6.6868 C84.1629,6.6318 83.8839,6.5648 83.6069,6.4988 C82.7879,6.3038 82.0789,6.1268 81.3019,6.2408 C80.5029,6.3558 79.6829,6.3748 78.9589,6.3918 C78.3809,6.4048 77.8399,6.4188 77.3169,6.4658 C75.5729,6.6258 73.7689,6.7918 72.2319,7.5578 C71.9829,7.6818 71.7459,7.7218 71.5709,7.7508 C71.5039,7.7628 71.4419,7.7688 71.3979,7.7858 C71.0479,8.1018 70.5959,8.2528 70.2309,8.3758 C70.0789,8.4258 69.9329,8.4738 69.7939,8.5398 C69.4079,8.7218 69.0139,8.8368 68.6669,8.9378 C68.1999,9.0768 67.8019,9.1938 67.4679,9.4248 C67.3209,9.5258 67.1869,9.6398 67.0519,9.7508 C66.8209,9.9418 66.6079,10.1148 66.3779,10.2628 C65.5929,10.7658 64.8599,11.3948 64.1499,12.0048 C63.6729,12.4148 63.1919,12.8248 62.6929,13.2098 C62.3279,13.4888 61.9899,13.8078 61.6319,14.1448 C61.4189,14.3468 61.2269,14.5268 61.0299,14.7038 L60.6049,15.0818 C59.4389,16.1178 58.3369,17.0948 57.6939,18.4258 C57.3879,19.0708 56.9179,19.1688 56.6669,19.1688 C56.1259,19.1688 55.8049,18.7488 55.6989,18.6108 C55.4739,18.3128 55.2399,18.0278 55.0089,17.7408 C54.7409,17.4128 54.4759,17.0848 54.2199,16.7448 C53.8679,16.2788 53.4319,15.8618 52.9689,15.4208 C52.4949,14.9708 51.9609,14.4638 51.5129,13.8718 C51.2019,13.4598 50.7689,13.1228 50.3109,12.7688 C49.8839,12.4358 49.4439,12.0948 49.0469,11.6528 C48.7079,11.2778 48.4029,11.0558 48.0909,10.9518 C47.3489,10.7038 46.6899,10.3388 46.0519,9.9868 C45.6869,9.7848 45.3599,9.6038 45.0229,9.4418 C44.8509,9.3598 44.6749,9.2798 44.4979,9.1988 C43.9189,8.9348 43.3289,8.6638 42.7639,8.2958 C42.5579,8.1608 42.2419,8.1038 41.9069,8.0438 C41.5339,7.9768 41.1149,7.9008 40.6899,7.7058 C40.4909,7.6158 40.2239,7.5598 39.9649,7.5048 C39.4929,7.4048 38.9059,7.2798 38.3729,6.9048 L38.2039,6.9248 C37.3469,6.9248 36.5279,6.7468 35.8069,6.5908 C35.2169,6.4638 34.6589,6.3428 34.1009,6.3058 C33.3069,6.2558 32.5269,6.3078 32.0749,6.4498 C31.1439,6.7458 30.2059,6.8658 29.2989,6.9828 C28.2429,7.1178 27.2469,7.2468 26.3189,7.6318 C25.9079,7.8038 25.4829,7.9458 25.0579,8.0888 C24.5119,8.2698 23.9949,8.4418 23.5209,8.6788 C22.0079,9.4308 20.4739,10.2548 18.8309,11.2018 C18.6769,11.2918 18.5049,11.3598 18.3309,11.4278 C18.2499,11.4578 18.0819,11.5218 18.0479,11.5558 C17.6859,12.1608 17.1419,12.5248 16.6609,12.8188 C15.3859,13.5988 15.1109,13.9088 14.2799,15.1518 C13.9719,15.6138 13.6229,16.0318 13.2849,16.4348 C13.0299,16.7368 12.7839,17.0318 12.5589,17.3418 C12.3539,17.6218 12.1359,17.8928 11.9169,18.1628 C11.4729,18.7098 11.0689,19.2058 10.7879,19.7668 C10.4669,20.4128 10.0829,21.0108 9.7129,21.5878 C9.4839,21.9428 9.2589,22.2938 9.0499,22.6518 C8.9029,22.9058 8.7639,23.1708 8.6259,23.4358 C8.3369,23.9948 8.0369,24.5708 7.6369,25.0848 C7.2079,25.6388 6.9699,26.2998 6.7189,26.9988 C6.5419,27.4938 6.3629,27.9928 6.1119,28.4848 C6.0699,28.5668 5.9739,28.7548 5.9609,28.8188 C6.0509,29.9768 5.7219,31.0318 5.4029,32.0538 L5.3639,32.1808 C5.3109,32.3548 5.2569,32.5298 5.2059,32.7058 C5.1329,32.9578 5.1069,33.2188 5.1199,33.5518 C5.1259,33.6858 5.1359,33.8238 5.1459,33.9628 C5.1949,34.6388 5.2399,35.2498 5.0869,35.8758 C5.0009,36.2198 5.0239,36.4208 5.1729,36.6788 C5.3299,36.9498 5.3719,37.1938 5.4029,37.3728 C5.4849,37.8578 5.4739,38.2888 5.4619,38.7058 C5.4519,39.0088 5.4429,39.2878 5.4719,39.5498 L5.5159,39.9768 C5.6009,40.8088 5.6859,41.6378 5.8669,42.3678 C5.9919,42.8798 6.0839,43.3968 6.1749,43.9168 C6.3349,44.8418 6.4849,45.7158 6.8469,46.5098 C6.9699,46.7768 6.9929,47.0098 6.9729,47.1958 C7.0089,47.2238 7.0499,47.2558 7.0829,47.2798 C7.3829,47.5088 7.8839,47.8898 7.9069,48.6358 C7.9389,49.5108 8.3739,50.2978 8.8369,51.1308 L8.9489,51.3338 C9.1259,51.6588 9.3259,51.9698 9.5239,52.2798 C9.8419,52.7738 10.0989,53.1788 10.3249,53.6148 C10.7389,54.4198 11.2529,55.1938 11.7489,55.9428 L12.0129,56.3418 C12.1159,56.4998 12.2829,56.6558 12.4599,56.8238 C12.7449,57.0958 13.0929,57.4238 13.3329,57.8908 C13.4309,58.0798 13.4939,58.2768 13.5539,58.4728 C13.5899,58.5918 13.6239,58.7088 13.6569,58.7578 C14.1649,59.5598 14.8249,60.3058 15.4639,61.0278 L15.5789,61.1568 C16.5929,62.3038 17.6379,63.4868 18.5539,64.7568 C18.6539,64.8208 18.7099,64.8598 18.7629,64.9048 C18.8909,65.0128 19.0259,65.1078 19.1629,65.2078 C19.6189,65.5358 20.0869,65.8738 20.4189,66.3988 C20.6709,66.7978 20.8369,67.0628 21.0659,67.2238 C21.3169,67.4008 21.5159,67.6008 21.6899,67.7758 C21.7709,67.8538 21.8489,67.9328 21.9309,68.0088 C22.1859,68.2348 22.3279,68.4868 22.4419,68.6898 C22.4939,68.7818 22.5649,68.9108 22.5989,68.9348 C23.1539,69.3288 23.5749,69.6508 23.9599,69.9718 C24.2189,70.1898 24.4209,70.4328 24.6009,70.6448 C24.8289,70.9168 25.0179,71.1418 25.2439,71.2548 C25.6099,71.4358 25.9929,71.7288 26.2959,72.0598 C26.7129,72.5108 27.2179,72.8898 27.7509,73.2918 C27.9859,73.4678 28.2209,73.6448 28.4499,73.8288 C28.7609,74.0788 29.1209,74.2938 29.5019,74.5218 L29.6219,74.5948 C29.9639,74.7978 30.1299,75.1008 30.2299,75.2778 C30.2399,75.2998 30.2509,75.3208 30.2619,75.3388 C31.1549,75.8058 31.8759,76.4028 32.4639,77.1648 C32.5069,77.2218 32.6529,77.3108 32.7699,77.3818 L32.8569,77.4358 C33.0219,77.5378 33.1899,77.6278 33.3599,77.7178 C33.6549,77.8758 33.9329,78.0258 34.1969,78.2078 C34.4439,78.3758 34.6459,78.5768 34.8059,78.7368 C34.9559,78.8878 35.0979,79.0318 35.2079,79.0868 C36.3229,79.6528 37.2219,80.4398 38.0929,81.2038 C38.4829,81.5478 38.8659,81.8838 39.2669,82.1958 C40.4349,83.1118 41.5769,84.1828 42.7579,85.4718 C43.1009,85.8468 43.4479,86.2138 43.7979,86.5788 C44.6169,87.4398 45.4639,88.3308 46.2219,89.3108 C46.2939,89.4048 46.3619,89.5068 46.4299,89.6098 C46.4779,89.6828 46.5539,89.7978 46.5859,89.8288 C47.3549,90.3168 47.8609,90.9888 48.3529,91.6398 C48.6359,92.0168 48.9019,92.3698 49.2099,92.6668 C49.4489,92.8968 49.5939,93.2428 49.5849,93.5688 C49.5959,93.5748 49.6949,93.6898 49.7489,93.7508 L49.8439,93.8618 C50.0579,94.1118 50.2629,94.3678 50.4689,94.6258 C51.0359,95.3308 51.5649,95.9868 52.2209,96.4988 C52.3899,96.6318 52.5319,96.8038 52.6349,96.9968 C52.8759,97.4618 53.2479,97.8678 53.6429,98.2978 C53.8519,98.5258 54.0619,98.7568 54.2559,98.9948 C54.4369,99.2178 54.6869,99.4288 54.9519,99.6508 C55.2569,99.9048 55.5949,100.1878 55.8909,100.5458 C56.1889,100.5628 56.4599,100.6098 56.6919,100.6528 C56.9669,100.7038 57.1999,100.7488 57.4389,100.7488 L57.6169,100.7568 C57.6479,100.7328 57.6969,100.6898 57.7729,100.6158 L58.0199,100.3738 C58.3489,100.0598 58.6069,99.8128 58.7119,99.4988 C58.8329,99.1418 59.1509,98.8368 59.5049,98.7408 L59.5039,98.7408 C59.4759,98.7408 59.5369,98.5908 59.5599,98.5318 C59.7059,98.1728 59.8579,97.9378 59.9929,97.7288 L60.1099,97.5458 C60.4699,96.9558 60.8979,96.3988 61.2759,95.9068 C61.6869,95.3738 62.0739,94.8698 62.3989,94.3188 C62.6639,93.8738 63.0089,93.4418 63.4519,92.9988 C63.7809,92.6708 64.1399,92.3948 64.4549,92.1508 C64.9649,91.7568 65.4029,91.4188 65.7239,90.9328 C66.0619,90.4208 66.4429,89.9068 66.8249,89.3988 C67.0049,89.1588 67.1839,88.9208 67.3569,88.6808 C67.9129,87.9168 68.5129,87.1828 69.0919,86.4758 C69.4349,86.0558 69.7739,85.6398 70.1069,85.2178 C70.4709,84.7508 70.8579,84.3038 71.2469,83.8558 C71.7159,83.3128 72.1489,82.8108 72.5339,82.3038 C72.8799,81.8488 73.2729,81.4928 73.6509,81.1488 L73.9929,80.8348 C74.2709,80.5748 74.5639,80.3558 74.8469,80.1468 C75.1729,79.9068 75.4499,79.7018 75.6719,79.4758 C76.1159,79.0198 76.5969,78.6358 77.0619,78.2628 C77.5439,77.8758 77.9939,77.5148 78.3799,77.1018 C78.7669,76.6898 79.2079,76.3598 79.5969,76.0668 C79.9039,75.8368 80.1939,75.6178 80.4509,75.3718 C80.9869,74.8558 80.9489,74.7838 81.7439,74.2268 C81.9959,74.0498 82.2539,73.8798 82.5129,73.7098 C83.1889,73.2648 83.7089,72.2548 84.2049,71.7258 C85.2609,70.6008 86.4609,69.6918 87.4959,68.9518 C87.9699,68.6158 88.3559,68.1708 88.7649,67.6978 L88.9749,67.4578 C89.1579,67.2488 89.3309,67.0318 89.5029,66.8148 C89.9469,66.2628 89.8269,66.0768 91.1489,65.1238 C91.3469,64.9808 91.5549,64.8518 91.7639,64.7218 C92.1609,64.4738 92.5349,64.2408 92.7669,63.9328 C93.6489,62.7608 95.3209,61.7078 96.2309,60.7118 C96.5149,60.3988 96.7599,60.0238 97.0189,59.6278 C97.4849,58.9108 98.0099,58.1028 98.8829,57.5468 C99.1639,56.7868 99.6659,56.1678 100.1529,55.5668 C100.3999,55.2628 100.6329,54.9758 100.8369,54.6688 C101.2989,53.9758 101.7249,53.3858 102.1399,52.8638 C102.4999,52.4108 102.7559,51.8658 103.0279,51.2898 C103.2939,50.7258 103.5659,50.1468 103.9549,49.6008 C104.0739,49.4308 104.2079,49.2738 104.3419,49.1168 C104.4759,48.9618 104.5949,48.8238 104.6939,48.6668 C104.8659,48.3938 104.9929,48.0828 105.1269,47.7528 C105.2369,47.4808 105.3489,47.2128 105.4819,46.9538 C105.7179,46.4918 105.8509,45.9928 105.9909,45.4658 L106.1209,44.9948 C106.1939,44.7398 106.2289,44.4578 106.2669,44.1578 C106.3119,43.7858 106.3529,43.4288 106.4559,43.0708 L106.6839,42.2678 C106.9129,41.4598 107.1259,40.7048 107.3569,39.9558 C107.4149,39.7688 107.4759,39.5808 107.5369,39.3938" id="Fill-57" fill="#323232"></path>
            </g>
        </g>
    </g>
</svg>